%TF.GenerationSoftware,KiCad,Pcbnew,7.0.2*%
%TF.CreationDate,2023-10-27T13:44:30+02:00*%
%TF.ProjectId,zmct_3phase,7a6d6374-5f33-4706-9861-73652e6b6963,rev?*%
%TF.SameCoordinates,Original*%
%TF.FileFunction,Legend,Top*%
%TF.FilePolarity,Positive*%
%FSLAX46Y46*%
G04 Gerber Fmt 4.6, Leading zero omitted, Abs format (unit mm)*
G04 Created by KiCad (PCBNEW 7.0.2) date 2023-10-27 13:44:30*
%MOMM*%
%LPD*%
G01*
G04 APERTURE LIST*
%ADD10C,0.300000*%
%ADD11C,0.150000*%
%ADD12C,0.100000*%
%ADD13C,0.120000*%
G04 APERTURE END LIST*
D10*
X136523809Y-90755238D02*
X135380952Y-90755238D01*
X135952380Y-90755238D02*
X135952380Y-88755238D01*
X135952380Y-88755238D02*
X135761904Y-89040952D01*
X135761904Y-89040952D02*
X135571428Y-89231428D01*
X135571428Y-89231428D02*
X135380952Y-89326666D01*
X166285714Y-115755238D02*
X167523809Y-115755238D01*
X167523809Y-115755238D02*
X166857142Y-116517142D01*
X166857142Y-116517142D02*
X167142857Y-116517142D01*
X167142857Y-116517142D02*
X167333333Y-116612380D01*
X167333333Y-116612380D02*
X167428571Y-116707619D01*
X167428571Y-116707619D02*
X167523809Y-116898095D01*
X167523809Y-116898095D02*
X167523809Y-117374285D01*
X167523809Y-117374285D02*
X167428571Y-117564761D01*
X167428571Y-117564761D02*
X167333333Y-117660000D01*
X167333333Y-117660000D02*
X167142857Y-117755238D01*
X167142857Y-117755238D02*
X166571428Y-117755238D01*
X166571428Y-117755238D02*
X166380952Y-117660000D01*
X166380952Y-117660000D02*
X166285714Y-117564761D01*
X169904762Y-117755238D02*
X169904762Y-115755238D01*
X169904762Y-115755238D02*
X170666667Y-115755238D01*
X170666667Y-115755238D02*
X170857143Y-115850476D01*
X170857143Y-115850476D02*
X170952381Y-115945714D01*
X170952381Y-115945714D02*
X171047619Y-116136190D01*
X171047619Y-116136190D02*
X171047619Y-116421904D01*
X171047619Y-116421904D02*
X170952381Y-116612380D01*
X170952381Y-116612380D02*
X170857143Y-116707619D01*
X170857143Y-116707619D02*
X170666667Y-116802857D01*
X170666667Y-116802857D02*
X169904762Y-116802857D01*
X171904762Y-117755238D02*
X171904762Y-115755238D01*
X172761905Y-117755238D02*
X172761905Y-116707619D01*
X172761905Y-116707619D02*
X172666667Y-116517142D01*
X172666667Y-116517142D02*
X172476191Y-116421904D01*
X172476191Y-116421904D02*
X172190476Y-116421904D01*
X172190476Y-116421904D02*
X172000000Y-116517142D01*
X172000000Y-116517142D02*
X171904762Y-116612380D01*
X174571429Y-117755238D02*
X174571429Y-116707619D01*
X174571429Y-116707619D02*
X174476191Y-116517142D01*
X174476191Y-116517142D02*
X174285715Y-116421904D01*
X174285715Y-116421904D02*
X173904762Y-116421904D01*
X173904762Y-116421904D02*
X173714286Y-116517142D01*
X174571429Y-117660000D02*
X174380953Y-117755238D01*
X174380953Y-117755238D02*
X173904762Y-117755238D01*
X173904762Y-117755238D02*
X173714286Y-117660000D01*
X173714286Y-117660000D02*
X173619048Y-117469523D01*
X173619048Y-117469523D02*
X173619048Y-117279047D01*
X173619048Y-117279047D02*
X173714286Y-117088571D01*
X173714286Y-117088571D02*
X173904762Y-116993333D01*
X173904762Y-116993333D02*
X174380953Y-116993333D01*
X174380953Y-116993333D02*
X174571429Y-116898095D01*
X175428572Y-117660000D02*
X175619048Y-117755238D01*
X175619048Y-117755238D02*
X176000000Y-117755238D01*
X176000000Y-117755238D02*
X176190477Y-117660000D01*
X176190477Y-117660000D02*
X176285715Y-117469523D01*
X176285715Y-117469523D02*
X176285715Y-117374285D01*
X176285715Y-117374285D02*
X176190477Y-117183809D01*
X176190477Y-117183809D02*
X176000000Y-117088571D01*
X176000000Y-117088571D02*
X175714286Y-117088571D01*
X175714286Y-117088571D02*
X175523810Y-116993333D01*
X175523810Y-116993333D02*
X175428572Y-116802857D01*
X175428572Y-116802857D02*
X175428572Y-116707619D01*
X175428572Y-116707619D02*
X175523810Y-116517142D01*
X175523810Y-116517142D02*
X175714286Y-116421904D01*
X175714286Y-116421904D02*
X176000000Y-116421904D01*
X176000000Y-116421904D02*
X176190477Y-116517142D01*
X177904763Y-117660000D02*
X177714287Y-117755238D01*
X177714287Y-117755238D02*
X177333334Y-117755238D01*
X177333334Y-117755238D02*
X177142858Y-117660000D01*
X177142858Y-117660000D02*
X177047620Y-117469523D01*
X177047620Y-117469523D02*
X177047620Y-116707619D01*
X177047620Y-116707619D02*
X177142858Y-116517142D01*
X177142858Y-116517142D02*
X177333334Y-116421904D01*
X177333334Y-116421904D02*
X177714287Y-116421904D01*
X177714287Y-116421904D02*
X177904763Y-116517142D01*
X177904763Y-116517142D02*
X178000001Y-116707619D01*
X178000001Y-116707619D02*
X178000001Y-116898095D01*
X178000001Y-116898095D02*
X177047620Y-117088571D01*
X181523811Y-117564761D02*
X181428573Y-117660000D01*
X181428573Y-117660000D02*
X181142859Y-117755238D01*
X181142859Y-117755238D02*
X180952383Y-117755238D01*
X180952383Y-117755238D02*
X180666668Y-117660000D01*
X180666668Y-117660000D02*
X180476192Y-117469523D01*
X180476192Y-117469523D02*
X180380954Y-117279047D01*
X180380954Y-117279047D02*
X180285716Y-116898095D01*
X180285716Y-116898095D02*
X180285716Y-116612380D01*
X180285716Y-116612380D02*
X180380954Y-116231428D01*
X180380954Y-116231428D02*
X180476192Y-116040952D01*
X180476192Y-116040952D02*
X180666668Y-115850476D01*
X180666668Y-115850476D02*
X180952383Y-115755238D01*
X180952383Y-115755238D02*
X181142859Y-115755238D01*
X181142859Y-115755238D02*
X181428573Y-115850476D01*
X181428573Y-115850476D02*
X181523811Y-115945714D01*
X182095240Y-115755238D02*
X183238097Y-115755238D01*
X182666668Y-117755238D02*
X182666668Y-115755238D01*
X155380952Y-88945714D02*
X155476190Y-88850476D01*
X155476190Y-88850476D02*
X155666666Y-88755238D01*
X155666666Y-88755238D02*
X156142857Y-88755238D01*
X156142857Y-88755238D02*
X156333333Y-88850476D01*
X156333333Y-88850476D02*
X156428571Y-88945714D01*
X156428571Y-88945714D02*
X156523809Y-89136190D01*
X156523809Y-89136190D02*
X156523809Y-89326666D01*
X156523809Y-89326666D02*
X156428571Y-89612380D01*
X156428571Y-89612380D02*
X155285714Y-90755238D01*
X155285714Y-90755238D02*
X156523809Y-90755238D01*
X175285714Y-88755238D02*
X176523809Y-88755238D01*
X176523809Y-88755238D02*
X175857142Y-89517142D01*
X175857142Y-89517142D02*
X176142857Y-89517142D01*
X176142857Y-89517142D02*
X176333333Y-89612380D01*
X176333333Y-89612380D02*
X176428571Y-89707619D01*
X176428571Y-89707619D02*
X176523809Y-89898095D01*
X176523809Y-89898095D02*
X176523809Y-90374285D01*
X176523809Y-90374285D02*
X176428571Y-90564761D01*
X176428571Y-90564761D02*
X176333333Y-90660000D01*
X176333333Y-90660000D02*
X176142857Y-90755238D01*
X176142857Y-90755238D02*
X175571428Y-90755238D01*
X175571428Y-90755238D02*
X175380952Y-90660000D01*
X175380952Y-90660000D02*
X175285714Y-90564761D01*
D11*
%TO.C,R4*%
X156233333Y-106462619D02*
X155900000Y-105986428D01*
X155661905Y-106462619D02*
X155661905Y-105462619D01*
X155661905Y-105462619D02*
X156042857Y-105462619D01*
X156042857Y-105462619D02*
X156138095Y-105510238D01*
X156138095Y-105510238D02*
X156185714Y-105557857D01*
X156185714Y-105557857D02*
X156233333Y-105653095D01*
X156233333Y-105653095D02*
X156233333Y-105795952D01*
X156233333Y-105795952D02*
X156185714Y-105891190D01*
X156185714Y-105891190D02*
X156138095Y-105938809D01*
X156138095Y-105938809D02*
X156042857Y-105986428D01*
X156042857Y-105986428D02*
X155661905Y-105986428D01*
X157090476Y-105795952D02*
X157090476Y-106462619D01*
X156852381Y-105415000D02*
X156614286Y-106129285D01*
X156614286Y-106129285D02*
X157233333Y-106129285D01*
D12*
%TO.C,U3*%
X172442857Y-97002619D02*
X173109523Y-97002619D01*
X173109523Y-97002619D02*
X172442857Y-98002619D01*
X172442857Y-98002619D02*
X173109523Y-98002619D01*
X173490476Y-98002619D02*
X173490476Y-97002619D01*
X173490476Y-97002619D02*
X173823809Y-97716904D01*
X173823809Y-97716904D02*
X174157142Y-97002619D01*
X174157142Y-97002619D02*
X174157142Y-98002619D01*
X175204761Y-97907380D02*
X175157142Y-97955000D01*
X175157142Y-97955000D02*
X175014285Y-98002619D01*
X175014285Y-98002619D02*
X174919047Y-98002619D01*
X174919047Y-98002619D02*
X174776190Y-97955000D01*
X174776190Y-97955000D02*
X174680952Y-97859761D01*
X174680952Y-97859761D02*
X174633333Y-97764523D01*
X174633333Y-97764523D02*
X174585714Y-97574047D01*
X174585714Y-97574047D02*
X174585714Y-97431190D01*
X174585714Y-97431190D02*
X174633333Y-97240714D01*
X174633333Y-97240714D02*
X174680952Y-97145476D01*
X174680952Y-97145476D02*
X174776190Y-97050238D01*
X174776190Y-97050238D02*
X174919047Y-97002619D01*
X174919047Y-97002619D02*
X175014285Y-97002619D01*
X175014285Y-97002619D02*
X175157142Y-97050238D01*
X175157142Y-97050238D02*
X175204761Y-97097857D01*
X175490476Y-97002619D02*
X176061904Y-97002619D01*
X175776190Y-98002619D02*
X175776190Y-97002619D01*
X176919047Y-98002619D02*
X176347619Y-98002619D01*
X176633333Y-98002619D02*
X176633333Y-97002619D01*
X176633333Y-97002619D02*
X176538095Y-97145476D01*
X176538095Y-97145476D02*
X176442857Y-97240714D01*
X176442857Y-97240714D02*
X176347619Y-97288333D01*
X177538095Y-97002619D02*
X177633333Y-97002619D01*
X177633333Y-97002619D02*
X177728571Y-97050238D01*
X177728571Y-97050238D02*
X177776190Y-97097857D01*
X177776190Y-97097857D02*
X177823809Y-97193095D01*
X177823809Y-97193095D02*
X177871428Y-97383571D01*
X177871428Y-97383571D02*
X177871428Y-97621666D01*
X177871428Y-97621666D02*
X177823809Y-97812142D01*
X177823809Y-97812142D02*
X177776190Y-97907380D01*
X177776190Y-97907380D02*
X177728571Y-97955000D01*
X177728571Y-97955000D02*
X177633333Y-98002619D01*
X177633333Y-98002619D02*
X177538095Y-98002619D01*
X177538095Y-98002619D02*
X177442857Y-97955000D01*
X177442857Y-97955000D02*
X177395238Y-97907380D01*
X177395238Y-97907380D02*
X177347619Y-97812142D01*
X177347619Y-97812142D02*
X177300000Y-97621666D01*
X177300000Y-97621666D02*
X177300000Y-97383571D01*
X177300000Y-97383571D02*
X177347619Y-97193095D01*
X177347619Y-97193095D02*
X177395238Y-97097857D01*
X177395238Y-97097857D02*
X177442857Y-97050238D01*
X177442857Y-97050238D02*
X177538095Y-97002619D01*
X178204762Y-97002619D02*
X178823809Y-97002619D01*
X178823809Y-97002619D02*
X178490476Y-97383571D01*
X178490476Y-97383571D02*
X178633333Y-97383571D01*
X178633333Y-97383571D02*
X178728571Y-97431190D01*
X178728571Y-97431190D02*
X178776190Y-97478809D01*
X178776190Y-97478809D02*
X178823809Y-97574047D01*
X178823809Y-97574047D02*
X178823809Y-97812142D01*
X178823809Y-97812142D02*
X178776190Y-97907380D01*
X178776190Y-97907380D02*
X178728571Y-97955000D01*
X178728571Y-97955000D02*
X178633333Y-98002619D01*
X178633333Y-98002619D02*
X178347619Y-98002619D01*
X178347619Y-98002619D02*
X178252381Y-97955000D01*
X178252381Y-97955000D02*
X178204762Y-97907380D01*
X179823809Y-97907380D02*
X179776190Y-97955000D01*
X179776190Y-97955000D02*
X179633333Y-98002619D01*
X179633333Y-98002619D02*
X179538095Y-98002619D01*
X179538095Y-98002619D02*
X179395238Y-97955000D01*
X179395238Y-97955000D02*
X179300000Y-97859761D01*
X179300000Y-97859761D02*
X179252381Y-97764523D01*
X179252381Y-97764523D02*
X179204762Y-97574047D01*
X179204762Y-97574047D02*
X179204762Y-97431190D01*
X179204762Y-97431190D02*
X179252381Y-97240714D01*
X179252381Y-97240714D02*
X179300000Y-97145476D01*
X179300000Y-97145476D02*
X179395238Y-97050238D01*
X179395238Y-97050238D02*
X179538095Y-97002619D01*
X179538095Y-97002619D02*
X179633333Y-97002619D01*
X179633333Y-97002619D02*
X179776190Y-97050238D01*
X179776190Y-97050238D02*
X179823809Y-97097857D01*
%TO.C,U2*%
X152442857Y-97002619D02*
X153109523Y-97002619D01*
X153109523Y-97002619D02*
X152442857Y-98002619D01*
X152442857Y-98002619D02*
X153109523Y-98002619D01*
X153490476Y-98002619D02*
X153490476Y-97002619D01*
X153490476Y-97002619D02*
X153823809Y-97716904D01*
X153823809Y-97716904D02*
X154157142Y-97002619D01*
X154157142Y-97002619D02*
X154157142Y-98002619D01*
X155204761Y-97907380D02*
X155157142Y-97955000D01*
X155157142Y-97955000D02*
X155014285Y-98002619D01*
X155014285Y-98002619D02*
X154919047Y-98002619D01*
X154919047Y-98002619D02*
X154776190Y-97955000D01*
X154776190Y-97955000D02*
X154680952Y-97859761D01*
X154680952Y-97859761D02*
X154633333Y-97764523D01*
X154633333Y-97764523D02*
X154585714Y-97574047D01*
X154585714Y-97574047D02*
X154585714Y-97431190D01*
X154585714Y-97431190D02*
X154633333Y-97240714D01*
X154633333Y-97240714D02*
X154680952Y-97145476D01*
X154680952Y-97145476D02*
X154776190Y-97050238D01*
X154776190Y-97050238D02*
X154919047Y-97002619D01*
X154919047Y-97002619D02*
X155014285Y-97002619D01*
X155014285Y-97002619D02*
X155157142Y-97050238D01*
X155157142Y-97050238D02*
X155204761Y-97097857D01*
X155490476Y-97002619D02*
X156061904Y-97002619D01*
X155776190Y-98002619D02*
X155776190Y-97002619D01*
X156919047Y-98002619D02*
X156347619Y-98002619D01*
X156633333Y-98002619D02*
X156633333Y-97002619D01*
X156633333Y-97002619D02*
X156538095Y-97145476D01*
X156538095Y-97145476D02*
X156442857Y-97240714D01*
X156442857Y-97240714D02*
X156347619Y-97288333D01*
X157538095Y-97002619D02*
X157633333Y-97002619D01*
X157633333Y-97002619D02*
X157728571Y-97050238D01*
X157728571Y-97050238D02*
X157776190Y-97097857D01*
X157776190Y-97097857D02*
X157823809Y-97193095D01*
X157823809Y-97193095D02*
X157871428Y-97383571D01*
X157871428Y-97383571D02*
X157871428Y-97621666D01*
X157871428Y-97621666D02*
X157823809Y-97812142D01*
X157823809Y-97812142D02*
X157776190Y-97907380D01*
X157776190Y-97907380D02*
X157728571Y-97955000D01*
X157728571Y-97955000D02*
X157633333Y-98002619D01*
X157633333Y-98002619D02*
X157538095Y-98002619D01*
X157538095Y-98002619D02*
X157442857Y-97955000D01*
X157442857Y-97955000D02*
X157395238Y-97907380D01*
X157395238Y-97907380D02*
X157347619Y-97812142D01*
X157347619Y-97812142D02*
X157300000Y-97621666D01*
X157300000Y-97621666D02*
X157300000Y-97383571D01*
X157300000Y-97383571D02*
X157347619Y-97193095D01*
X157347619Y-97193095D02*
X157395238Y-97097857D01*
X157395238Y-97097857D02*
X157442857Y-97050238D01*
X157442857Y-97050238D02*
X157538095Y-97002619D01*
X158204762Y-97002619D02*
X158823809Y-97002619D01*
X158823809Y-97002619D02*
X158490476Y-97383571D01*
X158490476Y-97383571D02*
X158633333Y-97383571D01*
X158633333Y-97383571D02*
X158728571Y-97431190D01*
X158728571Y-97431190D02*
X158776190Y-97478809D01*
X158776190Y-97478809D02*
X158823809Y-97574047D01*
X158823809Y-97574047D02*
X158823809Y-97812142D01*
X158823809Y-97812142D02*
X158776190Y-97907380D01*
X158776190Y-97907380D02*
X158728571Y-97955000D01*
X158728571Y-97955000D02*
X158633333Y-98002619D01*
X158633333Y-98002619D02*
X158347619Y-98002619D01*
X158347619Y-98002619D02*
X158252381Y-97955000D01*
X158252381Y-97955000D02*
X158204762Y-97907380D01*
X159823809Y-97907380D02*
X159776190Y-97955000D01*
X159776190Y-97955000D02*
X159633333Y-98002619D01*
X159633333Y-98002619D02*
X159538095Y-98002619D01*
X159538095Y-98002619D02*
X159395238Y-97955000D01*
X159395238Y-97955000D02*
X159300000Y-97859761D01*
X159300000Y-97859761D02*
X159252381Y-97764523D01*
X159252381Y-97764523D02*
X159204762Y-97574047D01*
X159204762Y-97574047D02*
X159204762Y-97431190D01*
X159204762Y-97431190D02*
X159252381Y-97240714D01*
X159252381Y-97240714D02*
X159300000Y-97145476D01*
X159300000Y-97145476D02*
X159395238Y-97050238D01*
X159395238Y-97050238D02*
X159538095Y-97002619D01*
X159538095Y-97002619D02*
X159633333Y-97002619D01*
X159633333Y-97002619D02*
X159776190Y-97050238D01*
X159776190Y-97050238D02*
X159823809Y-97097857D01*
D11*
%TO.C,J1*%
X124962619Y-102583333D02*
X125676904Y-102583333D01*
X125676904Y-102583333D02*
X125819761Y-102630952D01*
X125819761Y-102630952D02*
X125915000Y-102726190D01*
X125915000Y-102726190D02*
X125962619Y-102869047D01*
X125962619Y-102869047D02*
X125962619Y-102964285D01*
X125962619Y-101583333D02*
X125962619Y-102154761D01*
X125962619Y-101869047D02*
X124962619Y-101869047D01*
X124962619Y-101869047D02*
X125105476Y-101964285D01*
X125105476Y-101964285D02*
X125200714Y-102059523D01*
X125200714Y-102059523D02*
X125248333Y-102154761D01*
%TO.C,R3*%
X136023333Y-106462619D02*
X135690000Y-105986428D01*
X135451905Y-106462619D02*
X135451905Y-105462619D01*
X135451905Y-105462619D02*
X135832857Y-105462619D01*
X135832857Y-105462619D02*
X135928095Y-105510238D01*
X135928095Y-105510238D02*
X135975714Y-105557857D01*
X135975714Y-105557857D02*
X136023333Y-105653095D01*
X136023333Y-105653095D02*
X136023333Y-105795952D01*
X136023333Y-105795952D02*
X135975714Y-105891190D01*
X135975714Y-105891190D02*
X135928095Y-105938809D01*
X135928095Y-105938809D02*
X135832857Y-105986428D01*
X135832857Y-105986428D02*
X135451905Y-105986428D01*
X136356667Y-105462619D02*
X136975714Y-105462619D01*
X136975714Y-105462619D02*
X136642381Y-105843571D01*
X136642381Y-105843571D02*
X136785238Y-105843571D01*
X136785238Y-105843571D02*
X136880476Y-105891190D01*
X136880476Y-105891190D02*
X136928095Y-105938809D01*
X136928095Y-105938809D02*
X136975714Y-106034047D01*
X136975714Y-106034047D02*
X136975714Y-106272142D01*
X136975714Y-106272142D02*
X136928095Y-106367380D01*
X136928095Y-106367380D02*
X136880476Y-106415000D01*
X136880476Y-106415000D02*
X136785238Y-106462619D01*
X136785238Y-106462619D02*
X136499524Y-106462619D01*
X136499524Y-106462619D02*
X136404286Y-106415000D01*
X136404286Y-106415000D02*
X136356667Y-106367380D01*
%TO.C,C2*%
X127633333Y-118817380D02*
X127585714Y-118865000D01*
X127585714Y-118865000D02*
X127442857Y-118912619D01*
X127442857Y-118912619D02*
X127347619Y-118912619D01*
X127347619Y-118912619D02*
X127204762Y-118865000D01*
X127204762Y-118865000D02*
X127109524Y-118769761D01*
X127109524Y-118769761D02*
X127061905Y-118674523D01*
X127061905Y-118674523D02*
X127014286Y-118484047D01*
X127014286Y-118484047D02*
X127014286Y-118341190D01*
X127014286Y-118341190D02*
X127061905Y-118150714D01*
X127061905Y-118150714D02*
X127109524Y-118055476D01*
X127109524Y-118055476D02*
X127204762Y-117960238D01*
X127204762Y-117960238D02*
X127347619Y-117912619D01*
X127347619Y-117912619D02*
X127442857Y-117912619D01*
X127442857Y-117912619D02*
X127585714Y-117960238D01*
X127585714Y-117960238D02*
X127633333Y-118007857D01*
X128014286Y-118007857D02*
X128061905Y-117960238D01*
X128061905Y-117960238D02*
X128157143Y-117912619D01*
X128157143Y-117912619D02*
X128395238Y-117912619D01*
X128395238Y-117912619D02*
X128490476Y-117960238D01*
X128490476Y-117960238D02*
X128538095Y-118007857D01*
X128538095Y-118007857D02*
X128585714Y-118103095D01*
X128585714Y-118103095D02*
X128585714Y-118198333D01*
X128585714Y-118198333D02*
X128538095Y-118341190D01*
X128538095Y-118341190D02*
X127966667Y-118912619D01*
X127966667Y-118912619D02*
X128585714Y-118912619D01*
%TO.C,R1*%
X136033333Y-116462619D02*
X135700000Y-115986428D01*
X135461905Y-116462619D02*
X135461905Y-115462619D01*
X135461905Y-115462619D02*
X135842857Y-115462619D01*
X135842857Y-115462619D02*
X135938095Y-115510238D01*
X135938095Y-115510238D02*
X135985714Y-115557857D01*
X135985714Y-115557857D02*
X136033333Y-115653095D01*
X136033333Y-115653095D02*
X136033333Y-115795952D01*
X136033333Y-115795952D02*
X135985714Y-115891190D01*
X135985714Y-115891190D02*
X135938095Y-115938809D01*
X135938095Y-115938809D02*
X135842857Y-115986428D01*
X135842857Y-115986428D02*
X135461905Y-115986428D01*
X136985714Y-116462619D02*
X136414286Y-116462619D01*
X136700000Y-116462619D02*
X136700000Y-115462619D01*
X136700000Y-115462619D02*
X136604762Y-115605476D01*
X136604762Y-115605476D02*
X136509524Y-115700714D01*
X136509524Y-115700714D02*
X136414286Y-115748333D01*
%TO.C,R5*%
X176833333Y-106462619D02*
X176500000Y-105986428D01*
X176261905Y-106462619D02*
X176261905Y-105462619D01*
X176261905Y-105462619D02*
X176642857Y-105462619D01*
X176642857Y-105462619D02*
X176738095Y-105510238D01*
X176738095Y-105510238D02*
X176785714Y-105557857D01*
X176785714Y-105557857D02*
X176833333Y-105653095D01*
X176833333Y-105653095D02*
X176833333Y-105795952D01*
X176833333Y-105795952D02*
X176785714Y-105891190D01*
X176785714Y-105891190D02*
X176738095Y-105938809D01*
X176738095Y-105938809D02*
X176642857Y-105986428D01*
X176642857Y-105986428D02*
X176261905Y-105986428D01*
X177738095Y-105462619D02*
X177261905Y-105462619D01*
X177261905Y-105462619D02*
X177214286Y-105938809D01*
X177214286Y-105938809D02*
X177261905Y-105891190D01*
X177261905Y-105891190D02*
X177357143Y-105843571D01*
X177357143Y-105843571D02*
X177595238Y-105843571D01*
X177595238Y-105843571D02*
X177690476Y-105891190D01*
X177690476Y-105891190D02*
X177738095Y-105938809D01*
X177738095Y-105938809D02*
X177785714Y-106034047D01*
X177785714Y-106034047D02*
X177785714Y-106272142D01*
X177785714Y-106272142D02*
X177738095Y-106367380D01*
X177738095Y-106367380D02*
X177690476Y-106415000D01*
X177690476Y-106415000D02*
X177595238Y-106462619D01*
X177595238Y-106462619D02*
X177357143Y-106462619D01*
X177357143Y-106462619D02*
X177261905Y-106415000D01*
X177261905Y-106415000D02*
X177214286Y-106367380D01*
D12*
%TO.C,U1*%
X132442857Y-97002619D02*
X133109523Y-97002619D01*
X133109523Y-97002619D02*
X132442857Y-98002619D01*
X132442857Y-98002619D02*
X133109523Y-98002619D01*
X133490476Y-98002619D02*
X133490476Y-97002619D01*
X133490476Y-97002619D02*
X133823809Y-97716904D01*
X133823809Y-97716904D02*
X134157142Y-97002619D01*
X134157142Y-97002619D02*
X134157142Y-98002619D01*
X135204761Y-97907380D02*
X135157142Y-97955000D01*
X135157142Y-97955000D02*
X135014285Y-98002619D01*
X135014285Y-98002619D02*
X134919047Y-98002619D01*
X134919047Y-98002619D02*
X134776190Y-97955000D01*
X134776190Y-97955000D02*
X134680952Y-97859761D01*
X134680952Y-97859761D02*
X134633333Y-97764523D01*
X134633333Y-97764523D02*
X134585714Y-97574047D01*
X134585714Y-97574047D02*
X134585714Y-97431190D01*
X134585714Y-97431190D02*
X134633333Y-97240714D01*
X134633333Y-97240714D02*
X134680952Y-97145476D01*
X134680952Y-97145476D02*
X134776190Y-97050238D01*
X134776190Y-97050238D02*
X134919047Y-97002619D01*
X134919047Y-97002619D02*
X135014285Y-97002619D01*
X135014285Y-97002619D02*
X135157142Y-97050238D01*
X135157142Y-97050238D02*
X135204761Y-97097857D01*
X135490476Y-97002619D02*
X136061904Y-97002619D01*
X135776190Y-98002619D02*
X135776190Y-97002619D01*
X136919047Y-98002619D02*
X136347619Y-98002619D01*
X136633333Y-98002619D02*
X136633333Y-97002619D01*
X136633333Y-97002619D02*
X136538095Y-97145476D01*
X136538095Y-97145476D02*
X136442857Y-97240714D01*
X136442857Y-97240714D02*
X136347619Y-97288333D01*
X137538095Y-97002619D02*
X137633333Y-97002619D01*
X137633333Y-97002619D02*
X137728571Y-97050238D01*
X137728571Y-97050238D02*
X137776190Y-97097857D01*
X137776190Y-97097857D02*
X137823809Y-97193095D01*
X137823809Y-97193095D02*
X137871428Y-97383571D01*
X137871428Y-97383571D02*
X137871428Y-97621666D01*
X137871428Y-97621666D02*
X137823809Y-97812142D01*
X137823809Y-97812142D02*
X137776190Y-97907380D01*
X137776190Y-97907380D02*
X137728571Y-97955000D01*
X137728571Y-97955000D02*
X137633333Y-98002619D01*
X137633333Y-98002619D02*
X137538095Y-98002619D01*
X137538095Y-98002619D02*
X137442857Y-97955000D01*
X137442857Y-97955000D02*
X137395238Y-97907380D01*
X137395238Y-97907380D02*
X137347619Y-97812142D01*
X137347619Y-97812142D02*
X137300000Y-97621666D01*
X137300000Y-97621666D02*
X137300000Y-97383571D01*
X137300000Y-97383571D02*
X137347619Y-97193095D01*
X137347619Y-97193095D02*
X137395238Y-97097857D01*
X137395238Y-97097857D02*
X137442857Y-97050238D01*
X137442857Y-97050238D02*
X137538095Y-97002619D01*
X138204762Y-97002619D02*
X138823809Y-97002619D01*
X138823809Y-97002619D02*
X138490476Y-97383571D01*
X138490476Y-97383571D02*
X138633333Y-97383571D01*
X138633333Y-97383571D02*
X138728571Y-97431190D01*
X138728571Y-97431190D02*
X138776190Y-97478809D01*
X138776190Y-97478809D02*
X138823809Y-97574047D01*
X138823809Y-97574047D02*
X138823809Y-97812142D01*
X138823809Y-97812142D02*
X138776190Y-97907380D01*
X138776190Y-97907380D02*
X138728571Y-97955000D01*
X138728571Y-97955000D02*
X138633333Y-98002619D01*
X138633333Y-98002619D02*
X138347619Y-98002619D01*
X138347619Y-98002619D02*
X138252381Y-97955000D01*
X138252381Y-97955000D02*
X138204762Y-97907380D01*
X139823809Y-97907380D02*
X139776190Y-97955000D01*
X139776190Y-97955000D02*
X139633333Y-98002619D01*
X139633333Y-98002619D02*
X139538095Y-98002619D01*
X139538095Y-98002619D02*
X139395238Y-97955000D01*
X139395238Y-97955000D02*
X139300000Y-97859761D01*
X139300000Y-97859761D02*
X139252381Y-97764523D01*
X139252381Y-97764523D02*
X139204762Y-97574047D01*
X139204762Y-97574047D02*
X139204762Y-97431190D01*
X139204762Y-97431190D02*
X139252381Y-97240714D01*
X139252381Y-97240714D02*
X139300000Y-97145476D01*
X139300000Y-97145476D02*
X139395238Y-97050238D01*
X139395238Y-97050238D02*
X139538095Y-97002619D01*
X139538095Y-97002619D02*
X139633333Y-97002619D01*
X139633333Y-97002619D02*
X139776190Y-97050238D01*
X139776190Y-97050238D02*
X139823809Y-97097857D01*
D11*
%TO.C,R2*%
X136033333Y-112462619D02*
X135700000Y-111986428D01*
X135461905Y-112462619D02*
X135461905Y-111462619D01*
X135461905Y-111462619D02*
X135842857Y-111462619D01*
X135842857Y-111462619D02*
X135938095Y-111510238D01*
X135938095Y-111510238D02*
X135985714Y-111557857D01*
X135985714Y-111557857D02*
X136033333Y-111653095D01*
X136033333Y-111653095D02*
X136033333Y-111795952D01*
X136033333Y-111795952D02*
X135985714Y-111891190D01*
X135985714Y-111891190D02*
X135938095Y-111938809D01*
X135938095Y-111938809D02*
X135842857Y-111986428D01*
X135842857Y-111986428D02*
X135461905Y-111986428D01*
X136414286Y-111557857D02*
X136461905Y-111510238D01*
X136461905Y-111510238D02*
X136557143Y-111462619D01*
X136557143Y-111462619D02*
X136795238Y-111462619D01*
X136795238Y-111462619D02*
X136890476Y-111510238D01*
X136890476Y-111510238D02*
X136938095Y-111557857D01*
X136938095Y-111557857D02*
X136985714Y-111653095D01*
X136985714Y-111653095D02*
X136985714Y-111748333D01*
X136985714Y-111748333D02*
X136938095Y-111891190D01*
X136938095Y-111891190D02*
X136366667Y-112462619D01*
X136366667Y-112462619D02*
X136985714Y-112462619D01*
%TO.C,C1*%
X130717380Y-109766666D02*
X130765000Y-109814285D01*
X130765000Y-109814285D02*
X130812619Y-109957142D01*
X130812619Y-109957142D02*
X130812619Y-110052380D01*
X130812619Y-110052380D02*
X130765000Y-110195237D01*
X130765000Y-110195237D02*
X130669761Y-110290475D01*
X130669761Y-110290475D02*
X130574523Y-110338094D01*
X130574523Y-110338094D02*
X130384047Y-110385713D01*
X130384047Y-110385713D02*
X130241190Y-110385713D01*
X130241190Y-110385713D02*
X130050714Y-110338094D01*
X130050714Y-110338094D02*
X129955476Y-110290475D01*
X129955476Y-110290475D02*
X129860238Y-110195237D01*
X129860238Y-110195237D02*
X129812619Y-110052380D01*
X129812619Y-110052380D02*
X129812619Y-109957142D01*
X129812619Y-109957142D02*
X129860238Y-109814285D01*
X129860238Y-109814285D02*
X129907857Y-109766666D01*
X130812619Y-108814285D02*
X130812619Y-109385713D01*
X130812619Y-109099999D02*
X129812619Y-109099999D01*
X129812619Y-109099999D02*
X129955476Y-109195237D01*
X129955476Y-109195237D02*
X130050714Y-109290475D01*
X130050714Y-109290475D02*
X130098333Y-109385713D01*
D13*
%TO.C,R4*%
X153130000Y-104630000D02*
X159670000Y-104630000D01*
X153130000Y-104960000D02*
X153130000Y-104630000D01*
X153130000Y-107040000D02*
X153130000Y-107370000D01*
X153130000Y-107370000D02*
X159670000Y-107370000D01*
X159670000Y-104630000D02*
X159670000Y-104960000D01*
X159670000Y-107370000D02*
X159670000Y-107040000D01*
D12*
%TO.C,U3*%
X167000000Y-93000000D02*
X185000000Y-93000000D01*
X185000000Y-93000000D02*
X185000000Y-103250000D01*
X185000000Y-103250000D02*
X167000000Y-103250000D01*
X167000000Y-103250000D02*
X167000000Y-93000000D01*
%TO.C,U2*%
X147000000Y-93000000D02*
X165000000Y-93000000D01*
X165000000Y-93000000D02*
X165000000Y-103250000D01*
X165000000Y-103250000D02*
X147000000Y-103250000D01*
X147000000Y-103250000D02*
X147000000Y-93000000D01*
D13*
%TO.C,J1*%
X124410000Y-93440000D02*
X124410000Y-94860000D01*
X112690000Y-93440000D02*
X124410000Y-93440000D01*
X124410000Y-94860000D02*
X119910000Y-94860000D01*
X119910000Y-94860000D02*
X119910000Y-102250000D01*
X124100000Y-95700000D02*
X124100000Y-96300000D01*
X118800000Y-95750000D02*
X113300000Y-95750000D01*
X113300000Y-95750000D02*
X113300000Y-96250000D01*
X123500000Y-96000000D02*
X124100000Y-95700000D01*
X118800000Y-96250000D02*
X118800000Y-95750000D01*
X113300000Y-96250000D02*
X118800000Y-96250000D01*
X124100000Y-96300000D02*
X123500000Y-96000000D01*
X118800000Y-98250000D02*
X113300000Y-98250000D01*
X113300000Y-98250000D02*
X113300000Y-98750000D01*
X118800000Y-98750000D02*
X118800000Y-98250000D01*
X113300000Y-98750000D02*
X118800000Y-98750000D01*
X118800000Y-100750000D02*
X113300000Y-100750000D01*
X113300000Y-100750000D02*
X113300000Y-101250000D01*
X118800000Y-101250000D02*
X118800000Y-100750000D01*
X113300000Y-101250000D02*
X118800000Y-101250000D01*
X112690000Y-102250000D02*
X112690000Y-93440000D01*
X112690000Y-102250000D02*
X112690000Y-111060000D01*
X118800000Y-103250000D02*
X113300000Y-103250000D01*
X113300000Y-103250000D02*
X113300000Y-103750000D01*
X118800000Y-103750000D02*
X118800000Y-103250000D01*
X113300000Y-103750000D02*
X118800000Y-103750000D01*
X118800000Y-105750000D02*
X113300000Y-105750000D01*
X113300000Y-105750000D02*
X113300000Y-106250000D01*
X118800000Y-106250000D02*
X118800000Y-105750000D01*
X113300000Y-106250000D02*
X118800000Y-106250000D01*
X118800000Y-108250000D02*
X113300000Y-108250000D01*
X113300000Y-108250000D02*
X113300000Y-108750000D01*
X118800000Y-108750000D02*
X118800000Y-108250000D01*
X113300000Y-108750000D02*
X118800000Y-108750000D01*
X124410000Y-109640000D02*
X119910000Y-109640000D01*
X119910000Y-109640000D02*
X119910000Y-102250000D01*
X124410000Y-111060000D02*
X124410000Y-109640000D01*
X112690000Y-111060000D02*
X124410000Y-111060000D01*
%TO.C,R3*%
X132920000Y-104630000D02*
X139460000Y-104630000D01*
X132920000Y-104960000D02*
X132920000Y-104630000D01*
X132920000Y-107040000D02*
X132920000Y-107370000D01*
X132920000Y-107370000D02*
X139460000Y-107370000D01*
X139460000Y-104630000D02*
X139460000Y-104960000D01*
X139460000Y-107370000D02*
X139460000Y-107040000D01*
%TO.C,C2*%
X130069801Y-116395000D02*
X129669801Y-116395000D01*
X129869801Y-116595000D02*
X129869801Y-116195000D01*
X127800000Y-117280000D02*
X127800000Y-113120000D01*
X127760000Y-117280000D02*
X127760000Y-113120000D01*
X127720000Y-117279000D02*
X127720000Y-113121000D01*
X127680000Y-117277000D02*
X127680000Y-113123000D01*
X127640000Y-117274000D02*
X127640000Y-113126000D01*
X127600000Y-117271000D02*
X127600000Y-116040000D01*
X127600000Y-114360000D02*
X127600000Y-113129000D01*
X127560000Y-117267000D02*
X127560000Y-116040000D01*
X127560000Y-114360000D02*
X127560000Y-113133000D01*
X127520000Y-117262000D02*
X127520000Y-116040000D01*
X127520000Y-114360000D02*
X127520000Y-113138000D01*
X127480000Y-117256000D02*
X127480000Y-116040000D01*
X127480000Y-114360000D02*
X127480000Y-113144000D01*
X127440000Y-117250000D02*
X127440000Y-116040000D01*
X127440000Y-114360000D02*
X127440000Y-113150000D01*
X127400000Y-117242000D02*
X127400000Y-116040000D01*
X127400000Y-114360000D02*
X127400000Y-113158000D01*
X127360000Y-117234000D02*
X127360000Y-116040000D01*
X127360000Y-114360000D02*
X127360000Y-113166000D01*
X127320000Y-117225000D02*
X127320000Y-116040000D01*
X127320000Y-114360000D02*
X127320000Y-113175000D01*
X127280000Y-117216000D02*
X127280000Y-116040000D01*
X127280000Y-114360000D02*
X127280000Y-113184000D01*
X127240000Y-117205000D02*
X127240000Y-116040000D01*
X127240000Y-114360000D02*
X127240000Y-113195000D01*
X127200000Y-117194000D02*
X127200000Y-116040000D01*
X127200000Y-114360000D02*
X127200000Y-113206000D01*
X127160000Y-117182000D02*
X127160000Y-116040000D01*
X127160000Y-114360000D02*
X127160000Y-113218000D01*
X127120000Y-117168000D02*
X127120000Y-116040000D01*
X127120000Y-114360000D02*
X127120000Y-113232000D01*
X127079000Y-117154000D02*
X127079000Y-116040000D01*
X127079000Y-114360000D02*
X127079000Y-113246000D01*
X127039000Y-117140000D02*
X127039000Y-116040000D01*
X127039000Y-114360000D02*
X127039000Y-113260000D01*
X126999000Y-117124000D02*
X126999000Y-116040000D01*
X126999000Y-114360000D02*
X126999000Y-113276000D01*
X126959000Y-117107000D02*
X126959000Y-116040000D01*
X126959000Y-114360000D02*
X126959000Y-113293000D01*
X126919000Y-117089000D02*
X126919000Y-116040000D01*
X126919000Y-114360000D02*
X126919000Y-113311000D01*
X126879000Y-117070000D02*
X126879000Y-116040000D01*
X126879000Y-114360000D02*
X126879000Y-113330000D01*
X126839000Y-117051000D02*
X126839000Y-116040000D01*
X126839000Y-114360000D02*
X126839000Y-113349000D01*
X126799000Y-117030000D02*
X126799000Y-116040000D01*
X126799000Y-114360000D02*
X126799000Y-113370000D01*
X126759000Y-117008000D02*
X126759000Y-116040000D01*
X126759000Y-114360000D02*
X126759000Y-113392000D01*
X126719000Y-116985000D02*
X126719000Y-116040000D01*
X126719000Y-114360000D02*
X126719000Y-113415000D01*
X126679000Y-116960000D02*
X126679000Y-116040000D01*
X126679000Y-114360000D02*
X126679000Y-113440000D01*
X126639000Y-116935000D02*
X126639000Y-116040000D01*
X126639000Y-114360000D02*
X126639000Y-113465000D01*
X126599000Y-116908000D02*
X126599000Y-116040000D01*
X126599000Y-114360000D02*
X126599000Y-113492000D01*
X126559000Y-116880000D02*
X126559000Y-116040000D01*
X126559000Y-114360000D02*
X126559000Y-113520000D01*
X126519000Y-116850000D02*
X126519000Y-116040000D01*
X126519000Y-114360000D02*
X126519000Y-113550000D01*
X126479000Y-116819000D02*
X126479000Y-116040000D01*
X126479000Y-114360000D02*
X126479000Y-113581000D01*
X126439000Y-116787000D02*
X126439000Y-116040000D01*
X126439000Y-114360000D02*
X126439000Y-113613000D01*
X126399000Y-116752000D02*
X126399000Y-116040000D01*
X126399000Y-114360000D02*
X126399000Y-113648000D01*
X126359000Y-116716000D02*
X126359000Y-116040000D01*
X126359000Y-114360000D02*
X126359000Y-113684000D01*
X126319000Y-116678000D02*
X126319000Y-116040000D01*
X126319000Y-114360000D02*
X126319000Y-113722000D01*
X126279000Y-116638000D02*
X126279000Y-116040000D01*
X126279000Y-114360000D02*
X126279000Y-113762000D01*
X126239000Y-116596000D02*
X126239000Y-116040000D01*
X126239000Y-114360000D02*
X126239000Y-113804000D01*
X126199000Y-116551000D02*
X126199000Y-116040000D01*
X126199000Y-114360000D02*
X126199000Y-113849000D01*
X126159000Y-116504000D02*
X126159000Y-116040000D01*
X126159000Y-114360000D02*
X126159000Y-113896000D01*
X126119000Y-116454000D02*
X126119000Y-116040000D01*
X126119000Y-114360000D02*
X126119000Y-113946000D01*
X126079000Y-116400000D02*
X126079000Y-116040000D01*
X126079000Y-114360000D02*
X126079000Y-114000000D01*
X126039000Y-116342000D02*
X126039000Y-116040000D01*
X126039000Y-114360000D02*
X126039000Y-114058000D01*
X125999000Y-116280000D02*
X125999000Y-116040000D01*
X125999000Y-114360000D02*
X125999000Y-114120000D01*
X125959000Y-116213000D02*
X125959000Y-114187000D01*
X125919000Y-116140000D02*
X125919000Y-114260000D01*
X125879000Y-116059000D02*
X125879000Y-114341000D01*
X125839000Y-115968000D02*
X125839000Y-114432000D01*
X125799000Y-115864000D02*
X125799000Y-114536000D01*
X125759000Y-115737000D02*
X125759000Y-114663000D01*
X125719000Y-115570000D02*
X125719000Y-114830000D01*
X129920000Y-115200000D02*
G75*
G03*
X129920000Y-115200000I-2120000J0D01*
G01*
%TO.C,R1*%
X139470000Y-117570000D02*
X132930000Y-117570000D01*
X139470000Y-117240000D02*
X139470000Y-117570000D01*
X139470000Y-115160000D02*
X139470000Y-114830000D01*
X139470000Y-114830000D02*
X132930000Y-114830000D01*
X132930000Y-117570000D02*
X132930000Y-117240000D01*
X132930000Y-114830000D02*
X132930000Y-115160000D01*
%TO.C,R5*%
X173730000Y-104630000D02*
X180270000Y-104630000D01*
X173730000Y-104960000D02*
X173730000Y-104630000D01*
X173730000Y-107040000D02*
X173730000Y-107370000D01*
X173730000Y-107370000D02*
X180270000Y-107370000D01*
X180270000Y-104630000D02*
X180270000Y-104960000D01*
X180270000Y-107370000D02*
X180270000Y-107040000D01*
D12*
%TO.C,U1*%
X127000000Y-93000000D02*
X145000000Y-93000000D01*
X145000000Y-93000000D02*
X145000000Y-103250000D01*
X145000000Y-103250000D02*
X127000000Y-103250000D01*
X127000000Y-103250000D02*
X127000000Y-93000000D01*
D13*
%TO.C,R2*%
X139470000Y-113470000D02*
X132930000Y-113470000D01*
X139470000Y-113140000D02*
X139470000Y-113470000D01*
X139470000Y-111060000D02*
X139470000Y-110730000D01*
X139470000Y-110730000D02*
X132930000Y-110730000D01*
X132930000Y-113470000D02*
X132930000Y-113140000D01*
X132930000Y-110730000D02*
X132930000Y-111060000D01*
%TO.C,C1*%
X129220000Y-107580000D02*
X128595000Y-107580000D01*
X129220000Y-107580000D02*
X129220000Y-111620000D01*
X127005000Y-107580000D02*
X126380000Y-107580000D01*
X126380000Y-107580000D02*
X126380000Y-111620000D01*
X129220000Y-111620000D02*
X128595000Y-111620000D01*
X127005000Y-111620000D02*
X126380000Y-111620000D01*
%TD*%
M02*
