%TF.GenerationSoftware,KiCad,Pcbnew,7.0.2*%
%TF.CreationDate,2023-10-27T13:44:30+02:00*%
%TF.ProjectId,zmct_3phase,7a6d6374-5f33-4706-9861-73652e6b6963,rev?*%
%TF.SameCoordinates,Original*%
%TF.FileFunction,Copper,L1,Top*%
%TF.FilePolarity,Positive*%
%FSLAX46Y46*%
G04 Gerber Fmt 4.6, Leading zero omitted, Abs format (unit mm)*
G04 Created by KiCad (PCBNEW 7.0.2) date 2023-10-27 13:44:30*
%MOMM*%
%LPD*%
G01*
G04 APERTURE LIST*
G04 Aperture macros list*
%AMRoundRect*
0 Rectangle with rounded corners*
0 $1 Rounding radius*
0 $2 $3 $4 $5 $6 $7 $8 $9 X,Y pos of 4 corners*
0 Add a 4 corners polygon primitive as box body*
4,1,4,$2,$3,$4,$5,$6,$7,$8,$9,$2,$3,0*
0 Add four circle primitives for the rounded corners*
1,1,$1+$1,$2,$3*
1,1,$1+$1,$4,$5*
1,1,$1+$1,$6,$7*
1,1,$1+$1,$8,$9*
0 Add four rect primitives between the rounded corners*
20,1,$1+$1,$2,$3,$4,$5,0*
20,1,$1+$1,$4,$5,$6,$7,0*
20,1,$1+$1,$6,$7,$8,$9,0*
20,1,$1+$1,$8,$9,$2,$3,0*%
G04 Aperture macros list end*
%TA.AperFunction,ComponentPad*%
%ADD10C,1.600000*%
%TD*%
%TA.AperFunction,ComponentPad*%
%ADD11O,1.600000X1.600000*%
%TD*%
%TA.AperFunction,ComponentPad*%
%ADD12C,2.000000*%
%TD*%
%TA.AperFunction,ComponentPad*%
%ADD13C,5.600000*%
%TD*%
%TA.AperFunction,ComponentPad*%
%ADD14RoundRect,0.250000X-0.725000X0.600000X-0.725000X-0.600000X0.725000X-0.600000X0.725000X0.600000X0*%
%TD*%
%TA.AperFunction,ComponentPad*%
%ADD15O,1.950000X1.700000*%
%TD*%
%TA.AperFunction,ComponentPad*%
%ADD16R,1.200000X1.200000*%
%TD*%
%TA.AperFunction,ComponentPad*%
%ADD17C,1.200000*%
%TD*%
%TA.AperFunction,Conductor*%
%ADD18C,0.600000*%
%TD*%
G04 APERTURE END LIST*
D10*
%TO.P,R4,1*%
%TO.N,Net-(J1-Pin_4)*%
X152590000Y-106000000D03*
D11*
%TO.P,R4,2*%
%TO.N,Net-(J1-Pin_2)*%
X160210000Y-106000000D03*
%TD*%
D12*
%TO.P,U3,1*%
%TO.N,Net-(J1-Pin_4)*%
X170075000Y-98125000D03*
%TO.P,U3,2*%
%TO.N,Net-(J1-Pin_1)*%
X181925000Y-98125000D03*
%TD*%
%TO.P,U2,1*%
%TO.N,Net-(J1-Pin_4)*%
X150075000Y-98125000D03*
%TO.P,U2,2*%
%TO.N,Net-(J1-Pin_2)*%
X161925000Y-98125000D03*
%TD*%
D13*
%TO.P,H1,1*%
%TO.N,N/C*%
X120000000Y-88000000D03*
%TD*%
D14*
%TO.P,J1,1,Pin_1*%
%TO.N,Net-(J1-Pin_1)*%
X122000000Y-96000000D03*
D15*
%TO.P,J1,2,Pin_2*%
%TO.N,Net-(J1-Pin_2)*%
X122000000Y-98500000D03*
%TO.P,J1,3,Pin_3*%
%TO.N,Net-(J1-Pin_3)*%
X122000000Y-101000000D03*
%TO.P,J1,4,Pin_4*%
%TO.N,Net-(J1-Pin_4)*%
X122000000Y-103500000D03*
%TO.P,J1,5,Pin_5*%
%TO.N,Net-(J1-Pin_5)*%
X122000000Y-106000000D03*
%TO.P,J1,6,Pin_6*%
%TO.N,Net-(J1-Pin_6)*%
X122000000Y-108500000D03*
%TD*%
D10*
%TO.P,R3,1*%
%TO.N,Net-(J1-Pin_4)*%
X132380000Y-106000000D03*
D11*
%TO.P,R3,2*%
%TO.N,Net-(J1-Pin_3)*%
X140000000Y-106000000D03*
%TD*%
D16*
%TO.P,C2,1*%
%TO.N,Net-(J1-Pin_4)*%
X128800000Y-115200000D03*
D17*
%TO.P,C2,2*%
%TO.N,Net-(J1-Pin_6)*%
X126800000Y-115200000D03*
%TD*%
D10*
%TO.P,R1,1*%
%TO.N,Net-(J1-Pin_4)*%
X140010000Y-116200000D03*
D11*
%TO.P,R1,2*%
%TO.N,Net-(J1-Pin_6)*%
X132390000Y-116200000D03*
%TD*%
D10*
%TO.P,R5,1*%
%TO.N,Net-(J1-Pin_4)*%
X173190000Y-106000000D03*
D11*
%TO.P,R5,2*%
%TO.N,Net-(J1-Pin_1)*%
X180810000Y-106000000D03*
%TD*%
D13*
%TO.P,H3,1*%
%TO.N,N/C*%
X188000000Y-88000000D03*
%TD*%
%TO.P,H4,1*%
%TO.N,N/C*%
X188000000Y-117000000D03*
%TD*%
%TO.P,H2,1*%
%TO.N,N/C*%
X120000000Y-117000000D03*
%TD*%
D12*
%TO.P,U1,1*%
%TO.N,Net-(J1-Pin_4)*%
X130075000Y-98125000D03*
%TO.P,U1,2*%
%TO.N,Net-(J1-Pin_3)*%
X141925000Y-98125000D03*
%TD*%
D10*
%TO.P,R2,1*%
%TO.N,Net-(J1-Pin_4)*%
X140010000Y-112100000D03*
D11*
%TO.P,R2,2*%
%TO.N,Net-(J1-Pin_5)*%
X132390000Y-112100000D03*
%TD*%
D10*
%TO.P,C1,1*%
%TO.N,Net-(J1-Pin_4)*%
X127800000Y-108350000D03*
%TO.P,C1,2*%
%TO.N,Net-(J1-Pin_6)*%
X127800000Y-110850000D03*
%TD*%
D18*
%TO.N,Net-(J1-Pin_1)*%
X179800000Y-96000000D02*
X181925000Y-98125000D01*
X122000000Y-96000000D02*
X179800000Y-96000000D01*
%TO.N,Net-(J1-Pin_3)*%
X140000000Y-106000000D02*
X138600000Y-106000000D01*
X136550000Y-103950000D02*
X138600000Y-106000000D01*
X136550000Y-103500000D02*
X136550000Y-103950000D01*
X134050000Y-101000000D02*
X136550000Y-103500000D01*
X122000000Y-101000000D02*
X134050000Y-101000000D01*
X136550000Y-103500000D02*
X141925000Y-98125000D01*
%TO.N,Net-(J1-Pin_4)*%
X129155600Y-109705600D02*
X127800000Y-108350000D01*
X129155600Y-113644400D02*
X129155600Y-109705600D01*
X128800000Y-114000000D02*
X129155600Y-113644400D01*
X128800000Y-115200000D02*
X128800000Y-114000000D01*
X167695000Y-100505000D02*
X173190000Y-106000000D01*
X158085000Y-100505000D02*
X167695000Y-100505000D01*
X152590000Y-106000000D02*
X158085000Y-100505000D01*
X167695000Y-100505000D02*
X170075000Y-98125000D01*
%TO.N,Net-(J1-Pin_5)*%
X127690000Y-106000000D02*
X132390000Y-110700000D01*
X122000000Y-106000000D02*
X127690000Y-106000000D01*
X132390000Y-112100000D02*
X132390000Y-110700000D01*
%TD*%
M02*
