M48
; DRILL file {KiCad 7.0.2} date Fri Oct 27 13:44:33 2023
; FORMAT={-:-/ absolute / inch / decimal}
; #@! TF.CreationDate,2023-10-27T13:44:33+02:00
; #@! TF.GenerationSoftware,Kicad,Pcbnew,7.0.2
; #@! TF.FileFunction,Plated,1,2,PTH
FMAT,2
INCH
; #@! TA.AperFunction,Plated,PTH,ComponentDrill
T1C0.0236
; #@! TA.AperFunction,Plated,PTH,ComponentDrill
T2C0.0315
; #@! TA.AperFunction,Plated,PTH,ComponentDrill
T3C0.0374
; #@! TA.AperFunction,Plated,PTH,ComponentDrill
T4C0.0433
; #@! TA.AperFunction,Plated,PTH,ComponentDrill
T5C0.1260
%
G90
G05
T1
X4.9921Y-4.5354
X5.0709Y-4.5354
T2
X5.0315Y-4.2657
X5.0315Y-4.3642
X5.2118Y-4.1732
X5.2122Y-4.4134
X5.2122Y-4.5748
X5.5118Y-4.1732
X5.5122Y-4.4134
X5.5122Y-4.5748
X6.0075Y-4.1732
X6.3075Y-4.1732
X6.8185Y-4.1732
X7.1185Y-4.1732
T3
X4.8031Y-3.7795
X4.8031Y-3.878
X4.8031Y-3.9764
X4.8031Y-4.0748
X4.8031Y-4.1732
X4.8031Y-4.2717
T4
X5.1211Y-3.8632
X5.5876Y-3.8632
X5.9085Y-3.8632
X6.375Y-3.8632
X6.6959Y-3.8632
X7.1624Y-3.8632
T5
X4.7244Y-3.4646
X4.7244Y-4.6063
X7.4016Y-3.4646
X7.4016Y-4.6063
T0
M30
