%TF.GenerationSoftware,KiCad,Pcbnew,7.0.2*%
%TF.CreationDate,2023-10-27T13:44:30+02:00*%
%TF.ProjectId,zmct_3phase,7a6d6374-5f33-4706-9861-73652e6b6963,rev?*%
%TF.SameCoordinates,Original*%
%TF.FileFunction,Legend,Bot*%
%TF.FilePolarity,Positive*%
%FSLAX46Y46*%
G04 Gerber Fmt 4.6, Leading zero omitted, Abs format (unit mm)*
G04 Created by KiCad (PCBNEW 7.0.2) date 2023-10-27 13:44:30*
%MOMM*%
%LPD*%
G01*
G04 APERTURE LIST*
%ADD10C,0.150000*%
G04 APERTURE END LIST*
D10*
X120061904Y-96502619D02*
X120061904Y-95502619D01*
X120061904Y-95502619D02*
X119680952Y-95502619D01*
X119680952Y-95502619D02*
X119585714Y-95550238D01*
X119585714Y-95550238D02*
X119538095Y-95597857D01*
X119538095Y-95597857D02*
X119490476Y-95693095D01*
X119490476Y-95693095D02*
X119490476Y-95835952D01*
X119490476Y-95835952D02*
X119538095Y-95931190D01*
X119538095Y-95931190D02*
X119585714Y-95978809D01*
X119585714Y-95978809D02*
X119680952Y-96026428D01*
X119680952Y-96026428D02*
X120061904Y-96026428D01*
X119157142Y-95502619D02*
X118538095Y-95502619D01*
X118538095Y-95502619D02*
X118871428Y-95883571D01*
X118871428Y-95883571D02*
X118728571Y-95883571D01*
X118728571Y-95883571D02*
X118633333Y-95931190D01*
X118633333Y-95931190D02*
X118585714Y-95978809D01*
X118585714Y-95978809D02*
X118538095Y-96074047D01*
X118538095Y-96074047D02*
X118538095Y-96312142D01*
X118538095Y-96312142D02*
X118585714Y-96407380D01*
X118585714Y-96407380D02*
X118633333Y-96455000D01*
X118633333Y-96455000D02*
X118728571Y-96502619D01*
X118728571Y-96502619D02*
X119014285Y-96502619D01*
X119014285Y-96502619D02*
X119109523Y-96455000D01*
X119109523Y-96455000D02*
X119157142Y-96407380D01*
X120061904Y-99127619D02*
X120061904Y-98127619D01*
X120061904Y-98127619D02*
X119680952Y-98127619D01*
X119680952Y-98127619D02*
X119585714Y-98175238D01*
X119585714Y-98175238D02*
X119538095Y-98222857D01*
X119538095Y-98222857D02*
X119490476Y-98318095D01*
X119490476Y-98318095D02*
X119490476Y-98460952D01*
X119490476Y-98460952D02*
X119538095Y-98556190D01*
X119538095Y-98556190D02*
X119585714Y-98603809D01*
X119585714Y-98603809D02*
X119680952Y-98651428D01*
X119680952Y-98651428D02*
X120061904Y-98651428D01*
X119109523Y-98222857D02*
X119061904Y-98175238D01*
X119061904Y-98175238D02*
X118966666Y-98127619D01*
X118966666Y-98127619D02*
X118728571Y-98127619D01*
X118728571Y-98127619D02*
X118633333Y-98175238D01*
X118633333Y-98175238D02*
X118585714Y-98222857D01*
X118585714Y-98222857D02*
X118538095Y-98318095D01*
X118538095Y-98318095D02*
X118538095Y-98413333D01*
X118538095Y-98413333D02*
X118585714Y-98556190D01*
X118585714Y-98556190D02*
X119157142Y-99127619D01*
X119157142Y-99127619D02*
X118538095Y-99127619D01*
X120061904Y-101627619D02*
X120061904Y-100627619D01*
X120061904Y-100627619D02*
X119680952Y-100627619D01*
X119680952Y-100627619D02*
X119585714Y-100675238D01*
X119585714Y-100675238D02*
X119538095Y-100722857D01*
X119538095Y-100722857D02*
X119490476Y-100818095D01*
X119490476Y-100818095D02*
X119490476Y-100960952D01*
X119490476Y-100960952D02*
X119538095Y-101056190D01*
X119538095Y-101056190D02*
X119585714Y-101103809D01*
X119585714Y-101103809D02*
X119680952Y-101151428D01*
X119680952Y-101151428D02*
X120061904Y-101151428D01*
X118538095Y-101627619D02*
X119109523Y-101627619D01*
X118823809Y-101627619D02*
X118823809Y-100627619D01*
X118823809Y-100627619D02*
X118919047Y-100770476D01*
X118919047Y-100770476D02*
X119014285Y-100865714D01*
X119014285Y-100865714D02*
X119109523Y-100913333D01*
X119871428Y-102877619D02*
X119680952Y-102877619D01*
X119680952Y-102877619D02*
X119585714Y-102925238D01*
X119585714Y-102925238D02*
X119490476Y-103020476D01*
X119490476Y-103020476D02*
X119442857Y-103210952D01*
X119442857Y-103210952D02*
X119442857Y-103544285D01*
X119442857Y-103544285D02*
X119490476Y-103734761D01*
X119490476Y-103734761D02*
X119585714Y-103830000D01*
X119585714Y-103830000D02*
X119680952Y-103877619D01*
X119680952Y-103877619D02*
X119871428Y-103877619D01*
X119871428Y-103877619D02*
X119966666Y-103830000D01*
X119966666Y-103830000D02*
X120061904Y-103734761D01*
X120061904Y-103734761D02*
X120109523Y-103544285D01*
X120109523Y-103544285D02*
X120109523Y-103210952D01*
X120109523Y-103210952D02*
X120061904Y-103020476D01*
X120061904Y-103020476D02*
X119966666Y-102925238D01*
X119966666Y-102925238D02*
X119871428Y-102877619D01*
X119157142Y-103210952D02*
X118776190Y-103210952D01*
X119014285Y-103877619D02*
X119014285Y-103020476D01*
X119014285Y-103020476D02*
X118966666Y-102925238D01*
X118966666Y-102925238D02*
X118871428Y-102877619D01*
X118871428Y-102877619D02*
X118776190Y-102877619D01*
X118490475Y-103830000D02*
X118395237Y-103877619D01*
X118395237Y-103877619D02*
X118204761Y-103877619D01*
X118204761Y-103877619D02*
X118109523Y-103830000D01*
X118109523Y-103830000D02*
X118061904Y-103734761D01*
X118061904Y-103734761D02*
X118061904Y-103687142D01*
X118061904Y-103687142D02*
X118109523Y-103591904D01*
X118109523Y-103591904D02*
X118204761Y-103544285D01*
X118204761Y-103544285D02*
X118347618Y-103544285D01*
X118347618Y-103544285D02*
X118442856Y-103496666D01*
X118442856Y-103496666D02*
X118490475Y-103401428D01*
X118490475Y-103401428D02*
X118490475Y-103353809D01*
X118490475Y-103353809D02*
X118442856Y-103258571D01*
X118442856Y-103258571D02*
X118347618Y-103210952D01*
X118347618Y-103210952D02*
X118204761Y-103210952D01*
X118204761Y-103210952D02*
X118109523Y-103258571D01*
X119738095Y-107925238D02*
X119833333Y-107877619D01*
X119833333Y-107877619D02*
X119976190Y-107877619D01*
X119976190Y-107877619D02*
X120119047Y-107925238D01*
X120119047Y-107925238D02*
X120214285Y-108020476D01*
X120214285Y-108020476D02*
X120261904Y-108115714D01*
X120261904Y-108115714D02*
X120309523Y-108306190D01*
X120309523Y-108306190D02*
X120309523Y-108449047D01*
X120309523Y-108449047D02*
X120261904Y-108639523D01*
X120261904Y-108639523D02*
X120214285Y-108734761D01*
X120214285Y-108734761D02*
X120119047Y-108830000D01*
X120119047Y-108830000D02*
X119976190Y-108877619D01*
X119976190Y-108877619D02*
X119880952Y-108877619D01*
X119880952Y-108877619D02*
X119738095Y-108830000D01*
X119738095Y-108830000D02*
X119690476Y-108782380D01*
X119690476Y-108782380D02*
X119690476Y-108449047D01*
X119690476Y-108449047D02*
X119880952Y-108449047D01*
X119261904Y-108877619D02*
X119261904Y-107877619D01*
X119261904Y-107877619D02*
X118690476Y-108877619D01*
X118690476Y-108877619D02*
X118690476Y-107877619D01*
X118214285Y-108877619D02*
X118214285Y-107877619D01*
X118214285Y-107877619D02*
X117976190Y-107877619D01*
X117976190Y-107877619D02*
X117833333Y-107925238D01*
X117833333Y-107925238D02*
X117738095Y-108020476D01*
X117738095Y-108020476D02*
X117690476Y-108115714D01*
X117690476Y-108115714D02*
X117642857Y-108306190D01*
X117642857Y-108306190D02*
X117642857Y-108449047D01*
X117642857Y-108449047D02*
X117690476Y-108639523D01*
X117690476Y-108639523D02*
X117738095Y-108734761D01*
X117738095Y-108734761D02*
X117833333Y-108830000D01*
X117833333Y-108830000D02*
X117976190Y-108877619D01*
X117976190Y-108877619D02*
X118214285Y-108877619D01*
X119585714Y-105502619D02*
X120061904Y-105502619D01*
X120061904Y-105502619D02*
X120109523Y-105978809D01*
X120109523Y-105978809D02*
X120061904Y-105931190D01*
X120061904Y-105931190D02*
X119966666Y-105883571D01*
X119966666Y-105883571D02*
X119728571Y-105883571D01*
X119728571Y-105883571D02*
X119633333Y-105931190D01*
X119633333Y-105931190D02*
X119585714Y-105978809D01*
X119585714Y-105978809D02*
X119538095Y-106074047D01*
X119538095Y-106074047D02*
X119538095Y-106312142D01*
X119538095Y-106312142D02*
X119585714Y-106407380D01*
X119585714Y-106407380D02*
X119633333Y-106455000D01*
X119633333Y-106455000D02*
X119728571Y-106502619D01*
X119728571Y-106502619D02*
X119966666Y-106502619D01*
X119966666Y-106502619D02*
X120061904Y-106455000D01*
X120061904Y-106455000D02*
X120109523Y-106407380D01*
X119252380Y-105502619D02*
X118919047Y-106502619D01*
X118919047Y-106502619D02*
X118585714Y-105502619D01*
M02*
