%TF.GenerationSoftware,KiCad,Pcbnew,7.0.2*%
%TF.CreationDate,2023-09-15T09:46:50+02:00*%
%TF.ProjectId,opendaq_carrier_1.0,6f70656e-6461-4715-9f63-617272696572,rev?*%
%TF.SameCoordinates,Original*%
%TF.FileFunction,Legend,Bot*%
%TF.FilePolarity,Positive*%
%FSLAX46Y46*%
G04 Gerber Fmt 4.6, Leading zero omitted, Abs format (unit mm)*
G04 Created by KiCad (PCBNEW 7.0.2) date 2023-09-15 09:46:50*
%MOMM*%
%LPD*%
G01*
G04 APERTURE LIST*
%ADD10C,0.150000*%
%ADD11C,0.120000*%
G04 APERTURE END LIST*
D10*
%TO.C,J2*%
X112511333Y-114270619D02*
X112511333Y-114984904D01*
X112511333Y-114984904D02*
X112558952Y-115127761D01*
X112558952Y-115127761D02*
X112654190Y-115223000D01*
X112654190Y-115223000D02*
X112797047Y-115270619D01*
X112797047Y-115270619D02*
X112892285Y-115270619D01*
X112082761Y-114365857D02*
X112035142Y-114318238D01*
X112035142Y-114318238D02*
X111939904Y-114270619D01*
X111939904Y-114270619D02*
X111701809Y-114270619D01*
X111701809Y-114270619D02*
X111606571Y-114318238D01*
X111606571Y-114318238D02*
X111558952Y-114365857D01*
X111558952Y-114365857D02*
X111511333Y-114461095D01*
X111511333Y-114461095D02*
X111511333Y-114556333D01*
X111511333Y-114556333D02*
X111558952Y-114699190D01*
X111558952Y-114699190D02*
X112130380Y-115270619D01*
X112130380Y-115270619D02*
X111511333Y-115270619D01*
D11*
X110900000Y-114200000D02*
X110900000Y-115800000D01*
X110600000Y-129200000D02*
X110600000Y-114500000D01*
X110600000Y-114500000D02*
X108500000Y-114500000D01*
X109200000Y-114200000D02*
X110900000Y-114200000D01*
X103500000Y-114500000D02*
X101400000Y-114500000D01*
X101400000Y-129200000D02*
X110600000Y-129200000D01*
X101400000Y-120700000D02*
X101400000Y-129200000D01*
X101400000Y-114500000D02*
X101400000Y-116300000D01*
%TD*%
M02*
