M48
; DRILL file {KiCad 7.0.2} date Fri Sep 15 09:46:53 2023
; FORMAT={-:-/ absolute / inch / decimal}
; #@! TF.CreationDate,2023-09-15T09:46:53+02:00
; #@! TF.GenerationSoftware,Kicad,Pcbnew,7.0.2
; #@! TF.FileFunction,Plated,1,2,PTH
FMAT,2
INCH
; #@! TA.AperFunction,Plated,PTH,ViaDrill
T1C0.0295
; #@! TA.AperFunction,Plated,PTH,ComponentDrill
T2C0.0300
; #@! TA.AperFunction,Plated,PTH,ComponentDrill
T3C0.0315
; #@! TA.AperFunction,Plated,PTH,ComponentDrill
T4C0.0354
; #@! TA.AperFunction,Plated,PTH,ComponentDrill
T5C0.0374
; #@! TA.AperFunction,Plated,PTH,ComponentDrill
T6C0.0394
; #@! TA.AperFunction,Plated,PTH,ComponentDrill
T7C0.0512
; #@! TA.AperFunction,Plated,PTH,ComponentDrill
T8C0.1260
%
G90
G05
T1
X4.15Y-4.3
X5.0Y-4.29
X5.22Y-3.78
T2
X4.4163Y-1.99
X4.5163Y-1.99
X4.6163Y-1.99
X4.7163Y-1.99
T4
X5.35Y-2.05
X5.35Y-2.15
X5.35Y-2.25
X5.35Y-2.35
X5.35Y-2.45
X5.35Y-2.55
X5.35Y-2.65
X5.35Y-2.75
X5.35Y-2.85
X5.35Y-2.95
X5.35Y-3.05
X5.35Y-3.15
X5.35Y-3.25
X5.35Y-3.35
X5.35Y-3.45
X5.35Y-3.55
X5.35Y-3.65
X5.35Y-3.75
X5.35Y-3.85
X6.2488Y-2.05
X6.2488Y-2.15
X6.2488Y-2.25
X6.2488Y-2.35
X6.2488Y-2.45
X6.2488Y-2.55
X6.2488Y-2.65
X6.2488Y-2.75
X6.2488Y-2.85
X6.2488Y-2.95
X6.2488Y-3.05
X6.2488Y-3.15
X6.2488Y-3.25
X6.2488Y-3.35
X6.2488Y-3.45
X6.2488Y-3.55
X6.2488Y-3.65
X6.2488Y-3.75
X6.2488Y-3.85
X6.55Y-2.05
X6.55Y-2.15
X6.55Y-2.25
X6.55Y-2.35
X6.55Y-2.45
X6.55Y-2.55
X6.55Y-2.65
X6.55Y-2.75
X6.55Y-2.85
X6.55Y-2.95
X6.55Y-3.05
X6.55Y-3.15
X6.55Y-3.25
X6.55Y-3.35
X6.55Y-3.45
X6.55Y-3.55
X6.55Y-3.65
X6.55Y-3.75
X6.55Y-3.85
X7.4488Y-2.05
X7.4488Y-2.15
X7.4488Y-2.25
X7.4488Y-2.35
X7.4488Y-2.45
X7.4488Y-2.55
X7.4488Y-2.65
X7.4488Y-2.75
X7.4488Y-2.85
X7.4488Y-2.95
X7.4488Y-3.05
X7.4488Y-3.15
X7.4488Y-3.25
X7.4488Y-3.35
X7.4488Y-3.45
X7.4488Y-3.55
X7.4488Y-3.65
X7.4488Y-3.75
X7.4488Y-3.85
T5
X5.1969Y-4.7244
X5.2953Y-4.7244
X5.3937Y-4.7244
X5.4921Y-4.7244
X5.7874Y-4.7244
X5.8858Y-4.7244
X5.9843Y-4.7244
X6.0827Y-4.7244
X6.1811Y-4.7244
X6.2795Y-4.7244
X6.5748Y-4.7244
X6.6732Y-4.7244
X6.7717Y-4.7244
X7.0669Y-4.7244
X7.1654Y-4.7244
X7.2638Y-4.7244
X7.3622Y-4.7244
X7.4606Y-4.7244
T6
X4.6457Y-4.5866
X4.7441Y-4.5866
T7
X4.1923Y-3.0479
X4.1923Y-3.54
X4.3891Y-3.0479
X4.3891Y-3.54
X4.7631Y-3.0479
X4.7631Y-3.54
X4.96Y-3.0479
X4.96Y-3.54
T8
X3.7402Y-1.9291
X3.7402Y-4.7244
X7.8346Y-1.9291
X7.8346Y-4.7244
T3
G00X3.9843Y-4.7087
M15
G01X3.9843Y-4.622
M16
G05
G00X4.2244Y-4.5472
M15
G01X4.122Y-4.5472
M16
G05
G00X4.2165Y-4.7756
M15
G01X4.1299Y-4.7756
M16
G05
T0
M30
