%TF.GenerationSoftware,KiCad,Pcbnew,7.0.2*%
%TF.CreationDate,2023-09-15T09:46:50+02:00*%
%TF.ProjectId,opendaq_carrier_1.0,6f70656e-6461-4715-9f63-617272696572,rev?*%
%TF.SameCoordinates,Original*%
%TF.FileFunction,Legend,Top*%
%TF.FilePolarity,Positive*%
%FSLAX46Y46*%
G04 Gerber Fmt 4.6, Leading zero omitted, Abs format (unit mm)*
G04 Created by KiCad (PCBNEW 7.0.2) date 2023-09-15 09:46:50*
%MOMM*%
%LPD*%
G01*
G04 APERTURE LIST*
%ADD10C,0.150000*%
%ADD11C,0.100000*%
%ADD12C,0.120000*%
G04 APERTURE END LIST*
D10*
%TO.C,U2*%
X181542333Y-59572666D02*
X181542333Y-60706000D01*
X181542333Y-60706000D02*
X181609000Y-60839333D01*
X181609000Y-60839333D02*
X181675666Y-60906000D01*
X181675666Y-60906000D02*
X181809000Y-60972666D01*
X181809000Y-60972666D02*
X182075666Y-60972666D01*
X182075666Y-60972666D02*
X182209000Y-60906000D01*
X182209000Y-60906000D02*
X182275666Y-60839333D01*
X182275666Y-60839333D02*
X182342333Y-60706000D01*
X182342333Y-60706000D02*
X182342333Y-59572666D01*
X182942333Y-59706000D02*
X183009000Y-59639333D01*
X183009000Y-59639333D02*
X183142333Y-59572666D01*
X183142333Y-59572666D02*
X183475667Y-59572666D01*
X183475667Y-59572666D02*
X183609000Y-59639333D01*
X183609000Y-59639333D02*
X183675667Y-59706000D01*
X183675667Y-59706000D02*
X183742333Y-59839333D01*
X183742333Y-59839333D02*
X183742333Y-59972666D01*
X183742333Y-59972666D02*
X183675667Y-60172666D01*
X183675667Y-60172666D02*
X182875667Y-60972666D01*
X182875667Y-60972666D02*
X183742333Y-60972666D01*
%TO.C,U1*%
X151062333Y-59572666D02*
X151062333Y-60706000D01*
X151062333Y-60706000D02*
X151129000Y-60839333D01*
X151129000Y-60839333D02*
X151195666Y-60906000D01*
X151195666Y-60906000D02*
X151329000Y-60972666D01*
X151329000Y-60972666D02*
X151595666Y-60972666D01*
X151595666Y-60972666D02*
X151729000Y-60906000D01*
X151729000Y-60906000D02*
X151795666Y-60839333D01*
X151795666Y-60839333D02*
X151862333Y-60706000D01*
X151862333Y-60706000D02*
X151862333Y-59572666D01*
X153262333Y-60972666D02*
X152462333Y-60972666D01*
X152862333Y-60972666D02*
X152862333Y-59572666D01*
X152862333Y-59572666D02*
X152729000Y-59772666D01*
X152729000Y-59772666D02*
X152595667Y-59906000D01*
X152595667Y-59906000D02*
X152462333Y-59972666D01*
%TO.C,SW2*%
X116739000Y-85169332D02*
X116786619Y-85026475D01*
X116786619Y-85026475D02*
X116786619Y-84788380D01*
X116786619Y-84788380D02*
X116739000Y-84693142D01*
X116739000Y-84693142D02*
X116691380Y-84645523D01*
X116691380Y-84645523D02*
X116596142Y-84597904D01*
X116596142Y-84597904D02*
X116500904Y-84597904D01*
X116500904Y-84597904D02*
X116405666Y-84645523D01*
X116405666Y-84645523D02*
X116358047Y-84693142D01*
X116358047Y-84693142D02*
X116310428Y-84788380D01*
X116310428Y-84788380D02*
X116262809Y-84978856D01*
X116262809Y-84978856D02*
X116215190Y-85074094D01*
X116215190Y-85074094D02*
X116167571Y-85121713D01*
X116167571Y-85121713D02*
X116072333Y-85169332D01*
X116072333Y-85169332D02*
X115977095Y-85169332D01*
X115977095Y-85169332D02*
X115881857Y-85121713D01*
X115881857Y-85121713D02*
X115834238Y-85074094D01*
X115834238Y-85074094D02*
X115786619Y-84978856D01*
X115786619Y-84978856D02*
X115786619Y-84740761D01*
X115786619Y-84740761D02*
X115834238Y-84597904D01*
X115786619Y-84264570D02*
X116786619Y-84026475D01*
X116786619Y-84026475D02*
X116072333Y-83835999D01*
X116072333Y-83835999D02*
X116786619Y-83645523D01*
X116786619Y-83645523D02*
X115786619Y-83407428D01*
X115881857Y-83074094D02*
X115834238Y-83026475D01*
X115834238Y-83026475D02*
X115786619Y-82931237D01*
X115786619Y-82931237D02*
X115786619Y-82693142D01*
X115786619Y-82693142D02*
X115834238Y-82597904D01*
X115834238Y-82597904D02*
X115881857Y-82550285D01*
X115881857Y-82550285D02*
X115977095Y-82502666D01*
X115977095Y-82502666D02*
X116072333Y-82502666D01*
X116072333Y-82502666D02*
X116215190Y-82550285D01*
X116215190Y-82550285D02*
X116786619Y-83121713D01*
X116786619Y-83121713D02*
X116786619Y-82502666D01*
%TO.C,J1*%
X169166666Y-115962619D02*
X169166666Y-116676904D01*
X169166666Y-116676904D02*
X169119047Y-116819761D01*
X169119047Y-116819761D02*
X169023809Y-116915000D01*
X169023809Y-116915000D02*
X168880952Y-116962619D01*
X168880952Y-116962619D02*
X168785714Y-116962619D01*
X170166666Y-116962619D02*
X169595238Y-116962619D01*
X169880952Y-116962619D02*
X169880952Y-115962619D01*
X169880952Y-115962619D02*
X169785714Y-116105476D01*
X169785714Y-116105476D02*
X169690476Y-116200714D01*
X169690476Y-116200714D02*
X169595238Y-116248333D01*
%TO.C,J6*%
X123872666Y-114270619D02*
X123872666Y-114984904D01*
X123872666Y-114984904D02*
X123825047Y-115127761D01*
X123825047Y-115127761D02*
X123729809Y-115223000D01*
X123729809Y-115223000D02*
X123586952Y-115270619D01*
X123586952Y-115270619D02*
X123491714Y-115270619D01*
X124777428Y-114270619D02*
X124586952Y-114270619D01*
X124586952Y-114270619D02*
X124491714Y-114318238D01*
X124491714Y-114318238D02*
X124444095Y-114365857D01*
X124444095Y-114365857D02*
X124348857Y-114508714D01*
X124348857Y-114508714D02*
X124301238Y-114699190D01*
X124301238Y-114699190D02*
X124301238Y-115080142D01*
X124301238Y-115080142D02*
X124348857Y-115175380D01*
X124348857Y-115175380D02*
X124396476Y-115223000D01*
X124396476Y-115223000D02*
X124491714Y-115270619D01*
X124491714Y-115270619D02*
X124682190Y-115270619D01*
X124682190Y-115270619D02*
X124777428Y-115223000D01*
X124777428Y-115223000D02*
X124825047Y-115175380D01*
X124825047Y-115175380D02*
X124872666Y-115080142D01*
X124872666Y-115080142D02*
X124872666Y-114842047D01*
X124872666Y-114842047D02*
X124825047Y-114746809D01*
X124825047Y-114746809D02*
X124777428Y-114699190D01*
X124777428Y-114699190D02*
X124682190Y-114651571D01*
X124682190Y-114651571D02*
X124491714Y-114651571D01*
X124491714Y-114651571D02*
X124396476Y-114699190D01*
X124396476Y-114699190D02*
X124348857Y-114746809D01*
X124348857Y-114746809D02*
X124301238Y-114842047D01*
%TO.C,J4*%
X184166666Y-115962619D02*
X184166666Y-116676904D01*
X184166666Y-116676904D02*
X184119047Y-116819761D01*
X184119047Y-116819761D02*
X184023809Y-116915000D01*
X184023809Y-116915000D02*
X183880952Y-116962619D01*
X183880952Y-116962619D02*
X183785714Y-116962619D01*
X185071428Y-116295952D02*
X185071428Y-116962619D01*
X184833333Y-115915000D02*
X184595238Y-116629285D01*
X184595238Y-116629285D02*
X185214285Y-116629285D01*
D11*
%TO.C,U5*%
X115222095Y-47976619D02*
X115222095Y-48786142D01*
X115222095Y-48786142D02*
X115269714Y-48881380D01*
X115269714Y-48881380D02*
X115317333Y-48929000D01*
X115317333Y-48929000D02*
X115412571Y-48976619D01*
X115412571Y-48976619D02*
X115603047Y-48976619D01*
X115603047Y-48976619D02*
X115698285Y-48929000D01*
X115698285Y-48929000D02*
X115745904Y-48881380D01*
X115745904Y-48881380D02*
X115793523Y-48786142D01*
X115793523Y-48786142D02*
X115793523Y-47976619D01*
X116745904Y-47976619D02*
X116269714Y-47976619D01*
X116269714Y-47976619D02*
X116222095Y-48452809D01*
X116222095Y-48452809D02*
X116269714Y-48405190D01*
X116269714Y-48405190D02*
X116364952Y-48357571D01*
X116364952Y-48357571D02*
X116603047Y-48357571D01*
X116603047Y-48357571D02*
X116698285Y-48405190D01*
X116698285Y-48405190D02*
X116745904Y-48452809D01*
X116745904Y-48452809D02*
X116793523Y-48548047D01*
X116793523Y-48548047D02*
X116793523Y-48786142D01*
X116793523Y-48786142D02*
X116745904Y-48881380D01*
X116745904Y-48881380D02*
X116698285Y-48929000D01*
X116698285Y-48929000D02*
X116603047Y-48976619D01*
X116603047Y-48976619D02*
X116364952Y-48976619D01*
X116364952Y-48976619D02*
X116269714Y-48929000D01*
X116269714Y-48929000D02*
X116222095Y-48881380D01*
X116174476Y-54186000D02*
X116317333Y-54233619D01*
X116317333Y-54233619D02*
X116555428Y-54233619D01*
X116555428Y-54233619D02*
X116650666Y-54186000D01*
X116650666Y-54186000D02*
X116698285Y-54138380D01*
X116698285Y-54138380D02*
X116745904Y-54043142D01*
X116745904Y-54043142D02*
X116745904Y-53947904D01*
X116745904Y-53947904D02*
X116698285Y-53852666D01*
X116698285Y-53852666D02*
X116650666Y-53805047D01*
X116650666Y-53805047D02*
X116555428Y-53757428D01*
X116555428Y-53757428D02*
X116364952Y-53709809D01*
X116364952Y-53709809D02*
X116269714Y-53662190D01*
X116269714Y-53662190D02*
X116222095Y-53614571D01*
X116222095Y-53614571D02*
X116174476Y-53519333D01*
X116174476Y-53519333D02*
X116174476Y-53424095D01*
X116174476Y-53424095D02*
X116222095Y-53328857D01*
X116222095Y-53328857D02*
X116269714Y-53281238D01*
X116269714Y-53281238D02*
X116364952Y-53233619D01*
X116364952Y-53233619D02*
X116603047Y-53233619D01*
X116603047Y-53233619D02*
X116745904Y-53281238D01*
X117126857Y-54186000D02*
X117269714Y-54233619D01*
X117269714Y-54233619D02*
X117507809Y-54233619D01*
X117507809Y-54233619D02*
X117603047Y-54186000D01*
X117603047Y-54186000D02*
X117650666Y-54138380D01*
X117650666Y-54138380D02*
X117698285Y-54043142D01*
X117698285Y-54043142D02*
X117698285Y-53947904D01*
X117698285Y-53947904D02*
X117650666Y-53852666D01*
X117650666Y-53852666D02*
X117603047Y-53805047D01*
X117603047Y-53805047D02*
X117507809Y-53757428D01*
X117507809Y-53757428D02*
X117317333Y-53709809D01*
X117317333Y-53709809D02*
X117222095Y-53662190D01*
X117222095Y-53662190D02*
X117174476Y-53614571D01*
X117174476Y-53614571D02*
X117126857Y-53519333D01*
X117126857Y-53519333D02*
X117126857Y-53424095D01*
X117126857Y-53424095D02*
X117174476Y-53328857D01*
X117174476Y-53328857D02*
X117222095Y-53281238D01*
X117222095Y-53281238D02*
X117317333Y-53233619D01*
X117317333Y-53233619D02*
X117555428Y-53233619D01*
X117555428Y-53233619D02*
X117698285Y-53281238D01*
X118126857Y-54233619D02*
X118126857Y-53233619D01*
X118126857Y-53233619D02*
X118364952Y-53233619D01*
X118364952Y-53233619D02*
X118507809Y-53281238D01*
X118507809Y-53281238D02*
X118603047Y-53376476D01*
X118603047Y-53376476D02*
X118650666Y-53471714D01*
X118650666Y-53471714D02*
X118698285Y-53662190D01*
X118698285Y-53662190D02*
X118698285Y-53805047D01*
X118698285Y-53805047D02*
X118650666Y-53995523D01*
X118650666Y-53995523D02*
X118603047Y-54090761D01*
X118603047Y-54090761D02*
X118507809Y-54186000D01*
X118507809Y-54186000D02*
X118364952Y-54233619D01*
X118364952Y-54233619D02*
X118126857Y-54233619D01*
X119650666Y-54233619D02*
X119079238Y-54233619D01*
X119364952Y-54233619D02*
X119364952Y-53233619D01*
X119364952Y-53233619D02*
X119269714Y-53376476D01*
X119269714Y-53376476D02*
X119174476Y-53471714D01*
X119174476Y-53471714D02*
X119079238Y-53519333D01*
X119984000Y-53233619D02*
X120603047Y-53233619D01*
X120603047Y-53233619D02*
X120269714Y-53614571D01*
X120269714Y-53614571D02*
X120412571Y-53614571D01*
X120412571Y-53614571D02*
X120507809Y-53662190D01*
X120507809Y-53662190D02*
X120555428Y-53709809D01*
X120555428Y-53709809D02*
X120603047Y-53805047D01*
X120603047Y-53805047D02*
X120603047Y-54043142D01*
X120603047Y-54043142D02*
X120555428Y-54138380D01*
X120555428Y-54138380D02*
X120507809Y-54186000D01*
X120507809Y-54186000D02*
X120412571Y-54233619D01*
X120412571Y-54233619D02*
X120126857Y-54233619D01*
X120126857Y-54233619D02*
X120031619Y-54186000D01*
X120031619Y-54186000D02*
X119984000Y-54138380D01*
X121222095Y-53233619D02*
X121317333Y-53233619D01*
X121317333Y-53233619D02*
X121412571Y-53281238D01*
X121412571Y-53281238D02*
X121460190Y-53328857D01*
X121460190Y-53328857D02*
X121507809Y-53424095D01*
X121507809Y-53424095D02*
X121555428Y-53614571D01*
X121555428Y-53614571D02*
X121555428Y-53852666D01*
X121555428Y-53852666D02*
X121507809Y-54043142D01*
X121507809Y-54043142D02*
X121460190Y-54138380D01*
X121460190Y-54138380D02*
X121412571Y-54186000D01*
X121412571Y-54186000D02*
X121317333Y-54233619D01*
X121317333Y-54233619D02*
X121222095Y-54233619D01*
X121222095Y-54233619D02*
X121126857Y-54186000D01*
X121126857Y-54186000D02*
X121079238Y-54138380D01*
X121079238Y-54138380D02*
X121031619Y-54043142D01*
X121031619Y-54043142D02*
X120984000Y-53852666D01*
X120984000Y-53852666D02*
X120984000Y-53614571D01*
X120984000Y-53614571D02*
X121031619Y-53424095D01*
X121031619Y-53424095D02*
X121079238Y-53328857D01*
X121079238Y-53328857D02*
X121126857Y-53281238D01*
X121126857Y-53281238D02*
X121222095Y-53233619D01*
X122412571Y-53233619D02*
X122222095Y-53233619D01*
X122222095Y-53233619D02*
X122126857Y-53281238D01*
X122126857Y-53281238D02*
X122079238Y-53328857D01*
X122079238Y-53328857D02*
X121984000Y-53471714D01*
X121984000Y-53471714D02*
X121936381Y-53662190D01*
X121936381Y-53662190D02*
X121936381Y-54043142D01*
X121936381Y-54043142D02*
X121984000Y-54138380D01*
X121984000Y-54138380D02*
X122031619Y-54186000D01*
X122031619Y-54186000D02*
X122126857Y-54233619D01*
X122126857Y-54233619D02*
X122317333Y-54233619D01*
X122317333Y-54233619D02*
X122412571Y-54186000D01*
X122412571Y-54186000D02*
X122460190Y-54138380D01*
X122460190Y-54138380D02*
X122507809Y-54043142D01*
X122507809Y-54043142D02*
X122507809Y-53805047D01*
X122507809Y-53805047D02*
X122460190Y-53709809D01*
X122460190Y-53709809D02*
X122412571Y-53662190D01*
X122412571Y-53662190D02*
X122317333Y-53614571D01*
X122317333Y-53614571D02*
X122126857Y-53614571D01*
X122126857Y-53614571D02*
X122031619Y-53662190D01*
X122031619Y-53662190D02*
X121984000Y-53709809D01*
X121984000Y-53709809D02*
X121936381Y-53805047D01*
%TO.C,U3*%
X115238095Y-99780619D02*
X115238095Y-100590142D01*
X115238095Y-100590142D02*
X115285714Y-100685380D01*
X115285714Y-100685380D02*
X115333333Y-100733000D01*
X115333333Y-100733000D02*
X115428571Y-100780619D01*
X115428571Y-100780619D02*
X115619047Y-100780619D01*
X115619047Y-100780619D02*
X115714285Y-100733000D01*
X115714285Y-100733000D02*
X115761904Y-100685380D01*
X115761904Y-100685380D02*
X115809523Y-100590142D01*
X115809523Y-100590142D02*
X115809523Y-99780619D01*
X116190476Y-99780619D02*
X116809523Y-99780619D01*
X116809523Y-99780619D02*
X116476190Y-100161571D01*
X116476190Y-100161571D02*
X116619047Y-100161571D01*
X116619047Y-100161571D02*
X116714285Y-100209190D01*
X116714285Y-100209190D02*
X116761904Y-100256809D01*
X116761904Y-100256809D02*
X116809523Y-100352047D01*
X116809523Y-100352047D02*
X116809523Y-100590142D01*
X116809523Y-100590142D02*
X116761904Y-100685380D01*
X116761904Y-100685380D02*
X116714285Y-100733000D01*
X116714285Y-100733000D02*
X116619047Y-100780619D01*
X116619047Y-100780619D02*
X116333333Y-100780619D01*
X116333333Y-100780619D02*
X116238095Y-100733000D01*
X116238095Y-100733000D02*
X116190476Y-100685380D01*
X113698095Y-102377619D02*
X113698095Y-101377619D01*
X113698095Y-101377619D02*
X114031428Y-102091904D01*
X114031428Y-102091904D02*
X114364761Y-101377619D01*
X114364761Y-101377619D02*
X114364761Y-102377619D01*
X114840952Y-102377619D02*
X114840952Y-101377619D01*
X115317142Y-102377619D02*
X115317142Y-101377619D01*
X115317142Y-101377619D02*
X115888570Y-102377619D01*
X115888570Y-102377619D02*
X115888570Y-101377619D01*
X116364761Y-102377619D02*
X116364761Y-101377619D01*
X117317141Y-101377619D02*
X116840951Y-101377619D01*
X116840951Y-101377619D02*
X116793332Y-101853809D01*
X116793332Y-101853809D02*
X116840951Y-101806190D01*
X116840951Y-101806190D02*
X116936189Y-101758571D01*
X116936189Y-101758571D02*
X117174284Y-101758571D01*
X117174284Y-101758571D02*
X117269522Y-101806190D01*
X117269522Y-101806190D02*
X117317141Y-101853809D01*
X117317141Y-101853809D02*
X117364760Y-101949047D01*
X117364760Y-101949047D02*
X117364760Y-102187142D01*
X117364760Y-102187142D02*
X117317141Y-102282380D01*
X117317141Y-102282380D02*
X117269522Y-102330000D01*
X117269522Y-102330000D02*
X117174284Y-102377619D01*
X117174284Y-102377619D02*
X116936189Y-102377619D01*
X116936189Y-102377619D02*
X116840951Y-102330000D01*
X116840951Y-102330000D02*
X116793332Y-102282380D01*
X118221903Y-101377619D02*
X118031427Y-101377619D01*
X118031427Y-101377619D02*
X117936189Y-101425238D01*
X117936189Y-101425238D02*
X117888570Y-101472857D01*
X117888570Y-101472857D02*
X117793332Y-101615714D01*
X117793332Y-101615714D02*
X117745713Y-101806190D01*
X117745713Y-101806190D02*
X117745713Y-102187142D01*
X117745713Y-102187142D02*
X117793332Y-102282380D01*
X117793332Y-102282380D02*
X117840951Y-102330000D01*
X117840951Y-102330000D02*
X117936189Y-102377619D01*
X117936189Y-102377619D02*
X118126665Y-102377619D01*
X118126665Y-102377619D02*
X118221903Y-102330000D01*
X118221903Y-102330000D02*
X118269522Y-102282380D01*
X118269522Y-102282380D02*
X118317141Y-102187142D01*
X118317141Y-102187142D02*
X118317141Y-101949047D01*
X118317141Y-101949047D02*
X118269522Y-101853809D01*
X118269522Y-101853809D02*
X118221903Y-101806190D01*
X118221903Y-101806190D02*
X118126665Y-101758571D01*
X118126665Y-101758571D02*
X117936189Y-101758571D01*
X117936189Y-101758571D02*
X117840951Y-101806190D01*
X117840951Y-101806190D02*
X117793332Y-101853809D01*
X117793332Y-101853809D02*
X117745713Y-101949047D01*
X118936189Y-101377619D02*
X119031427Y-101377619D01*
X119031427Y-101377619D02*
X119126665Y-101425238D01*
X119126665Y-101425238D02*
X119174284Y-101472857D01*
X119174284Y-101472857D02*
X119221903Y-101568095D01*
X119221903Y-101568095D02*
X119269522Y-101758571D01*
X119269522Y-101758571D02*
X119269522Y-101996666D01*
X119269522Y-101996666D02*
X119221903Y-102187142D01*
X119221903Y-102187142D02*
X119174284Y-102282380D01*
X119174284Y-102282380D02*
X119126665Y-102330000D01*
X119126665Y-102330000D02*
X119031427Y-102377619D01*
X119031427Y-102377619D02*
X118936189Y-102377619D01*
X118936189Y-102377619D02*
X118840951Y-102330000D01*
X118840951Y-102330000D02*
X118793332Y-102282380D01*
X118793332Y-102282380D02*
X118745713Y-102187142D01*
X118745713Y-102187142D02*
X118698094Y-101996666D01*
X118698094Y-101996666D02*
X118698094Y-101758571D01*
X118698094Y-101758571D02*
X118745713Y-101568095D01*
X118745713Y-101568095D02*
X118793332Y-101472857D01*
X118793332Y-101472857D02*
X118840951Y-101425238D01*
X118840951Y-101425238D02*
X118936189Y-101377619D01*
D10*
%TO.C,J5*%
X152916666Y-115962619D02*
X152916666Y-116676904D01*
X152916666Y-116676904D02*
X152869047Y-116819761D01*
X152869047Y-116819761D02*
X152773809Y-116915000D01*
X152773809Y-116915000D02*
X152630952Y-116962619D01*
X152630952Y-116962619D02*
X152535714Y-116962619D01*
X153869047Y-115962619D02*
X153392857Y-115962619D01*
X153392857Y-115962619D02*
X153345238Y-116438809D01*
X153345238Y-116438809D02*
X153392857Y-116391190D01*
X153392857Y-116391190D02*
X153488095Y-116343571D01*
X153488095Y-116343571D02*
X153726190Y-116343571D01*
X153726190Y-116343571D02*
X153821428Y-116391190D01*
X153821428Y-116391190D02*
X153869047Y-116438809D01*
X153869047Y-116438809D02*
X153916666Y-116534047D01*
X153916666Y-116534047D02*
X153916666Y-116772142D01*
X153916666Y-116772142D02*
X153869047Y-116867380D01*
X153869047Y-116867380D02*
X153821428Y-116915000D01*
X153821428Y-116915000D02*
X153726190Y-116962619D01*
X153726190Y-116962619D02*
X153488095Y-116962619D01*
X153488095Y-116962619D02*
X153392857Y-116915000D01*
X153392857Y-116915000D02*
X153345238Y-116867380D01*
%TO.C,J3*%
X135416666Y-115962619D02*
X135416666Y-116676904D01*
X135416666Y-116676904D02*
X135369047Y-116819761D01*
X135369047Y-116819761D02*
X135273809Y-116915000D01*
X135273809Y-116915000D02*
X135130952Y-116962619D01*
X135130952Y-116962619D02*
X135035714Y-116962619D01*
X135797619Y-115962619D02*
X136416666Y-115962619D01*
X136416666Y-115962619D02*
X136083333Y-116343571D01*
X136083333Y-116343571D02*
X136226190Y-116343571D01*
X136226190Y-116343571D02*
X136321428Y-116391190D01*
X136321428Y-116391190D02*
X136369047Y-116438809D01*
X136369047Y-116438809D02*
X136416666Y-116534047D01*
X136416666Y-116534047D02*
X136416666Y-116772142D01*
X136416666Y-116772142D02*
X136369047Y-116867380D01*
X136369047Y-116867380D02*
X136321428Y-116915000D01*
X136321428Y-116915000D02*
X136226190Y-116962619D01*
X136226190Y-116962619D02*
X135940476Y-116962619D01*
X135940476Y-116962619D02*
X135845238Y-116915000D01*
X135845238Y-116915000D02*
X135797619Y-116867380D01*
%TO.C,SW1*%
X102239000Y-85169332D02*
X102286619Y-85026475D01*
X102286619Y-85026475D02*
X102286619Y-84788380D01*
X102286619Y-84788380D02*
X102239000Y-84693142D01*
X102239000Y-84693142D02*
X102191380Y-84645523D01*
X102191380Y-84645523D02*
X102096142Y-84597904D01*
X102096142Y-84597904D02*
X102000904Y-84597904D01*
X102000904Y-84597904D02*
X101905666Y-84645523D01*
X101905666Y-84645523D02*
X101858047Y-84693142D01*
X101858047Y-84693142D02*
X101810428Y-84788380D01*
X101810428Y-84788380D02*
X101762809Y-84978856D01*
X101762809Y-84978856D02*
X101715190Y-85074094D01*
X101715190Y-85074094D02*
X101667571Y-85121713D01*
X101667571Y-85121713D02*
X101572333Y-85169332D01*
X101572333Y-85169332D02*
X101477095Y-85169332D01*
X101477095Y-85169332D02*
X101381857Y-85121713D01*
X101381857Y-85121713D02*
X101334238Y-85074094D01*
X101334238Y-85074094D02*
X101286619Y-84978856D01*
X101286619Y-84978856D02*
X101286619Y-84740761D01*
X101286619Y-84740761D02*
X101334238Y-84597904D01*
X101286619Y-84264570D02*
X102286619Y-84026475D01*
X102286619Y-84026475D02*
X101572333Y-83835999D01*
X101572333Y-83835999D02*
X102286619Y-83645523D01*
X102286619Y-83645523D02*
X101286619Y-83407428D01*
X102286619Y-82502666D02*
X102286619Y-83074094D01*
X102286619Y-82788380D02*
X101286619Y-82788380D01*
X101286619Y-82788380D02*
X101429476Y-82883618D01*
X101429476Y-82883618D02*
X101524714Y-82978856D01*
X101524714Y-82978856D02*
X101572333Y-83074094D01*
D12*
%TO.C,SW2*%
X117334000Y-89816000D02*
X117334000Y-77516000D01*
X120054000Y-89816000D02*
X117334000Y-89816000D01*
X125054000Y-89816000D02*
X121914000Y-89816000D01*
X129634000Y-89816000D02*
X126914000Y-89816000D01*
X117334000Y-77516000D02*
X120054000Y-77516000D01*
X121914000Y-77516000D02*
X125054000Y-77516000D01*
X126914000Y-77516000D02*
X129634000Y-77516000D01*
X129634000Y-77516000D02*
X129634000Y-89816000D01*
X128103050Y-83566000D02*
G75*
G03*
X128103050Y-83566000I-4579050J0D01*
G01*
%TO.C,J1*%
X164440000Y-117590000D02*
X165860000Y-117590000D01*
X164440000Y-129310000D02*
X164440000Y-117590000D01*
X165860000Y-117590000D02*
X165860000Y-122090000D01*
X165860000Y-122090000D02*
X169500000Y-122090000D01*
X166700000Y-117900000D02*
X167300000Y-117900000D01*
X166750000Y-123200000D02*
X166750000Y-128700000D01*
X166750000Y-128700000D02*
X167250000Y-128700000D01*
X167000000Y-118500000D02*
X166700000Y-117900000D01*
X167250000Y-123200000D02*
X166750000Y-123200000D01*
X167250000Y-128700000D02*
X167250000Y-123200000D01*
X167300000Y-117900000D02*
X167000000Y-118500000D01*
X169250000Y-123200000D02*
X169250000Y-128700000D01*
X169250000Y-128700000D02*
X169750000Y-128700000D01*
X169500000Y-129310000D02*
X164440000Y-129310000D01*
X169500000Y-129310000D02*
X174560000Y-129310000D01*
X169750000Y-123200000D02*
X169250000Y-123200000D01*
X169750000Y-128700000D02*
X169750000Y-123200000D01*
X171750000Y-123200000D02*
X171750000Y-128700000D01*
X171750000Y-128700000D02*
X172250000Y-128700000D01*
X172250000Y-123200000D02*
X171750000Y-123200000D01*
X172250000Y-128700000D02*
X172250000Y-123200000D01*
X173140000Y-117590000D02*
X173140000Y-122090000D01*
X173140000Y-122090000D02*
X169500000Y-122090000D01*
X174560000Y-117590000D02*
X173140000Y-117590000D01*
X174560000Y-129310000D02*
X174560000Y-117590000D01*
%TO.C,J6*%
X115150000Y-113750000D02*
X115150000Y-115000000D01*
X115440000Y-114040000D02*
X115440000Y-120010000D01*
X115440000Y-120010000D02*
X123060000Y-120010000D01*
X115450000Y-114050000D02*
X115450000Y-114800000D01*
X115450000Y-114800000D02*
X117250000Y-114800000D01*
X115450000Y-116300000D02*
X116200000Y-116300000D01*
X116200000Y-116300000D02*
X116200000Y-119250000D01*
X116200000Y-119250000D02*
X119250000Y-119250000D01*
X116400000Y-113750000D02*
X115150000Y-113750000D01*
X117250000Y-114050000D02*
X115450000Y-114050000D01*
X117250000Y-114800000D02*
X117250000Y-114050000D01*
X118750000Y-114050000D02*
X118750000Y-114800000D01*
X118750000Y-114800000D02*
X119750000Y-114800000D01*
X119750000Y-114050000D02*
X118750000Y-114050000D01*
X119750000Y-114800000D02*
X119750000Y-114050000D01*
X121250000Y-114050000D02*
X121250000Y-114800000D01*
X121250000Y-114800000D02*
X123050000Y-114800000D01*
X122300000Y-116300000D02*
X122300000Y-119250000D01*
X122300000Y-119250000D02*
X119250000Y-119250000D01*
X123050000Y-114050000D02*
X121250000Y-114050000D01*
X123050000Y-114800000D02*
X123050000Y-114050000D01*
X123050000Y-116300000D02*
X122300000Y-116300000D01*
X123060000Y-114040000D02*
X115440000Y-114040000D01*
X123060000Y-120010000D02*
X123060000Y-114040000D01*
%TO.C,J4*%
X176940000Y-117590000D02*
X178360000Y-117590000D01*
X176940000Y-129310000D02*
X176940000Y-117590000D01*
X178360000Y-117590000D02*
X178360000Y-122090000D01*
X178360000Y-122090000D02*
X184500000Y-122090000D01*
X179200000Y-117900000D02*
X179800000Y-117900000D01*
X179250000Y-123200000D02*
X179250000Y-128700000D01*
X179250000Y-128700000D02*
X179750000Y-128700000D01*
X179500000Y-118500000D02*
X179200000Y-117900000D01*
X179750000Y-123200000D02*
X179250000Y-123200000D01*
X179750000Y-128700000D02*
X179750000Y-123200000D01*
X179800000Y-117900000D02*
X179500000Y-118500000D01*
X181750000Y-123200000D02*
X181750000Y-128700000D01*
X181750000Y-128700000D02*
X182250000Y-128700000D01*
X182250000Y-123200000D02*
X181750000Y-123200000D01*
X182250000Y-128700000D02*
X182250000Y-123200000D01*
X184250000Y-123200000D02*
X184250000Y-128700000D01*
X184250000Y-128700000D02*
X184750000Y-128700000D01*
X184500000Y-129310000D02*
X176940000Y-129310000D01*
X184500000Y-129310000D02*
X192060000Y-129310000D01*
X184750000Y-123200000D02*
X184250000Y-123200000D01*
X184750000Y-128700000D02*
X184750000Y-123200000D01*
X186750000Y-123200000D02*
X186750000Y-128700000D01*
X186750000Y-128700000D02*
X187250000Y-128700000D01*
X187250000Y-123200000D02*
X186750000Y-123200000D01*
X187250000Y-128700000D02*
X187250000Y-123200000D01*
X189250000Y-123200000D02*
X189250000Y-128700000D01*
X189250000Y-128700000D02*
X189750000Y-128700000D01*
X189750000Y-123200000D02*
X189250000Y-123200000D01*
X189750000Y-128700000D02*
X189750000Y-123200000D01*
X190640000Y-117590000D02*
X190640000Y-122090000D01*
X190640000Y-122090000D02*
X184500000Y-122090000D01*
X192060000Y-117590000D02*
X190640000Y-117590000D01*
X192060000Y-129310000D02*
X192060000Y-117590000D01*
D11*
%TO.C,U5*%
X102984000Y-49276000D02*
X128984000Y-49276000D01*
X128984000Y-49276000D02*
X128984000Y-75276000D01*
X128984000Y-75276000D02*
X102984000Y-75276000D01*
X102984000Y-75276000D02*
X102984000Y-49276000D01*
%TO.C,U3*%
X100760000Y-92340000D02*
X131240000Y-92340000D01*
X131240000Y-92340000D02*
X131240000Y-112660000D01*
X131240000Y-112660000D02*
X100760000Y-112660000D01*
X100760000Y-112660000D02*
X100760000Y-92340000D01*
D12*
%TO.C,J5*%
X162060000Y-129310000D02*
X162060000Y-117590000D01*
X162060000Y-117590000D02*
X160640000Y-117590000D01*
X160640000Y-122090000D02*
X153250000Y-122090000D01*
X160640000Y-117590000D02*
X160640000Y-122090000D01*
X159750000Y-128700000D02*
X159750000Y-123200000D01*
X159750000Y-123200000D02*
X159250000Y-123200000D01*
X159250000Y-128700000D02*
X159750000Y-128700000D01*
X159250000Y-123200000D02*
X159250000Y-128700000D01*
X157250000Y-128700000D02*
X157250000Y-123200000D01*
X157250000Y-123200000D02*
X156750000Y-123200000D01*
X156750000Y-128700000D02*
X157250000Y-128700000D01*
X156750000Y-123200000D02*
X156750000Y-128700000D01*
X154750000Y-128700000D02*
X154750000Y-123200000D01*
X154750000Y-123200000D02*
X154250000Y-123200000D01*
X154250000Y-128700000D02*
X154750000Y-128700000D01*
X154250000Y-123200000D02*
X154250000Y-128700000D01*
X153250000Y-129310000D02*
X162060000Y-129310000D01*
X153250000Y-129310000D02*
X144440000Y-129310000D01*
X152250000Y-128700000D02*
X152250000Y-123200000D01*
X152250000Y-123200000D02*
X151750000Y-123200000D01*
X151750000Y-128700000D02*
X152250000Y-128700000D01*
X151750000Y-123200000D02*
X151750000Y-128700000D01*
X149750000Y-128700000D02*
X149750000Y-123200000D01*
X149750000Y-123200000D02*
X149250000Y-123200000D01*
X149250000Y-128700000D02*
X149750000Y-128700000D01*
X149250000Y-123200000D02*
X149250000Y-128700000D01*
X147300000Y-117900000D02*
X147000000Y-118500000D01*
X147250000Y-128700000D02*
X147250000Y-123200000D01*
X147250000Y-123200000D02*
X146750000Y-123200000D01*
X147000000Y-118500000D02*
X146700000Y-117900000D01*
X146750000Y-128700000D02*
X147250000Y-128700000D01*
X146750000Y-123200000D02*
X146750000Y-128700000D01*
X146700000Y-117900000D02*
X147300000Y-117900000D01*
X145860000Y-122090000D02*
X153250000Y-122090000D01*
X145860000Y-117590000D02*
X145860000Y-122090000D01*
X144440000Y-129310000D02*
X144440000Y-117590000D01*
X144440000Y-117590000D02*
X145860000Y-117590000D01*
%TO.C,J3*%
X129440000Y-117590000D02*
X130860000Y-117590000D01*
X129440000Y-129310000D02*
X129440000Y-117590000D01*
X130860000Y-117590000D02*
X130860000Y-122090000D01*
X130860000Y-122090000D02*
X135750000Y-122090000D01*
X131700000Y-117900000D02*
X132300000Y-117900000D01*
X131750000Y-123200000D02*
X131750000Y-128700000D01*
X131750000Y-128700000D02*
X132250000Y-128700000D01*
X132000000Y-118500000D02*
X131700000Y-117900000D01*
X132250000Y-123200000D02*
X131750000Y-123200000D01*
X132250000Y-128700000D02*
X132250000Y-123200000D01*
X132300000Y-117900000D02*
X132000000Y-118500000D01*
X134250000Y-123200000D02*
X134250000Y-128700000D01*
X134250000Y-128700000D02*
X134750000Y-128700000D01*
X134750000Y-123200000D02*
X134250000Y-123200000D01*
X134750000Y-128700000D02*
X134750000Y-123200000D01*
X135750000Y-129310000D02*
X129440000Y-129310000D01*
X135750000Y-129310000D02*
X142060000Y-129310000D01*
X136750000Y-123200000D02*
X136750000Y-128700000D01*
X136750000Y-128700000D02*
X137250000Y-128700000D01*
X137250000Y-123200000D02*
X136750000Y-123200000D01*
X137250000Y-128700000D02*
X137250000Y-123200000D01*
X139250000Y-123200000D02*
X139250000Y-128700000D01*
X139250000Y-128700000D02*
X139750000Y-128700000D01*
X139750000Y-123200000D02*
X139250000Y-123200000D01*
X139750000Y-128700000D02*
X139750000Y-123200000D01*
X140640000Y-117590000D02*
X140640000Y-122090000D01*
X140640000Y-122090000D02*
X135750000Y-122090000D01*
X142060000Y-117590000D02*
X140640000Y-117590000D01*
X142060000Y-129310000D02*
X142060000Y-117590000D01*
%TO.C,SW1*%
X102834000Y-89816000D02*
X102834000Y-77516000D01*
X105554000Y-89816000D02*
X102834000Y-89816000D01*
X110554000Y-89816000D02*
X107414000Y-89816000D01*
X115134000Y-89816000D02*
X112414000Y-89816000D01*
X102834000Y-77516000D02*
X105554000Y-77516000D01*
X107414000Y-77516000D02*
X110554000Y-77516000D01*
X112414000Y-77516000D02*
X115134000Y-77516000D01*
X115134000Y-77516000D02*
X115134000Y-89816000D01*
X113603050Y-83566000D02*
G75*
G03*
X113603050Y-83566000I-4579050J0D01*
G01*
%TD*%
M02*
