%TF.GenerationSoftware,KiCad,Pcbnew,7.0.2*%
%TF.CreationDate,2023-09-15T09:46:50+02:00*%
%TF.ProjectId,opendaq_carrier_1.0,6f70656e-6461-4715-9f63-617272696572,rev?*%
%TF.SameCoordinates,Original*%
%TF.FileFunction,Copper,L2,Bot*%
%TF.FilePolarity,Positive*%
%FSLAX46Y46*%
G04 Gerber Fmt 4.6, Leading zero omitted, Abs format (unit mm)*
G04 Created by KiCad (PCBNEW 7.0.2) date 2023-09-15 09:46:50*
%MOMM*%
%LPD*%
G01*
G04 APERTURE LIST*
G04 Aperture macros list*
%AMRoundRect*
0 Rectangle with rounded corners*
0 $1 Rounding radius*
0 $2 $3 $4 $5 $6 $7 $8 $9 X,Y pos of 4 corners*
0 Add a 4 corners polygon primitive as box body*
4,1,4,$2,$3,$4,$5,$6,$7,$8,$9,$2,$3,0*
0 Add four circle primitives for the rounded corners*
1,1,$1+$1,$2,$3*
1,1,$1+$1,$4,$5*
1,1,$1+$1,$6,$7*
1,1,$1+$1,$8,$9*
0 Add four rect primitives between the rounded corners*
20,1,$1+$1,$2,$3,$4,$5,0*
20,1,$1+$1,$4,$5,$6,$7,0*
20,1,$1+$1,$6,$7,$8,$9,0*
20,1,$1+$1,$8,$9,$2,$3,0*%
G04 Aperture macros list end*
%TA.AperFunction,ComponentPad*%
%ADD10O,2.844800X1.422400*%
%TD*%
%TA.AperFunction,ComponentPad*%
%ADD11C,5.600000*%
%TD*%
%TA.AperFunction,ComponentPad*%
%ADD12O,1.850000X3.048000*%
%TD*%
%TA.AperFunction,ComponentPad*%
%ADD13RoundRect,0.250000X-0.600000X-0.725000X0.600000X-0.725000X0.600000X0.725000X-0.600000X0.725000X0*%
%TD*%
%TA.AperFunction,ComponentPad*%
%ADD14O,1.700000X1.950000*%
%TD*%
%TA.AperFunction,ComponentPad*%
%ADD15RoundRect,0.250000X-0.600000X-0.750000X0.600000X-0.750000X0.600000X0.750000X-0.600000X0.750000X0*%
%TD*%
%TA.AperFunction,ComponentPad*%
%ADD16O,1.700000X2.000000*%
%TD*%
%TA.AperFunction,ComponentPad*%
%ADD17C,1.524000*%
%TD*%
%TA.AperFunction,ComponentPad*%
%ADD18R,4.400000X1.800000*%
%TD*%
%TA.AperFunction,ComponentPad*%
%ADD19O,4.000000X1.800000*%
%TD*%
%TA.AperFunction,ComponentPad*%
%ADD20O,1.800000X4.000000*%
%TD*%
%TA.AperFunction,ViaPad*%
%ADD21C,1.500000*%
%TD*%
%TA.AperFunction,Conductor*%
%ADD22C,0.750000*%
%TD*%
%TA.AperFunction,Conductor*%
%ADD23C,0.000000*%
%TD*%
G04 APERTURE END LIST*
D10*
%TO.P,U2,3V3,3.3V*%
%TO.N,Net-(J4-Pin_1)*%
X189200000Y-97790000D03*
%TO.P,U2,EN,EN*%
%TO.N,unconnected-(U2-PadEN)*%
X189200000Y-95250000D03*
%TO.P,U2,GND@1,GND@1*%
%TO.N,unconnected-(U2-PadGND@1)*%
X189200000Y-64770000D03*
%TO.P,U2,GND@2,GND@2*%
%TO.N,GND*%
X166370000Y-97790000D03*
%TO.P,U2,GND@3,GND@3*%
%TO.N,unconnected-(U2-PadGND@3)*%
X166370000Y-82550000D03*
%TO.P,U2,GPIO0,GPIO0*%
%TO.N,unconnected-(U2-PadGPIO0)*%
X166370000Y-64770000D03*
%TO.P,U2,GPIO2,GPIO2*%
%TO.N,unconnected-(U2-PadGPIO2)*%
X166370000Y-62230000D03*
%TO.P,U2,GPIO4,GPIO4*%
%TO.N,unconnected-(U2-PadGPIO4)*%
X166370000Y-67310000D03*
%TO.P,U2,GPIO5,GPIO5*%
%TO.N,unconnected-(U2-PadGPIO5)*%
X166370000Y-74930000D03*
%TO.P,U2,GPIO6,GPIO6*%
%TO.N,unconnected-(U2-PadGPIO6)*%
X166370000Y-52070000D03*
%TO.P,U2,GPIO7,GPIO7*%
%TO.N,unconnected-(U2-PadGPIO7)*%
X166370000Y-54610000D03*
%TO.P,U2,GPIO8,GPIO8*%
%TO.N,unconnected-(U2-PadGPIO8)*%
X166370000Y-57150000D03*
%TO.P,U2,GPIO9,GPIO9*%
%TO.N,unconnected-(U2-PadGPIO9)*%
X189200000Y-59690000D03*
%TO.P,U2,GPIO10,GPIO10*%
%TO.N,unconnected-(U2-PadGPIO10)*%
X189200000Y-57150000D03*
%TO.P,U2,GPIO11,GPIO11*%
%TO.N,unconnected-(U2-PadGPIO11)*%
X189200000Y-54610000D03*
%TO.P,U2,GPIO12,GPIO12*%
%TO.N,unconnected-(U2-PadGPIO12)*%
X189200000Y-67310000D03*
%TO.P,U2,GPIO13,GPIO13*%
%TO.N,unconnected-(U2-PadGPIO13)*%
X189200000Y-62230000D03*
%TO.P,U2,GPIO14,GPIO14*%
%TO.N,unconnected-(U2-PadGPIO14)*%
X189200000Y-69850000D03*
%TO.P,U2,GPIO15,GPIO15*%
%TO.N,unconnected-(U2-PadGPIO15)*%
X166370000Y-59690000D03*
%TO.P,U2,GPIO16,GPIO16*%
%TO.N,TX*%
X166370000Y-69850000D03*
%TO.P,U2,GPIO17,GPIO17*%
%TO.N,RX*%
X166370000Y-72390000D03*
%TO.P,U2,GPIO18,GPIO18*%
%TO.N,unconnected-(U2-PadGPIO18)*%
X166370000Y-77470000D03*
%TO.P,U2,GPIO19,GPIO19*%
%TO.N,unconnected-(U2-PadGPIO19)*%
X166370000Y-80010000D03*
%TO.P,U2,GPIO21,GPIO21*%
%TO.N,Net-(J4-Pin_4)*%
X166370000Y-85090000D03*
%TO.P,U2,GPIO22,GPIO22*%
%TO.N,Net-(J4-Pin_3)*%
X166370000Y-92710000D03*
%TO.P,U2,GPIO23,GPIO23*%
%TO.N,unconnected-(U2-PadGPIO23)*%
X166370000Y-95250000D03*
%TO.P,U2,GPIO25,GPIO25*%
%TO.N,unconnected-(U2-PadGPIO25)*%
X189200000Y-77470000D03*
%TO.P,U2,GPIO26,GPIO26*%
%TO.N,unconnected-(U2-PadGPIO26)*%
X189200000Y-74930000D03*
%TO.P,U2,GPIO27,GPIO27*%
%TO.N,Net-(J4-Pin_5)*%
X189200000Y-72390000D03*
%TO.P,U2,GPIO32,GPIO32*%
%TO.N,unconnected-(U2-PadGPIO32)*%
X189200000Y-82550000D03*
%TO.P,U2,GPIO33,GPIO33*%
%TO.N,unconnected-(U2-PadGPIO33)*%
X189200000Y-80010000D03*
%TO.P,U2,GPIO34,GPIO34*%
%TO.N,unconnected-(U2-PadGPIO34)*%
X189200000Y-87630000D03*
%TO.P,U2,GPIO35,GPIO35*%
%TO.N,unconnected-(U2-PadGPIO35)*%
X189200000Y-85090000D03*
%TO.P,U2,GPIO36,GPIO36*%
%TO.N,unconnected-(U2-PadGPIO36)*%
X189200000Y-92710000D03*
%TO.P,U2,GPIO39,GPIO39*%
%TO.N,unconnected-(U2-PadGPIO39)*%
X189200000Y-90170000D03*
%TO.P,U2,RX0,RX0*%
%TO.N,unconnected-(U2-PadRX0)*%
X166370000Y-87630000D03*
%TO.P,U2,TX0,TX0*%
%TO.N,unconnected-(U2-PadTX0)*%
X166370000Y-90170000D03*
%TO.P,U2,VIN,VIN*%
%TO.N,VIN*%
X189200000Y-52070000D03*
%TD*%
D11*
%TO.P,H1,1*%
%TO.N,N/C*%
X95000000Y-49000000D03*
%TD*%
%TO.P,H3,1*%
%TO.N,N/C*%
X199000000Y-120000000D03*
%TD*%
D10*
%TO.P,U1,3V3,3.3V*%
%TO.N,Net-(J1-Pin_3)*%
X158720000Y-97790000D03*
%TO.P,U1,EN,EN*%
%TO.N,unconnected-(U1-PadEN)*%
X158720000Y-95250000D03*
%TO.P,U1,GND@1,GND@1*%
%TO.N,unconnected-(U1-PadGND@1)*%
X158720000Y-64770000D03*
%TO.P,U1,GND@2,GND@2*%
%TO.N,GND*%
X135890000Y-97790000D03*
%TO.P,U1,GND@3,GND@3*%
%TO.N,unconnected-(U1-PadGND@3)*%
X135890000Y-82550000D03*
%TO.P,U1,GPIO0,GPIO0*%
%TO.N,unconnected-(U1-PadGPIO0)*%
X135890000Y-64770000D03*
%TO.P,U1,GPIO2,GPIO2*%
%TO.N,unconnected-(U1-PadGPIO2)*%
X135890000Y-62230000D03*
%TO.P,U1,GPIO4,GPIO4*%
%TO.N,unconnected-(U1-PadGPIO4)*%
X135890000Y-67310000D03*
%TO.P,U1,GPIO5,GPIO5*%
%TO.N,unconnected-(U1-PadGPIO5)*%
X135890000Y-74930000D03*
%TO.P,U1,GPIO6,GPIO6*%
%TO.N,unconnected-(U1-PadGPIO6)*%
X135890000Y-52070000D03*
%TO.P,U1,GPIO7,GPIO7*%
%TO.N,unconnected-(U1-PadGPIO7)*%
X135890000Y-54610000D03*
%TO.P,U1,GPIO8,GPIO8*%
%TO.N,unconnected-(U1-PadGPIO8)*%
X135890000Y-57150000D03*
%TO.P,U1,GPIO9,GPIO9*%
%TO.N,unconnected-(U1-PadGPIO9)*%
X158720000Y-59690000D03*
%TO.P,U1,GPIO10,GPIO10*%
%TO.N,unconnected-(U1-PadGPIO10)*%
X158720000Y-57150000D03*
%TO.P,U1,GPIO11,GPIO11*%
%TO.N,unconnected-(U1-PadGPIO11)*%
X158720000Y-54610000D03*
%TO.P,U1,GPIO12,GPIO12*%
%TO.N,unconnected-(U1-PadGPIO12)*%
X158720000Y-67310000D03*
%TO.P,U1,GPIO13,GPIO13*%
%TO.N,unconnected-(U1-PadGPIO13)*%
X158720000Y-62230000D03*
%TO.P,U1,GPIO14,GPIO14*%
%TO.N,unconnected-(U1-PadGPIO14)*%
X158720000Y-69850000D03*
%TO.P,U1,GPIO15,GPIO15*%
%TO.N,unconnected-(U1-PadGPIO15)*%
X135890000Y-59690000D03*
%TO.P,U1,GPIO16,GPIO16*%
%TO.N,RX*%
X135890000Y-69850000D03*
%TO.P,U1,GPIO17,GPIO17*%
%TO.N,TX*%
X135890000Y-72390000D03*
%TO.P,U1,GPIO18,GPIO18*%
%TO.N,Net-(SW2-Pad1)*%
X135890000Y-77470000D03*
%TO.P,U1,GPIO19,GPIO19*%
%TO.N,Net-(SW1-Pad1)*%
X135890000Y-80010000D03*
%TO.P,U1,GPIO21,GPIO21*%
%TO.N,Net-(J3-Pin_4)*%
X135890000Y-85090000D03*
%TO.P,U1,GPIO22,GPIO22*%
%TO.N,Net-(J3-Pin_3)*%
X135890000Y-92710000D03*
%TO.P,U1,GPIO23,GPIO23*%
%TO.N,unconnected-(U1-PadGPIO23)*%
X135890000Y-95250000D03*
%TO.P,U1,GPIO25,GPIO25*%
%TO.N,unconnected-(U1-PadGPIO25)*%
X158720000Y-77470000D03*
%TO.P,U1,GPIO26,GPIO26*%
%TO.N,unconnected-(U1-PadGPIO26)*%
X158720000Y-74930000D03*
%TO.P,U1,GPIO27,GPIO27*%
%TO.N,unconnected-(U1-PadGPIO27)*%
X158720000Y-72390000D03*
%TO.P,U1,GPIO32,GPIO32*%
%TO.N,Net-(J5-Pin_2)*%
X158720000Y-82550000D03*
%TO.P,U1,GPIO33,GPIO33*%
%TO.N,Net-(J5-Pin_1)*%
X158720000Y-80010000D03*
%TO.P,U1,GPIO34,GPIO34*%
%TO.N,Net-(J5-Pin_4)*%
X158720000Y-87630000D03*
%TO.P,U1,GPIO35,GPIO35*%
%TO.N,Net-(J5-Pin_3)*%
X158720000Y-85090000D03*
%TO.P,U1,GPIO36,GPIO36*%
%TO.N,Net-(J1-Pin_1)*%
X158720000Y-92710000D03*
%TO.P,U1,GPIO39,GPIO39*%
%TO.N,unconnected-(U1-PadGPIO39)*%
X158720000Y-90170000D03*
%TO.P,U1,RX0,RX0*%
%TO.N,unconnected-(U1-PadRX0)*%
X135890000Y-87630000D03*
%TO.P,U1,TX0,TX0*%
%TO.N,unconnected-(U1-PadTX0)*%
X135890000Y-90170000D03*
%TO.P,U1,VIN,VIN*%
%TO.N,VIN*%
X158720000Y-52070000D03*
%TD*%
D12*
%TO.P,SW2,1,1*%
%TO.N,Net-(SW2-Pad1)*%
X120984000Y-89916000D03*
X120984000Y-77416000D03*
%TO.P,SW2,2,2*%
%TO.N,GND*%
X125984000Y-89916000D03*
X125984000Y-77416000D03*
%TD*%
D13*
%TO.P,J1,1,Pin_1*%
%TO.N,Net-(J1-Pin_1)*%
X167000000Y-120000000D03*
D14*
%TO.P,J1,2,Pin_2*%
%TO.N,GND*%
X169500000Y-120000000D03*
%TO.P,J1,3,Pin_3*%
%TO.N,Net-(J1-Pin_3)*%
X172000000Y-120000000D03*
%TD*%
D15*
%TO.P,J6,1,Pin_1*%
%TO.N,Net-(J6-Pin_1)*%
X118000000Y-116500000D03*
D16*
%TO.P,J6,2,Pin_2*%
%TO.N,Net-(J6-Pin_2)*%
X120500000Y-116500000D03*
%TD*%
D13*
%TO.P,J4,1,Pin_1*%
%TO.N,Net-(J4-Pin_1)*%
X179500000Y-120000000D03*
D14*
%TO.P,J4,2,Pin_2*%
%TO.N,GND*%
X182000000Y-120000000D03*
%TO.P,J4,3,Pin_3*%
%TO.N,Net-(J4-Pin_3)*%
X184500000Y-120000000D03*
%TO.P,J4,4,Pin_4*%
%TO.N,Net-(J4-Pin_4)*%
X187000000Y-120000000D03*
%TO.P,J4,5,Pin_5*%
%TO.N,Net-(J4-Pin_5)*%
X189500000Y-120000000D03*
%TD*%
D11*
%TO.P,H2,1*%
%TO.N,N/C*%
X95000000Y-120000000D03*
%TD*%
%TO.P,H4,1*%
%TO.N,N/C*%
X199000000Y-49000000D03*
%TD*%
D17*
%TO.P,U5,1,GND*%
%TO.N,GND*%
X112174000Y-50546000D03*
%TO.P,U5,2,Vcc*%
%TO.N,VIN*%
X114714000Y-50546000D03*
%TO.P,U5,3,SCL*%
%TO.N,Net-(J3-Pin_3)*%
X117254000Y-50546000D03*
%TO.P,U5,4,SDA*%
%TO.N,Net-(J3-Pin_4)*%
X119794000Y-50546000D03*
%TD*%
D14*
%TO.P,J5,6,Pin_6*%
%TO.N,VIN*%
X159500000Y-120000000D03*
%TO.P,J5,5,Pin_5*%
%TO.N,GND*%
X157000000Y-120000000D03*
%TO.P,J5,4,Pin_4*%
%TO.N,Net-(J5-Pin_4)*%
X154500000Y-120000000D03*
%TO.P,J5,3,Pin_3*%
%TO.N,Net-(J5-Pin_3)*%
X152000000Y-120000000D03*
%TO.P,J5,2,Pin_2*%
%TO.N,Net-(J5-Pin_2)*%
X149500000Y-120000000D03*
D13*
%TO.P,J5,1,Pin_1*%
%TO.N,Net-(J5-Pin_1)*%
X147000000Y-120000000D03*
%TD*%
%TO.P,J3,1,Pin_1*%
%TO.N,Net-(J1-Pin_3)*%
X132000000Y-120000000D03*
D14*
%TO.P,J3,2,Pin_2*%
%TO.N,GND*%
X134500000Y-120000000D03*
%TO.P,J3,3,Pin_3*%
%TO.N,Net-(J3-Pin_3)*%
X137000000Y-120000000D03*
%TO.P,J3,4,Pin_4*%
%TO.N,Net-(J3-Pin_4)*%
X139500000Y-120000000D03*
%TD*%
D12*
%TO.P,SW1,1,1*%
%TO.N,Net-(SW1-Pad1)*%
X106484000Y-89916000D03*
X106484000Y-77416000D03*
%TO.P,SW1,2,2*%
%TO.N,GND*%
X111484000Y-89916000D03*
X111484000Y-77416000D03*
%TD*%
D18*
%TO.P,J2,1*%
%TO.N,Net-(J6-Pin_1)*%
X106000000Y-115500000D03*
D19*
%TO.P,J2,2*%
%TO.N,GND*%
X106000000Y-121300000D03*
D20*
%TO.P,J2,3*%
%TO.N,unconnected-(J2-Pad3)*%
X101200000Y-118500000D03*
%TD*%
D21*
%TO.N,GND*%
X127000000Y-108966000D03*
X105410000Y-109220000D03*
%TO.N,VIN*%
X132588000Y-96012000D03*
%TD*%
D22*
%TO.N,VIN*%
X158000000Y-49784000D02*
X158720000Y-50504000D01*
X158000000Y-49784000D02*
X158996000Y-49784000D01*
X158720000Y-50504000D02*
X158720000Y-52070000D01*
X134874000Y-49784000D02*
X158000000Y-49784000D01*
X187579000Y-49784000D02*
X189865000Y-52070000D01*
X158996000Y-49784000D02*
X159000000Y-49788000D01*
X159000000Y-49788000D02*
X159004000Y-49784000D01*
X159004000Y-49784000D02*
X187579000Y-49784000D01*
X133604000Y-51054000D02*
X134874000Y-49784000D01*
D23*
%TO.N,GND*%
X103124000Y-109220000D02*
X105410000Y-109220000D01*
D22*
%TO.N,VIN*%
X132588000Y-96012000D02*
X132588000Y-101600000D01*
X132588000Y-52070000D02*
X133604000Y-51054000D01*
X146558000Y-104394000D02*
X159500000Y-117336000D01*
X135382000Y-104394000D02*
X146558000Y-104394000D01*
X132334000Y-52324000D02*
X133604000Y-51054000D01*
X114714000Y-50546000D02*
X116492000Y-52324000D01*
X159500000Y-117336000D02*
X159500000Y-120000000D01*
X116492000Y-52324000D02*
X132334000Y-52324000D01*
X132588000Y-101600000D02*
X135382000Y-104394000D01*
X189738000Y-51943000D02*
X189738000Y-52070000D01*
X132588000Y-96012000D02*
X132588000Y-52070000D01*
%TD*%
%TA.AperFunction,Conductor*%
%TO.N,GND*%
G36*
X197203785Y-46020185D02*
G01*
X197249540Y-46072989D01*
X197259484Y-46142147D01*
X197230459Y-46205703D01*
X197200675Y-46230750D01*
X197147958Y-46262468D01*
X197147945Y-46262476D01*
X197145081Y-46264200D01*
X197142423Y-46266220D01*
X197142412Y-46266228D01*
X196862822Y-46478767D01*
X196862814Y-46478773D01*
X196860163Y-46480789D01*
X196857739Y-46483084D01*
X196857732Y-46483091D01*
X196602769Y-46724604D01*
X196602754Y-46724619D01*
X196600332Y-46726914D01*
X196598169Y-46729459D01*
X196598158Y-46729472D01*
X196370808Y-46997130D01*
X196370802Y-46997137D01*
X196368635Y-46999689D01*
X196366755Y-47002461D01*
X196366748Y-47002471D01*
X196169679Y-47293126D01*
X196169671Y-47293138D01*
X196167789Y-47295915D01*
X196166214Y-47298885D01*
X196166212Y-47298889D01*
X196001722Y-47609148D01*
X196001717Y-47609157D01*
X196000147Y-47612120D01*
X195998906Y-47615232D01*
X195998902Y-47615243D01*
X195868924Y-47941464D01*
X195867676Y-47944597D01*
X195771929Y-48289448D01*
X195771388Y-48292747D01*
X195771384Y-48292766D01*
X195714573Y-48639302D01*
X195714028Y-48642629D01*
X195713846Y-48645979D01*
X195713845Y-48645992D01*
X195696964Y-48957358D01*
X195694652Y-49000000D01*
X195694834Y-49003356D01*
X195713845Y-49354007D01*
X195713846Y-49354018D01*
X195714028Y-49357371D01*
X195714572Y-49360692D01*
X195714573Y-49360697D01*
X195771384Y-49707233D01*
X195771387Y-49707248D01*
X195771929Y-49710552D01*
X195772827Y-49713789D01*
X195772828Y-49713790D01*
X195863729Y-50041189D01*
X195867676Y-50055403D01*
X195868924Y-50058535D01*
X195992066Y-50367600D01*
X196000147Y-50387880D01*
X196167789Y-50704085D01*
X196169676Y-50706868D01*
X196169679Y-50706873D01*
X196366748Y-50997528D01*
X196368635Y-51000311D01*
X196370808Y-51002869D01*
X196563101Y-51229255D01*
X196600332Y-51273086D01*
X196602763Y-51275389D01*
X196602769Y-51275395D01*
X196720959Y-51387350D01*
X196860163Y-51519211D01*
X197145081Y-51735800D01*
X197451747Y-51920315D01*
X197776565Y-52070591D01*
X198115726Y-52184868D01*
X198465254Y-52261805D01*
X198821052Y-52300500D01*
X198824410Y-52300500D01*
X199175590Y-52300500D01*
X199178948Y-52300500D01*
X199534746Y-52261805D01*
X199884274Y-52184868D01*
X200223435Y-52070591D01*
X200548253Y-51920315D01*
X200854919Y-51735800D01*
X201139837Y-51519211D01*
X201399668Y-51273086D01*
X201631365Y-51000311D01*
X201703369Y-50894112D01*
X201757280Y-50849674D01*
X201826663Y-50841436D01*
X201889485Y-50872016D01*
X201925801Y-50931706D01*
X201930000Y-50963702D01*
X201930000Y-118036297D01*
X201910315Y-118103336D01*
X201857511Y-118149091D01*
X201788353Y-118159035D01*
X201724797Y-118130010D01*
X201703367Y-118105884D01*
X201633251Y-118002471D01*
X201631365Y-117999689D01*
X201399668Y-117726914D01*
X201397235Y-117724609D01*
X201397230Y-117724604D01*
X201142267Y-117483091D01*
X201139837Y-117480789D01*
X200854919Y-117264200D01*
X200852045Y-117262471D01*
X200852041Y-117262468D01*
X200551135Y-117081419D01*
X200551134Y-117081418D01*
X200548253Y-117079685D01*
X200545197Y-117078271D01*
X200226490Y-116930822D01*
X200226483Y-116930819D01*
X200223435Y-116929409D01*
X200092842Y-116885407D01*
X199887457Y-116816204D01*
X199887448Y-116816201D01*
X199884274Y-116815132D01*
X199881006Y-116814412D01*
X199880993Y-116814409D01*
X199538033Y-116738918D01*
X199538023Y-116738916D01*
X199534746Y-116738195D01*
X199265987Y-116708966D01*
X199182286Y-116699863D01*
X199182285Y-116699862D01*
X199178948Y-116699500D01*
X198821052Y-116699500D01*
X198817715Y-116699862D01*
X198817713Y-116699863D01*
X198468600Y-116737831D01*
X198468598Y-116737831D01*
X198465254Y-116738195D01*
X198461979Y-116738915D01*
X198461966Y-116738918D01*
X198119006Y-116814409D01*
X198118988Y-116814413D01*
X198115726Y-116815132D01*
X198112555Y-116816200D01*
X198112542Y-116816204D01*
X197779752Y-116928335D01*
X197779749Y-116928336D01*
X197776565Y-116929409D01*
X197773522Y-116930816D01*
X197773509Y-116930822D01*
X197454802Y-117078271D01*
X197454792Y-117078275D01*
X197451747Y-117079685D01*
X197448873Y-117081414D01*
X197448864Y-117081419D01*
X197147958Y-117262468D01*
X197147945Y-117262476D01*
X197145081Y-117264200D01*
X197142423Y-117266220D01*
X197142412Y-117266228D01*
X196862822Y-117478767D01*
X196862814Y-117478773D01*
X196860163Y-117480789D01*
X196857739Y-117483084D01*
X196857732Y-117483091D01*
X196602769Y-117724604D01*
X196602754Y-117724619D01*
X196600332Y-117726914D01*
X196598169Y-117729459D01*
X196598158Y-117729472D01*
X196370808Y-117997130D01*
X196370802Y-117997137D01*
X196368635Y-117999689D01*
X196366755Y-118002461D01*
X196366748Y-118002471D01*
X196169679Y-118293126D01*
X196169671Y-118293138D01*
X196167789Y-118295915D01*
X196166214Y-118298885D01*
X196166212Y-118298889D01*
X196001722Y-118609148D01*
X196001717Y-118609157D01*
X196000147Y-118612120D01*
X195998906Y-118615232D01*
X195998902Y-118615243D01*
X195868924Y-118941464D01*
X195867676Y-118944597D01*
X195866775Y-118947841D01*
X195866773Y-118947848D01*
X195790695Y-119221858D01*
X195771929Y-119289448D01*
X195771388Y-119292747D01*
X195771384Y-119292766D01*
X195751946Y-119411337D01*
X195714028Y-119642629D01*
X195713846Y-119645979D01*
X195713845Y-119645992D01*
X195698355Y-119931705D01*
X195694652Y-120000000D01*
X195694834Y-120003356D01*
X195713845Y-120354007D01*
X195713846Y-120354018D01*
X195714028Y-120357371D01*
X195714572Y-120360692D01*
X195714573Y-120360697D01*
X195771384Y-120707233D01*
X195771387Y-120707248D01*
X195771929Y-120710552D01*
X195772827Y-120713789D01*
X195772828Y-120713790D01*
X195862966Y-121038441D01*
X195867676Y-121055403D01*
X195868924Y-121058535D01*
X195972189Y-121317712D01*
X196000147Y-121387880D01*
X196001721Y-121390849D01*
X196001722Y-121390851D01*
X196036068Y-121455634D01*
X196167789Y-121704085D01*
X196169676Y-121706868D01*
X196169679Y-121706873D01*
X196249016Y-121823886D01*
X196368635Y-122000311D01*
X196600332Y-122273086D01*
X196602763Y-122275389D01*
X196602769Y-122275395D01*
X196643940Y-122314394D01*
X196860163Y-122519211D01*
X197078059Y-122684851D01*
X197115462Y-122713284D01*
X197156919Y-122769526D01*
X197161388Y-122839252D01*
X197127451Y-122900326D01*
X197065883Y-122933358D01*
X197040420Y-122936000D01*
X107305725Y-122936000D01*
X107238686Y-122916315D01*
X107192931Y-122863511D01*
X107182987Y-122794353D01*
X107212012Y-122730797D01*
X107270790Y-122693023D01*
X107295209Y-122688447D01*
X107337455Y-122684851D01*
X107568083Y-122624801D01*
X107785241Y-122526639D01*
X107982687Y-122393188D01*
X108154741Y-122228288D01*
X108296450Y-122036684D01*
X108403741Y-121823886D01*
X108473525Y-121596017D01*
X108479418Y-121550000D01*
X107415686Y-121550000D01*
X107427641Y-121538045D01*
X107485165Y-121425148D01*
X107504986Y-121300000D01*
X107485165Y-121174852D01*
X107427641Y-121061955D01*
X107415686Y-121050000D01*
X108478266Y-121050000D01*
X108478265Y-121049999D01*
X108443473Y-120888565D01*
X108396584Y-120771878D01*
X130649500Y-120771878D01*
X130649501Y-120775008D01*
X130649820Y-120778140D01*
X130649821Y-120778141D01*
X130660000Y-120877796D01*
X130715186Y-121044334D01*
X130807288Y-121193657D01*
X130931342Y-121317711D01*
X130931344Y-121317712D01*
X131080666Y-121409814D01*
X131192017Y-121446712D01*
X131247202Y-121464999D01*
X131346858Y-121475180D01*
X131346859Y-121475180D01*
X131349991Y-121475500D01*
X132650008Y-121475499D01*
X132752797Y-121464999D01*
X132919334Y-121409814D01*
X133068656Y-121317712D01*
X133192712Y-121193656D01*
X133284814Y-121044334D01*
X133284814Y-121044331D01*
X133288448Y-121038441D01*
X133340395Y-120991716D01*
X133409358Y-120980493D01*
X133473440Y-121008336D01*
X133481668Y-121015856D01*
X133628918Y-121163106D01*
X133822423Y-121298600D01*
X134036509Y-121398430D01*
X134250000Y-121455634D01*
X134250000Y-120408018D01*
X134364801Y-120460446D01*
X134466025Y-120475000D01*
X134533975Y-120475000D01*
X134635199Y-120460446D01*
X134750000Y-120408018D01*
X134750000Y-121455633D01*
X134963490Y-121398430D01*
X135177578Y-121298599D01*
X135371078Y-121163109D01*
X135538109Y-120996078D01*
X135648119Y-120838968D01*
X135702696Y-120795343D01*
X135772194Y-120788149D01*
X135834549Y-120819672D01*
X135851268Y-120838966D01*
X135961505Y-120996401D01*
X136128599Y-121163495D01*
X136322170Y-121299035D01*
X136536337Y-121398903D01*
X136764592Y-121460063D01*
X137000000Y-121480659D01*
X137235408Y-121460063D01*
X137463663Y-121398903D01*
X137677829Y-121299035D01*
X137871401Y-121163495D01*
X138038495Y-120996401D01*
X138148426Y-120839401D01*
X138203002Y-120795778D01*
X138272500Y-120788584D01*
X138334855Y-120820107D01*
X138351571Y-120839398D01*
X138461505Y-120996401D01*
X138628599Y-121163495D01*
X138822170Y-121299035D01*
X139036337Y-121398903D01*
X139264592Y-121460063D01*
X139500000Y-121480659D01*
X139735408Y-121460063D01*
X139963663Y-121398903D01*
X140177829Y-121299035D01*
X140371401Y-121163495D01*
X140538495Y-120996401D01*
X140674035Y-120802829D01*
X140773903Y-120588663D01*
X140835063Y-120360408D01*
X140850500Y-120183966D01*
X140850500Y-119816034D01*
X140835063Y-119639592D01*
X140773903Y-119411337D01*
X140674035Y-119197171D01*
X140538495Y-119003599D01*
X140371401Y-118836505D01*
X140177830Y-118700965D01*
X139963663Y-118601097D01*
X139902501Y-118584709D01*
X139735407Y-118539936D01*
X139500000Y-118519340D01*
X139264592Y-118539936D01*
X139036336Y-118601097D01*
X138822170Y-118700965D01*
X138628598Y-118836505D01*
X138461505Y-119003598D01*
X138351575Y-119160596D01*
X138296998Y-119204221D01*
X138227500Y-119211415D01*
X138165145Y-119179892D01*
X138148425Y-119160596D01*
X138044828Y-119012644D01*
X138038495Y-119003599D01*
X137871401Y-118836505D01*
X137677830Y-118700965D01*
X137463663Y-118601097D01*
X137402502Y-118584709D01*
X137235407Y-118539936D01*
X137000000Y-118519340D01*
X136764592Y-118539936D01*
X136536336Y-118601097D01*
X136322170Y-118700965D01*
X136128598Y-118836505D01*
X135961508Y-119003595D01*
X135961505Y-119003598D01*
X135961505Y-119003599D01*
X135955172Y-119012644D01*
X135851269Y-119161033D01*
X135796692Y-119204657D01*
X135727193Y-119211850D01*
X135664839Y-119180328D01*
X135648119Y-119161032D01*
X135538109Y-119003921D01*
X135371081Y-118836893D01*
X135177576Y-118701399D01*
X134963492Y-118601569D01*
X134750000Y-118544364D01*
X134750000Y-119591981D01*
X134635199Y-119539554D01*
X134533975Y-119525000D01*
X134466025Y-119525000D01*
X134364801Y-119539554D01*
X134250000Y-119591981D01*
X134250000Y-118544364D01*
X134249999Y-118544364D01*
X134036507Y-118601569D01*
X133822421Y-118701400D01*
X133628924Y-118836888D01*
X133481668Y-118984144D01*
X133420345Y-119017628D01*
X133350653Y-119012644D01*
X133294720Y-118970772D01*
X133288448Y-118961558D01*
X133277986Y-118944597D01*
X133192712Y-118806344D01*
X133192711Y-118806342D01*
X133068657Y-118682288D01*
X132919334Y-118590186D01*
X132752797Y-118535000D01*
X132653141Y-118524819D01*
X132653122Y-118524818D01*
X132650009Y-118524500D01*
X132646860Y-118524500D01*
X131353140Y-118524500D01*
X131353120Y-118524500D01*
X131349992Y-118524501D01*
X131346860Y-118524820D01*
X131346858Y-118524821D01*
X131247203Y-118535000D01*
X131080665Y-118590186D01*
X130931342Y-118682288D01*
X130807288Y-118806342D01*
X130715186Y-118955665D01*
X130660000Y-119122202D01*
X130649819Y-119221858D01*
X130649817Y-119221878D01*
X130649500Y-119224991D01*
X130649500Y-119228138D01*
X130649500Y-119228139D01*
X130649500Y-120771859D01*
X130649500Y-120771878D01*
X108396584Y-120771878D01*
X108354616Y-120667437D01*
X108229664Y-120464502D01*
X108072215Y-120285605D01*
X107886800Y-120135893D01*
X107678749Y-120019667D01*
X107454042Y-119940273D01*
X107219160Y-119900000D01*
X106250000Y-119900000D01*
X106250000Y-120900000D01*
X105750000Y-120900000D01*
X105750000Y-119900000D01*
X104843158Y-119900000D01*
X104837902Y-119900223D01*
X104662544Y-119915148D01*
X104431916Y-119975198D01*
X104214758Y-120073360D01*
X104017312Y-120206811D01*
X103845258Y-120371711D01*
X103703549Y-120563315D01*
X103596258Y-120776113D01*
X103526474Y-121003982D01*
X103520582Y-121050000D01*
X104584314Y-121050000D01*
X104572359Y-121061955D01*
X104514835Y-121174852D01*
X104495014Y-121300000D01*
X104514835Y-121425148D01*
X104572359Y-121538045D01*
X104584314Y-121550000D01*
X103521734Y-121550000D01*
X103556526Y-121711434D01*
X103645383Y-121932562D01*
X103770335Y-122135497D01*
X103927784Y-122314394D01*
X104113199Y-122464106D01*
X104321250Y-122580332D01*
X104545957Y-122659726D01*
X104721259Y-122689784D01*
X104784007Y-122720515D01*
X104820180Y-122780292D01*
X104818293Y-122850136D01*
X104778945Y-122907872D01*
X104714628Y-122935170D01*
X104700303Y-122936000D01*
X96959580Y-122936000D01*
X96892541Y-122916315D01*
X96846786Y-122863511D01*
X96836842Y-122794353D01*
X96865867Y-122730797D01*
X96884538Y-122713284D01*
X96915452Y-122689784D01*
X97139837Y-122519211D01*
X97399668Y-122273086D01*
X97631365Y-122000311D01*
X97832211Y-121704085D01*
X97999853Y-121387880D01*
X98132324Y-121055403D01*
X98228071Y-120710552D01*
X98285972Y-120357371D01*
X98305348Y-120000000D01*
X98285972Y-119642629D01*
X98228071Y-119289448D01*
X98132324Y-118944597D01*
X97999853Y-118612120D01*
X97832211Y-118295915D01*
X97631365Y-117999689D01*
X97399668Y-117726914D01*
X97397235Y-117724609D01*
X97397230Y-117724604D01*
X97142267Y-117483091D01*
X97139837Y-117480789D01*
X96876752Y-117280797D01*
X99799499Y-117280797D01*
X99799500Y-118519340D01*
X99799500Y-119659497D01*
X99799722Y-119662113D01*
X99799723Y-119662121D01*
X99814653Y-119837539D01*
X99874724Y-120068250D01*
X99972922Y-120285485D01*
X100093917Y-120464502D01*
X100106421Y-120483003D01*
X100271379Y-120655118D01*
X100463053Y-120796879D01*
X100675926Y-120904207D01*
X100903877Y-120974016D01*
X101140346Y-121004298D01*
X101378532Y-120994180D01*
X101611581Y-120943954D01*
X101832790Y-120855064D01*
X102035795Y-120730069D01*
X102214755Y-120572564D01*
X102364523Y-120387080D01*
X102480790Y-120178954D01*
X102560211Y-119954171D01*
X102564064Y-119931705D01*
X102600500Y-119719202D01*
X102600500Y-117343134D01*
X102600500Y-117340503D01*
X102596787Y-117296878D01*
X116649500Y-117296878D01*
X116649501Y-117300008D01*
X116649820Y-117303140D01*
X116649821Y-117303141D01*
X116660000Y-117402796D01*
X116715186Y-117569334D01*
X116807288Y-117718657D01*
X116931342Y-117842711D01*
X116931344Y-117842712D01*
X117080666Y-117934814D01*
X117192016Y-117971712D01*
X117247202Y-117989999D01*
X117346858Y-118000180D01*
X117346859Y-118000180D01*
X117349991Y-118000500D01*
X118650008Y-118000499D01*
X118752797Y-117989999D01*
X118919334Y-117934814D01*
X119068656Y-117842712D01*
X119192712Y-117718656D01*
X119284814Y-117569334D01*
X119284814Y-117569331D01*
X119288178Y-117563879D01*
X119340125Y-117517154D01*
X119409088Y-117505931D01*
X119473170Y-117533774D01*
X119481398Y-117541294D01*
X119628599Y-117688495D01*
X119822170Y-117824035D01*
X120036337Y-117923903D01*
X120264592Y-117985063D01*
X120500000Y-118005659D01*
X120735408Y-117985063D01*
X120963663Y-117923903D01*
X121177829Y-117824035D01*
X121371401Y-117688495D01*
X121538495Y-117521401D01*
X121674035Y-117327829D01*
X121773903Y-117113663D01*
X121835063Y-116885408D01*
X121850500Y-116708966D01*
X121850500Y-116291034D01*
X121835063Y-116114592D01*
X121773903Y-115886337D01*
X121674035Y-115672171D01*
X121538495Y-115478599D01*
X121371401Y-115311505D01*
X121177830Y-115175965D01*
X120963663Y-115076097D01*
X120902502Y-115059709D01*
X120735407Y-115014936D01*
X120500000Y-114994340D01*
X120264592Y-115014936D01*
X120036336Y-115076097D01*
X119822170Y-115175965D01*
X119628601Y-115311503D01*
X119481398Y-115458706D01*
X119420075Y-115492190D01*
X119350383Y-115487206D01*
X119294450Y-115445334D01*
X119288178Y-115436120D01*
X119192711Y-115281342D01*
X119068657Y-115157288D01*
X118919334Y-115065186D01*
X118752797Y-115010000D01*
X118653141Y-114999819D01*
X118653122Y-114999818D01*
X118650009Y-114999500D01*
X118646860Y-114999500D01*
X117353140Y-114999500D01*
X117353120Y-114999500D01*
X117349992Y-114999501D01*
X117346860Y-114999820D01*
X117346858Y-114999821D01*
X117247203Y-115010000D01*
X117080665Y-115065186D01*
X116931342Y-115157288D01*
X116807288Y-115281342D01*
X116715186Y-115430665D01*
X116660000Y-115597202D01*
X116649819Y-115696858D01*
X116649817Y-115696878D01*
X116649500Y-115699991D01*
X116649500Y-115703138D01*
X116649500Y-115703139D01*
X116649500Y-117296859D01*
X116649500Y-117296878D01*
X102596787Y-117296878D01*
X102585346Y-117162459D01*
X102563425Y-117078271D01*
X102525275Y-116931749D01*
X102427077Y-116714514D01*
X102293579Y-116516997D01*
X102224171Y-116444578D01*
X103299500Y-116444578D01*
X103299501Y-116447872D01*
X103305909Y-116507483D01*
X103356204Y-116642331D01*
X103442454Y-116757546D01*
X103557669Y-116843796D01*
X103692517Y-116894091D01*
X103752127Y-116900500D01*
X108247872Y-116900499D01*
X108307483Y-116894091D01*
X108442331Y-116843796D01*
X108557546Y-116757546D01*
X108643796Y-116642331D01*
X108694091Y-116507483D01*
X108700500Y-116447873D01*
X108700499Y-114552128D01*
X108694091Y-114492517D01*
X108643796Y-114357669D01*
X108557546Y-114242454D01*
X108442331Y-114156204D01*
X108307483Y-114105909D01*
X108247873Y-114099500D01*
X108244550Y-114099500D01*
X103755439Y-114099500D01*
X103755420Y-114099500D01*
X103752128Y-114099501D01*
X103748848Y-114099853D01*
X103748840Y-114099854D01*
X103692515Y-114105909D01*
X103557669Y-114156204D01*
X103442454Y-114242454D01*
X103356204Y-114357668D01*
X103305910Y-114492515D01*
X103305909Y-114492517D01*
X103299500Y-114552127D01*
X103299500Y-114555448D01*
X103299500Y-114555449D01*
X103299500Y-116444560D01*
X103299500Y-116444578D01*
X102224171Y-116444578D01*
X102128620Y-116344881D01*
X101936947Y-116203121D01*
X101724074Y-116095793D01*
X101496123Y-116025984D01*
X101496122Y-116025984D01*
X101259654Y-115995702D01*
X101259650Y-115995702D01*
X101259649Y-115995702D01*
X101021470Y-116005819D01*
X100788418Y-116056046D01*
X100567211Y-116144935D01*
X100364203Y-116269932D01*
X100185243Y-116427437D01*
X100035480Y-116612914D01*
X99919208Y-116821048D01*
X99839787Y-117045831D01*
X99799499Y-117280797D01*
X96876752Y-117280797D01*
X96854919Y-117264200D01*
X96852045Y-117262471D01*
X96852041Y-117262468D01*
X96551135Y-117081419D01*
X96551134Y-117081418D01*
X96548253Y-117079685D01*
X96545197Y-117078271D01*
X96226490Y-116930822D01*
X96226483Y-116930819D01*
X96223435Y-116929409D01*
X96092842Y-116885407D01*
X95887457Y-116816204D01*
X95887448Y-116816201D01*
X95884274Y-116815132D01*
X95881006Y-116814412D01*
X95880993Y-116814409D01*
X95538033Y-116738918D01*
X95538023Y-116738916D01*
X95534746Y-116738195D01*
X95265987Y-116708966D01*
X95182286Y-116699863D01*
X95182285Y-116699862D01*
X95178948Y-116699500D01*
X94821052Y-116699500D01*
X94817715Y-116699862D01*
X94817713Y-116699863D01*
X94468600Y-116737831D01*
X94468598Y-116737831D01*
X94465254Y-116738195D01*
X94461979Y-116738915D01*
X94461966Y-116738918D01*
X94119006Y-116814409D01*
X94118988Y-116814413D01*
X94115726Y-116815132D01*
X94112555Y-116816200D01*
X94112542Y-116816204D01*
X93779752Y-116928335D01*
X93779749Y-116928336D01*
X93776565Y-116929409D01*
X93773522Y-116930816D01*
X93773509Y-116930822D01*
X93454802Y-117078271D01*
X93454792Y-117078275D01*
X93451747Y-117079685D01*
X93448873Y-117081414D01*
X93448864Y-117081419D01*
X93147958Y-117262468D01*
X93147945Y-117262476D01*
X93145081Y-117264200D01*
X93142423Y-117266220D01*
X93142412Y-117266228D01*
X92862822Y-117478767D01*
X92862814Y-117478773D01*
X92860163Y-117480789D01*
X92857739Y-117483084D01*
X92857732Y-117483091D01*
X92602769Y-117724604D01*
X92602754Y-117724619D01*
X92600332Y-117726914D01*
X92598169Y-117729459D01*
X92598158Y-117729472D01*
X92370808Y-117997130D01*
X92370802Y-117997137D01*
X92368635Y-117999689D01*
X92366755Y-118002461D01*
X92366748Y-118002471D01*
X92227133Y-118208389D01*
X92173219Y-118252830D01*
X92103837Y-118261068D01*
X92041015Y-118230488D01*
X92004699Y-118170797D01*
X92000500Y-118138802D01*
X92000500Y-89195669D01*
X105058499Y-89195669D01*
X105058500Y-89899279D01*
X105058500Y-90575554D01*
X105058722Y-90578158D01*
X105058723Y-90578178D01*
X105073924Y-90756780D01*
X105135068Y-90991609D01*
X105235018Y-91212722D01*
X105349228Y-91381700D01*
X105370900Y-91413765D01*
X105538803Y-91588952D01*
X105733898Y-91733244D01*
X105950571Y-91842488D01*
X106182591Y-91913543D01*
X106423281Y-91944365D01*
X106665719Y-91934066D01*
X106902928Y-91882944D01*
X107128086Y-91792468D01*
X107334714Y-91665242D01*
X107516869Y-91504925D01*
X107669311Y-91316130D01*
X107787653Y-91104288D01*
X107868491Y-90875493D01*
X107868514Y-90875364D01*
X107909500Y-90636330D01*
X107909500Y-89259077D01*
X107909500Y-89256446D01*
X107904331Y-89195712D01*
X110058999Y-89195712D01*
X110059000Y-89666000D01*
X110883272Y-89666000D01*
X110860900Y-89713543D01*
X110830127Y-89874862D01*
X110840439Y-90038766D01*
X110881780Y-90166000D01*
X110059000Y-90166000D01*
X110059000Y-90572901D01*
X110059223Y-90578158D01*
X110074418Y-90756693D01*
X110135543Y-90991443D01*
X110235456Y-91212477D01*
X110371290Y-91413449D01*
X110539135Y-91588575D01*
X110734160Y-91732815D01*
X110950758Y-91842021D01*
X111182698Y-91913052D01*
X111234000Y-91919621D01*
X111234000Y-90520310D01*
X111242817Y-90525158D01*
X111401886Y-90566000D01*
X111524894Y-90566000D01*
X111646933Y-90550583D01*
X111734000Y-90516110D01*
X111734000Y-91918838D01*
X111902782Y-91882464D01*
X112127856Y-91792021D01*
X112334413Y-91664838D01*
X112516511Y-91504573D01*
X112668893Y-91315852D01*
X112787195Y-91104080D01*
X112868006Y-90875364D01*
X112909000Y-90636287D01*
X112909000Y-90166000D01*
X112084728Y-90166000D01*
X112107100Y-90118457D01*
X112137873Y-89957138D01*
X112127561Y-89793234D01*
X112086220Y-89666000D01*
X112909000Y-89666000D01*
X112909000Y-89259098D01*
X112908776Y-89253841D01*
X112903825Y-89195669D01*
X119558499Y-89195669D01*
X119558500Y-89899279D01*
X119558500Y-90575554D01*
X119558722Y-90578158D01*
X119558723Y-90578178D01*
X119573924Y-90756780D01*
X119635068Y-90991609D01*
X119735018Y-91212722D01*
X119849228Y-91381700D01*
X119870900Y-91413765D01*
X120038803Y-91588952D01*
X120233898Y-91733244D01*
X120450571Y-91842488D01*
X120682591Y-91913543D01*
X120923281Y-91944365D01*
X121165719Y-91934066D01*
X121402928Y-91882944D01*
X121628086Y-91792468D01*
X121834714Y-91665242D01*
X122016869Y-91504925D01*
X122169311Y-91316130D01*
X122287653Y-91104288D01*
X122368491Y-90875493D01*
X122368514Y-90875364D01*
X122409500Y-90636330D01*
X122409500Y-89665999D01*
X124558999Y-89665999D01*
X124559000Y-89666000D01*
X125383272Y-89666000D01*
X125360900Y-89713543D01*
X125330127Y-89874862D01*
X125340439Y-90038766D01*
X125381780Y-90166000D01*
X124559000Y-90166000D01*
X124559000Y-90572901D01*
X124559223Y-90578158D01*
X124574418Y-90756693D01*
X124635543Y-90991443D01*
X124735456Y-91212477D01*
X124871290Y-91413449D01*
X125039135Y-91588575D01*
X125234160Y-91732815D01*
X125450758Y-91842021D01*
X125682698Y-91913052D01*
X125734000Y-91919621D01*
X125734000Y-90520310D01*
X125742817Y-90525158D01*
X125901886Y-90566000D01*
X126024894Y-90566000D01*
X126146933Y-90550583D01*
X126234000Y-90516110D01*
X126234000Y-91918838D01*
X126402782Y-91882464D01*
X126627856Y-91792021D01*
X126834413Y-91664838D01*
X127016511Y-91504573D01*
X127168893Y-91315852D01*
X127287195Y-91104080D01*
X127368006Y-90875364D01*
X127409000Y-90636287D01*
X127409000Y-90166000D01*
X126584728Y-90166000D01*
X126607100Y-90118457D01*
X126637873Y-89957138D01*
X126627561Y-89793234D01*
X126586220Y-89666000D01*
X127409000Y-89666000D01*
X127409000Y-89259098D01*
X127408776Y-89253841D01*
X127393581Y-89075306D01*
X127332456Y-88840556D01*
X127232543Y-88619522D01*
X127096709Y-88418550D01*
X126928864Y-88243424D01*
X126733839Y-88099184D01*
X126517243Y-87989979D01*
X126285296Y-87918945D01*
X126234000Y-87912376D01*
X126234000Y-89311689D01*
X126225183Y-89306842D01*
X126066114Y-89266000D01*
X125943106Y-89266000D01*
X125821067Y-89281417D01*
X125734000Y-89315889D01*
X125734000Y-87913161D01*
X125565216Y-87949536D01*
X125340143Y-88039978D01*
X125133586Y-88167161D01*
X124951488Y-88327426D01*
X124799106Y-88516147D01*
X124680804Y-88727919D01*
X124599993Y-88956635D01*
X124559000Y-89195712D01*
X124558999Y-89665999D01*
X122409500Y-89665999D01*
X122409500Y-89259077D01*
X122409500Y-89256446D01*
X122394075Y-89075218D01*
X122350753Y-88908837D01*
X122332931Y-88840390D01*
X122232981Y-88619277D01*
X122097100Y-88418235D01*
X121929196Y-88243047D01*
X121734102Y-88098756D01*
X121517429Y-87989512D01*
X121285409Y-87918457D01*
X121244052Y-87913161D01*
X121044719Y-87887635D01*
X121044715Y-87887635D01*
X120802283Y-87897933D01*
X120565069Y-87949056D01*
X120339917Y-88039530D01*
X120133284Y-88166759D01*
X119951131Y-88327074D01*
X119798688Y-88515869D01*
X119680346Y-88727712D01*
X119599507Y-88956509D01*
X119558499Y-89195669D01*
X112903825Y-89195669D01*
X112893581Y-89075306D01*
X112832456Y-88840556D01*
X112732543Y-88619522D01*
X112596709Y-88418550D01*
X112428864Y-88243424D01*
X112233839Y-88099184D01*
X112017243Y-87989979D01*
X111785296Y-87918945D01*
X111734000Y-87912376D01*
X111734000Y-89311689D01*
X111725183Y-89306842D01*
X111566114Y-89266000D01*
X111443106Y-89266000D01*
X111321067Y-89281417D01*
X111234000Y-89315889D01*
X111234000Y-87913161D01*
X111065216Y-87949536D01*
X110840143Y-88039978D01*
X110633586Y-88167161D01*
X110451488Y-88327426D01*
X110299106Y-88516147D01*
X110180804Y-88727919D01*
X110099993Y-88956635D01*
X110058999Y-89195712D01*
X107904331Y-89195712D01*
X107894075Y-89075218D01*
X107850753Y-88908837D01*
X107832931Y-88840390D01*
X107732981Y-88619277D01*
X107597100Y-88418235D01*
X107429196Y-88243047D01*
X107234102Y-88098756D01*
X107017429Y-87989512D01*
X106785409Y-87918457D01*
X106744052Y-87913161D01*
X106544719Y-87887635D01*
X106544715Y-87887635D01*
X106302283Y-87897933D01*
X106065069Y-87949056D01*
X105839917Y-88039530D01*
X105633284Y-88166759D01*
X105451131Y-88327074D01*
X105298688Y-88515869D01*
X105180346Y-88727712D01*
X105099507Y-88956509D01*
X105058499Y-89195669D01*
X92000500Y-89195669D01*
X92000500Y-76695669D01*
X105058499Y-76695669D01*
X105058500Y-77415418D01*
X105058500Y-78075554D01*
X105058722Y-78078158D01*
X105058723Y-78078178D01*
X105073924Y-78256780D01*
X105135068Y-78491609D01*
X105235018Y-78712722D01*
X105341982Y-78870979D01*
X105370900Y-78913765D01*
X105538803Y-79088952D01*
X105733898Y-79233244D01*
X105950571Y-79342488D01*
X106182591Y-79413543D01*
X106423281Y-79444365D01*
X106665719Y-79434066D01*
X106902928Y-79382944D01*
X107128086Y-79292468D01*
X107334714Y-79165242D01*
X107516869Y-79004925D01*
X107669311Y-78816130D01*
X107787653Y-78604288D01*
X107868491Y-78375493D01*
X107868514Y-78375364D01*
X107909500Y-78136330D01*
X107909500Y-76759077D01*
X107909500Y-76756446D01*
X107904331Y-76695712D01*
X110058999Y-76695712D01*
X110059000Y-77165999D01*
X110059000Y-77166000D01*
X110883272Y-77166000D01*
X110860900Y-77213543D01*
X110830127Y-77374862D01*
X110840439Y-77538766D01*
X110881780Y-77666000D01*
X110059000Y-77666000D01*
X110059000Y-78072901D01*
X110059223Y-78078158D01*
X110074418Y-78256693D01*
X110135543Y-78491443D01*
X110235456Y-78712477D01*
X110371290Y-78913449D01*
X110539135Y-79088575D01*
X110734160Y-79232815D01*
X110950758Y-79342021D01*
X111182698Y-79413052D01*
X111234000Y-79419621D01*
X111234000Y-78020310D01*
X111242817Y-78025158D01*
X111401886Y-78066000D01*
X111524894Y-78066000D01*
X111646933Y-78050583D01*
X111734000Y-78016110D01*
X111734000Y-79418838D01*
X111902782Y-79382464D01*
X112127856Y-79292021D01*
X112334413Y-79164838D01*
X112516511Y-79004573D01*
X112668893Y-78815852D01*
X112787195Y-78604080D01*
X112868006Y-78375364D01*
X112909000Y-78136287D01*
X112909000Y-77666000D01*
X112084728Y-77666000D01*
X112107100Y-77618457D01*
X112137873Y-77457138D01*
X112127561Y-77293234D01*
X112086220Y-77166000D01*
X112909000Y-77166000D01*
X112909000Y-76759098D01*
X112908776Y-76753841D01*
X112903825Y-76695669D01*
X119558499Y-76695669D01*
X119558500Y-77415418D01*
X119558500Y-78075554D01*
X119558722Y-78078158D01*
X119558723Y-78078178D01*
X119573924Y-78256780D01*
X119635068Y-78491609D01*
X119735018Y-78712722D01*
X119841982Y-78870979D01*
X119870900Y-78913765D01*
X120038803Y-79088952D01*
X120233898Y-79233244D01*
X120450571Y-79342488D01*
X120682591Y-79413543D01*
X120923281Y-79444365D01*
X121165719Y-79434066D01*
X121402928Y-79382944D01*
X121628086Y-79292468D01*
X121834714Y-79165242D01*
X122016869Y-79004925D01*
X122169311Y-78816130D01*
X122287653Y-78604288D01*
X122368491Y-78375493D01*
X122368514Y-78375364D01*
X122409500Y-78136330D01*
X122409500Y-77165999D01*
X124558999Y-77165999D01*
X124559000Y-77166000D01*
X125383272Y-77166000D01*
X125360900Y-77213543D01*
X125330127Y-77374862D01*
X125340439Y-77538766D01*
X125381780Y-77666000D01*
X124559000Y-77666000D01*
X124559000Y-78072901D01*
X124559223Y-78078158D01*
X124574418Y-78256693D01*
X124635543Y-78491443D01*
X124735456Y-78712477D01*
X124871290Y-78913449D01*
X125039135Y-79088575D01*
X125234160Y-79232815D01*
X125450758Y-79342021D01*
X125682698Y-79413052D01*
X125734000Y-79419621D01*
X125734000Y-78020310D01*
X125742817Y-78025158D01*
X125901886Y-78066000D01*
X126024894Y-78066000D01*
X126146933Y-78050583D01*
X126234000Y-78016110D01*
X126234000Y-79418838D01*
X126402782Y-79382464D01*
X126627856Y-79292021D01*
X126834413Y-79164838D01*
X127016511Y-79004573D01*
X127168893Y-78815852D01*
X127287195Y-78604080D01*
X127368006Y-78375364D01*
X127409000Y-78136287D01*
X127409000Y-77666000D01*
X126584728Y-77666000D01*
X126607100Y-77618457D01*
X126637873Y-77457138D01*
X126627561Y-77293234D01*
X126586220Y-77166000D01*
X127409000Y-77166000D01*
X127409000Y-76759098D01*
X127408776Y-76753841D01*
X127393581Y-76575306D01*
X127332456Y-76340556D01*
X127232543Y-76119522D01*
X127096709Y-75918550D01*
X126928864Y-75743424D01*
X126733839Y-75599184D01*
X126517243Y-75489979D01*
X126285296Y-75418945D01*
X126234000Y-75412376D01*
X126234000Y-76811689D01*
X126225183Y-76806842D01*
X126066114Y-76766000D01*
X125943106Y-76766000D01*
X125821067Y-76781417D01*
X125734000Y-76815889D01*
X125734000Y-75413161D01*
X125565216Y-75449536D01*
X125340143Y-75539978D01*
X125133586Y-75667161D01*
X124951488Y-75827426D01*
X124799106Y-76016147D01*
X124680804Y-76227919D01*
X124599993Y-76456635D01*
X124559000Y-76695712D01*
X124558999Y-77165999D01*
X122409500Y-77165999D01*
X122409500Y-76759077D01*
X122409500Y-76756446D01*
X122394075Y-76575218D01*
X122355121Y-76425613D01*
X122332931Y-76340390D01*
X122232981Y-76119277D01*
X122097100Y-75918235D01*
X121929196Y-75743047D01*
X121734102Y-75598756D01*
X121517429Y-75489512D01*
X121285409Y-75418457D01*
X121244052Y-75413161D01*
X121044719Y-75387635D01*
X121044715Y-75387635D01*
X120802283Y-75397933D01*
X120565069Y-75449056D01*
X120339917Y-75539530D01*
X120133284Y-75666759D01*
X119951131Y-75827074D01*
X119798688Y-76015869D01*
X119680346Y-76227712D01*
X119599507Y-76456509D01*
X119558499Y-76695669D01*
X112903825Y-76695669D01*
X112893581Y-76575306D01*
X112832456Y-76340556D01*
X112732543Y-76119522D01*
X112596709Y-75918550D01*
X112428864Y-75743424D01*
X112233839Y-75599184D01*
X112017243Y-75489979D01*
X111785296Y-75418945D01*
X111734000Y-75412376D01*
X111734000Y-76811689D01*
X111725183Y-76806842D01*
X111566114Y-76766000D01*
X111443106Y-76766000D01*
X111321067Y-76781417D01*
X111234000Y-76815889D01*
X111234000Y-75413161D01*
X111065216Y-75449536D01*
X110840143Y-75539978D01*
X110633586Y-75667161D01*
X110451488Y-75827426D01*
X110299106Y-76016147D01*
X110180804Y-76227919D01*
X110099993Y-76456635D01*
X110058999Y-76695712D01*
X107904331Y-76695712D01*
X107894075Y-76575218D01*
X107855121Y-76425613D01*
X107832931Y-76340390D01*
X107732981Y-76119277D01*
X107597100Y-75918235D01*
X107429196Y-75743047D01*
X107234102Y-75598756D01*
X107017429Y-75489512D01*
X106785409Y-75418457D01*
X106744052Y-75413161D01*
X106544719Y-75387635D01*
X106544715Y-75387635D01*
X106302283Y-75397933D01*
X106065069Y-75449056D01*
X105839917Y-75539530D01*
X105633284Y-75666759D01*
X105451131Y-75827074D01*
X105298688Y-76015869D01*
X105180346Y-76227712D01*
X105099507Y-76456509D01*
X105058499Y-76695669D01*
X92000500Y-76695669D01*
X92000500Y-50861197D01*
X92020185Y-50794158D01*
X92072989Y-50748403D01*
X92142147Y-50738459D01*
X92205703Y-50767484D01*
X92227127Y-50791602D01*
X92368635Y-51000311D01*
X92370808Y-51002869D01*
X92563101Y-51229255D01*
X92600332Y-51273086D01*
X92602763Y-51275389D01*
X92602769Y-51275395D01*
X92720959Y-51387350D01*
X92860163Y-51519211D01*
X93145081Y-51735800D01*
X93451747Y-51920315D01*
X93776565Y-52070591D01*
X94115726Y-52184868D01*
X94465254Y-52261805D01*
X94821052Y-52300500D01*
X94824410Y-52300500D01*
X95175590Y-52300500D01*
X95178948Y-52300500D01*
X95534746Y-52261805D01*
X95884274Y-52184868D01*
X96223435Y-52070591D01*
X96548253Y-51920315D01*
X96854919Y-51735800D01*
X97139837Y-51519211D01*
X97399668Y-51273086D01*
X97631365Y-51000311D01*
X97832211Y-50704085D01*
X97916023Y-50545999D01*
X110907178Y-50545999D01*
X110926424Y-50765978D01*
X110983579Y-50979281D01*
X111076898Y-51179406D01*
X111122258Y-51244187D01*
X111789096Y-50577349D01*
X111789051Y-50577898D01*
X111820266Y-50701162D01*
X111889813Y-50807612D01*
X111990157Y-50885713D01*
X112110422Y-50927000D01*
X112146553Y-50927000D01*
X111475812Y-51597740D01*
X111540593Y-51643101D01*
X111740718Y-51736420D01*
X111954021Y-51793575D01*
X112173999Y-51812821D01*
X112393978Y-51793575D01*
X112607281Y-51736420D01*
X112807408Y-51643100D01*
X112872187Y-51597740D01*
X112201448Y-50927000D01*
X112205569Y-50927000D01*
X112299421Y-50911339D01*
X112411251Y-50850820D01*
X112497371Y-50757269D01*
X112548448Y-50640823D01*
X112554105Y-50572552D01*
X113225740Y-51244186D01*
X113271098Y-51179411D01*
X113331340Y-51050220D01*
X113377512Y-50997780D01*
X113444705Y-50978627D01*
X113511587Y-50998842D01*
X113556105Y-51050218D01*
X113572675Y-51085752D01*
X113616466Y-51179662D01*
X113743174Y-51360620D01*
X113899380Y-51516826D01*
X114080338Y-51643534D01*
X114280550Y-51736894D01*
X114493932Y-51794070D01*
X114701016Y-51812187D01*
X114766085Y-51837639D01*
X114777890Y-51848034D01*
X115844200Y-52914344D01*
X115851016Y-52921736D01*
X115886369Y-52963357D01*
X115951428Y-53012813D01*
X115954012Y-53014832D01*
X115991653Y-53045090D01*
X116017700Y-53066028D01*
X116017701Y-53066028D01*
X116017703Y-53066030D01*
X116017869Y-53066112D01*
X116037819Y-53078486D01*
X116037971Y-53078602D01*
X116112171Y-53112930D01*
X116115120Y-53114344D01*
X116148229Y-53130764D01*
X116188304Y-53150640D01*
X116188305Y-53150640D01*
X116188307Y-53150641D01*
X116188479Y-53150683D01*
X116210624Y-53158479D01*
X116210803Y-53158562D01*
X116290579Y-53176121D01*
X116293827Y-53176882D01*
X116373111Y-53196600D01*
X116373295Y-53196604D01*
X116396600Y-53199459D01*
X116396784Y-53199500D01*
X116478463Y-53199500D01*
X116481821Y-53199545D01*
X116563473Y-53201757D01*
X116563657Y-53201721D01*
X116587024Y-53199500D01*
X131588500Y-53199500D01*
X131655539Y-53219185D01*
X131701294Y-53271989D01*
X131712500Y-53323500D01*
X131712500Y-95067661D01*
X131692815Y-95134700D01*
X131676182Y-95155341D01*
X131626402Y-95205121D01*
X131500898Y-95384361D01*
X131408425Y-95582668D01*
X131351792Y-95794025D01*
X131332722Y-96011999D01*
X131351792Y-96229974D01*
X131408425Y-96441331D01*
X131458261Y-96548205D01*
X131500898Y-96639639D01*
X131626402Y-96818877D01*
X131626404Y-96818879D01*
X131626405Y-96818880D01*
X131676180Y-96868655D01*
X131709665Y-96929978D01*
X131712499Y-96956336D01*
X131712499Y-101559382D01*
X131712090Y-101569443D01*
X131707661Y-101623848D01*
X131718688Y-101704791D01*
X131719096Y-101708121D01*
X131727927Y-101789315D01*
X131727990Y-101789502D01*
X131733342Y-101812338D01*
X131733369Y-101812538D01*
X131761540Y-101889220D01*
X131762655Y-101892386D01*
X131788733Y-101969781D01*
X131788831Y-101969944D01*
X131798970Y-101991102D01*
X131799037Y-101991285D01*
X131843046Y-102060139D01*
X131844815Y-102062991D01*
X131886910Y-102132953D01*
X131887041Y-102133091D01*
X131901494Y-102151579D01*
X131901600Y-102151744D01*
X131959395Y-102209539D01*
X131961702Y-102211910D01*
X132017868Y-102271205D01*
X132017871Y-102271207D01*
X132018024Y-102271311D01*
X132036121Y-102286265D01*
X134734200Y-104984344D01*
X134741016Y-104991736D01*
X134776369Y-105033357D01*
X134841428Y-105082813D01*
X134844012Y-105084832D01*
X134881653Y-105115090D01*
X134907700Y-105136028D01*
X134907701Y-105136028D01*
X134907703Y-105136030D01*
X134907869Y-105136112D01*
X134927819Y-105148486D01*
X134927971Y-105148602D01*
X135002171Y-105182930D01*
X135005120Y-105184344D01*
X135038229Y-105200764D01*
X135078304Y-105220640D01*
X135078305Y-105220640D01*
X135078307Y-105220641D01*
X135078479Y-105220683D01*
X135100624Y-105228479D01*
X135100803Y-105228562D01*
X135180579Y-105246121D01*
X135183827Y-105246882D01*
X135263111Y-105266600D01*
X135263295Y-105266604D01*
X135286600Y-105269459D01*
X135286784Y-105269500D01*
X135368463Y-105269500D01*
X135371821Y-105269545D01*
X135453473Y-105271757D01*
X135453657Y-105271721D01*
X135477024Y-105269500D01*
X146143994Y-105269500D01*
X146211033Y-105289185D01*
X146231675Y-105305819D01*
X158588181Y-117662325D01*
X158621666Y-117723648D01*
X158624500Y-117750006D01*
X158624500Y-118789240D01*
X158604815Y-118856279D01*
X158588182Y-118876921D01*
X158461502Y-119003601D01*
X158351269Y-119161032D01*
X158296692Y-119204657D01*
X158227194Y-119211851D01*
X158164839Y-119180328D01*
X158148119Y-119161032D01*
X158038109Y-119003921D01*
X157871081Y-118836893D01*
X157677576Y-118701399D01*
X157463492Y-118601569D01*
X157250000Y-118544364D01*
X157250000Y-119591981D01*
X157135199Y-119539554D01*
X157033975Y-119525000D01*
X156966025Y-119525000D01*
X156864801Y-119539554D01*
X156750000Y-119591981D01*
X156750000Y-118544364D01*
X156749999Y-118544364D01*
X156536507Y-118601569D01*
X156322421Y-118701400D01*
X156128921Y-118836890D01*
X155961893Y-119003918D01*
X155851880Y-119161033D01*
X155797303Y-119204658D01*
X155727804Y-119211850D01*
X155665450Y-119180328D01*
X155648730Y-119161032D01*
X155544521Y-119012206D01*
X155538495Y-119003599D01*
X155371401Y-118836505D01*
X155177830Y-118700965D01*
X154963663Y-118601097D01*
X154902501Y-118584709D01*
X154735407Y-118539936D01*
X154500000Y-118519340D01*
X154264592Y-118539936D01*
X154036336Y-118601097D01*
X153822170Y-118700965D01*
X153628598Y-118836505D01*
X153461505Y-119003598D01*
X153351575Y-119160596D01*
X153296998Y-119204221D01*
X153227500Y-119211415D01*
X153165145Y-119179892D01*
X153148425Y-119160596D01*
X153044828Y-119012644D01*
X153038495Y-119003599D01*
X152871401Y-118836505D01*
X152677830Y-118700965D01*
X152463663Y-118601097D01*
X152402502Y-118584709D01*
X152235407Y-118539936D01*
X152000000Y-118519340D01*
X151764592Y-118539936D01*
X151536336Y-118601097D01*
X151322170Y-118700965D01*
X151128598Y-118836505D01*
X150961505Y-119003598D01*
X150851575Y-119160596D01*
X150796998Y-119204221D01*
X150727500Y-119211415D01*
X150665145Y-119179892D01*
X150648425Y-119160596D01*
X150544828Y-119012644D01*
X150538495Y-119003599D01*
X150371401Y-118836505D01*
X150177830Y-118700965D01*
X149963663Y-118601097D01*
X149902501Y-118584709D01*
X149735407Y-118539936D01*
X149499999Y-118519340D01*
X149264592Y-118539936D01*
X149036336Y-118601097D01*
X148822170Y-118700965D01*
X148628601Y-118836503D01*
X148481398Y-118983706D01*
X148420075Y-119017190D01*
X148350383Y-119012206D01*
X148294450Y-118970334D01*
X148288178Y-118961120D01*
X148192711Y-118806342D01*
X148068657Y-118682288D01*
X147919334Y-118590186D01*
X147752797Y-118535000D01*
X147653141Y-118524819D01*
X147653122Y-118524818D01*
X147650009Y-118524500D01*
X147646860Y-118524500D01*
X146353140Y-118524500D01*
X146353120Y-118524500D01*
X146349992Y-118524501D01*
X146346860Y-118524820D01*
X146346858Y-118524821D01*
X146247203Y-118535000D01*
X146080665Y-118590186D01*
X145931342Y-118682288D01*
X145807288Y-118806342D01*
X145715186Y-118955665D01*
X145660000Y-119122202D01*
X145649819Y-119221858D01*
X145649817Y-119221878D01*
X145649500Y-119224991D01*
X145649500Y-119228138D01*
X145649500Y-119228139D01*
X145649500Y-120771859D01*
X145649500Y-120771878D01*
X145649501Y-120775008D01*
X145649820Y-120778140D01*
X145649821Y-120778141D01*
X145660000Y-120877796D01*
X145715186Y-121044334D01*
X145807288Y-121193657D01*
X145931342Y-121317711D01*
X145931344Y-121317712D01*
X146080666Y-121409814D01*
X146192017Y-121446712D01*
X146247202Y-121464999D01*
X146346858Y-121475180D01*
X146346859Y-121475180D01*
X146349991Y-121475500D01*
X147650008Y-121475499D01*
X147752797Y-121464999D01*
X147919334Y-121409814D01*
X148068656Y-121317712D01*
X148192712Y-121193656D01*
X148284814Y-121044334D01*
X148284814Y-121044331D01*
X148288178Y-121038879D01*
X148340125Y-120992154D01*
X148409088Y-120980931D01*
X148473170Y-121008774D01*
X148481398Y-121016294D01*
X148628599Y-121163495D01*
X148822170Y-121299035D01*
X149036337Y-121398903D01*
X149248059Y-121455633D01*
X149264592Y-121460063D01*
X149499999Y-121480659D01*
X149499999Y-121480658D01*
X149500000Y-121480659D01*
X149735408Y-121460063D01*
X149963663Y-121398903D01*
X150177829Y-121299035D01*
X150371401Y-121163495D01*
X150538495Y-120996401D01*
X150648426Y-120839401D01*
X150703002Y-120795778D01*
X150772500Y-120788584D01*
X150834855Y-120820107D01*
X150851571Y-120839398D01*
X150961505Y-120996401D01*
X151128599Y-121163495D01*
X151322170Y-121299035D01*
X151536337Y-121398903D01*
X151764592Y-121460063D01*
X152000000Y-121480659D01*
X152235408Y-121460063D01*
X152463663Y-121398903D01*
X152677829Y-121299035D01*
X152871401Y-121163495D01*
X153038495Y-120996401D01*
X153148426Y-120839401D01*
X153203002Y-120795778D01*
X153272500Y-120788584D01*
X153334855Y-120820107D01*
X153351571Y-120839398D01*
X153461505Y-120996401D01*
X153628599Y-121163495D01*
X153822170Y-121299035D01*
X154036337Y-121398903D01*
X154264592Y-121460063D01*
X154500000Y-121480659D01*
X154735408Y-121460063D01*
X154963663Y-121398903D01*
X155177829Y-121299035D01*
X155371401Y-121163495D01*
X155538495Y-120996401D01*
X155648732Y-120838965D01*
X155703306Y-120795342D01*
X155772805Y-120788148D01*
X155835160Y-120819671D01*
X155851880Y-120838967D01*
X155961890Y-120996078D01*
X156128918Y-121163106D01*
X156322423Y-121298600D01*
X156536509Y-121398430D01*
X156750000Y-121455634D01*
X156750000Y-120408018D01*
X156864801Y-120460446D01*
X156966025Y-120475000D01*
X157033975Y-120475000D01*
X157135199Y-120460446D01*
X157250000Y-120408018D01*
X157250000Y-121455633D01*
X157463490Y-121398430D01*
X157677578Y-121298599D01*
X157871078Y-121163109D01*
X158038109Y-120996078D01*
X158148119Y-120838968D01*
X158202696Y-120795343D01*
X158272194Y-120788149D01*
X158334549Y-120819672D01*
X158351268Y-120838966D01*
X158461505Y-120996401D01*
X158628599Y-121163495D01*
X158822170Y-121299035D01*
X159036337Y-121398903D01*
X159264592Y-121460063D01*
X159500000Y-121480659D01*
X159735408Y-121460063D01*
X159963663Y-121398903D01*
X160177829Y-121299035D01*
X160371401Y-121163495D01*
X160538495Y-120996401D01*
X160674035Y-120802829D01*
X160688468Y-120771878D01*
X165649500Y-120771878D01*
X165649501Y-120775008D01*
X165649820Y-120778140D01*
X165649821Y-120778141D01*
X165660000Y-120877796D01*
X165715186Y-121044334D01*
X165807288Y-121193657D01*
X165931342Y-121317711D01*
X165931344Y-121317712D01*
X166080666Y-121409814D01*
X166192017Y-121446712D01*
X166247202Y-121464999D01*
X166346858Y-121475180D01*
X166346859Y-121475180D01*
X166349991Y-121475500D01*
X167650008Y-121475499D01*
X167752797Y-121464999D01*
X167919334Y-121409814D01*
X168068656Y-121317712D01*
X168192712Y-121193656D01*
X168284814Y-121044334D01*
X168284814Y-121044331D01*
X168288448Y-121038441D01*
X168340395Y-120991716D01*
X168409358Y-120980493D01*
X168473440Y-121008336D01*
X168481668Y-121015856D01*
X168628918Y-121163106D01*
X168822423Y-121298600D01*
X169036509Y-121398430D01*
X169250000Y-121455634D01*
X169250000Y-120408018D01*
X169364801Y-120460446D01*
X169466025Y-120475000D01*
X169533975Y-120475000D01*
X169635199Y-120460446D01*
X169750000Y-120408018D01*
X169750000Y-121455633D01*
X169963490Y-121398430D01*
X170177578Y-121298599D01*
X170371078Y-121163109D01*
X170538109Y-120996078D01*
X170648119Y-120838968D01*
X170702696Y-120795343D01*
X170772194Y-120788149D01*
X170834549Y-120819672D01*
X170851268Y-120838966D01*
X170961505Y-120996401D01*
X171128599Y-121163495D01*
X171322170Y-121299035D01*
X171536337Y-121398903D01*
X171748059Y-121455633D01*
X171764592Y-121460063D01*
X171999999Y-121480659D01*
X171999999Y-121480658D01*
X172000000Y-121480659D01*
X172235408Y-121460063D01*
X172463663Y-121398903D01*
X172677829Y-121299035D01*
X172871401Y-121163495D01*
X173038495Y-120996401D01*
X173174035Y-120802829D01*
X173188468Y-120771878D01*
X178149500Y-120771878D01*
X178149501Y-120775008D01*
X178149820Y-120778140D01*
X178149821Y-120778141D01*
X178160000Y-120877796D01*
X178215186Y-121044334D01*
X178307288Y-121193657D01*
X178431342Y-121317711D01*
X178431344Y-121317712D01*
X178580666Y-121409814D01*
X178692017Y-121446712D01*
X178747202Y-121464999D01*
X178846858Y-121475180D01*
X178846859Y-121475180D01*
X178849991Y-121475500D01*
X180150008Y-121475499D01*
X180252797Y-121464999D01*
X180419334Y-121409814D01*
X180568656Y-121317712D01*
X180692712Y-121193656D01*
X180784814Y-121044334D01*
X180784814Y-121044331D01*
X180788448Y-121038441D01*
X180840395Y-120991716D01*
X180909358Y-120980493D01*
X180973440Y-121008336D01*
X180981668Y-121015856D01*
X181128918Y-121163106D01*
X181322423Y-121298600D01*
X181536509Y-121398430D01*
X181750000Y-121455634D01*
X181750000Y-120408018D01*
X181864801Y-120460446D01*
X181966025Y-120475000D01*
X182033975Y-120475000D01*
X182135199Y-120460446D01*
X182250000Y-120408018D01*
X182250000Y-121455633D01*
X182463490Y-121398430D01*
X182677578Y-121298599D01*
X182871078Y-121163109D01*
X183038109Y-120996078D01*
X183148119Y-120838968D01*
X183202696Y-120795343D01*
X183272194Y-120788149D01*
X183334549Y-120819672D01*
X183351268Y-120838966D01*
X183461505Y-120996401D01*
X183628599Y-121163495D01*
X183822170Y-121299035D01*
X184036337Y-121398903D01*
X184264592Y-121460063D01*
X184500000Y-121480659D01*
X184735408Y-121460063D01*
X184963663Y-121398903D01*
X185177829Y-121299035D01*
X185371401Y-121163495D01*
X185538495Y-120996401D01*
X185648425Y-120839403D01*
X185703002Y-120795779D01*
X185772500Y-120788585D01*
X185834855Y-120820108D01*
X185851574Y-120839403D01*
X185961505Y-120996401D01*
X186128599Y-121163495D01*
X186322170Y-121299035D01*
X186536337Y-121398903D01*
X186748059Y-121455633D01*
X186764592Y-121460063D01*
X186999999Y-121480659D01*
X186999999Y-121480658D01*
X187000000Y-121480659D01*
X187235408Y-121460063D01*
X187463663Y-121398903D01*
X187677829Y-121299035D01*
X187871401Y-121163495D01*
X188038495Y-120996401D01*
X188148426Y-120839401D01*
X188203002Y-120795778D01*
X188272500Y-120788584D01*
X188334855Y-120820107D01*
X188351571Y-120839398D01*
X188461505Y-120996401D01*
X188628599Y-121163495D01*
X188822170Y-121299035D01*
X189036337Y-121398903D01*
X189264592Y-121460063D01*
X189500000Y-121480659D01*
X189735408Y-121460063D01*
X189963663Y-121398903D01*
X190177829Y-121299035D01*
X190371401Y-121163495D01*
X190538495Y-120996401D01*
X190674035Y-120802829D01*
X190773903Y-120588663D01*
X190835063Y-120360408D01*
X190850500Y-120183966D01*
X190850500Y-119816034D01*
X190835063Y-119639592D01*
X190773903Y-119411337D01*
X190674035Y-119197171D01*
X190538495Y-119003599D01*
X190371401Y-118836505D01*
X190177830Y-118700965D01*
X189963663Y-118601097D01*
X189902501Y-118584709D01*
X189735407Y-118539936D01*
X189500000Y-118519340D01*
X189264592Y-118539936D01*
X189036336Y-118601097D01*
X188822170Y-118700965D01*
X188628598Y-118836505D01*
X188461505Y-119003598D01*
X188351575Y-119160596D01*
X188296998Y-119204221D01*
X188227500Y-119211415D01*
X188165145Y-119179892D01*
X188148425Y-119160596D01*
X188044828Y-119012644D01*
X188038495Y-119003599D01*
X187871401Y-118836505D01*
X187677830Y-118700965D01*
X187463663Y-118601097D01*
X187402501Y-118584709D01*
X187235407Y-118539936D01*
X186999999Y-118519340D01*
X186764592Y-118539936D01*
X186536336Y-118601097D01*
X186322170Y-118700965D01*
X186128598Y-118836505D01*
X185961505Y-119003598D01*
X185851575Y-119160596D01*
X185796998Y-119204221D01*
X185727500Y-119211415D01*
X185665145Y-119179892D01*
X185648425Y-119160596D01*
X185544828Y-119012644D01*
X185538495Y-119003599D01*
X185371401Y-118836505D01*
X185177830Y-118700965D01*
X184963663Y-118601097D01*
X184902501Y-118584709D01*
X184735407Y-118539936D01*
X184500000Y-118519340D01*
X184264592Y-118539936D01*
X184036336Y-118601097D01*
X183822170Y-118700965D01*
X183628598Y-118836505D01*
X183461508Y-119003595D01*
X183461505Y-119003598D01*
X183461505Y-119003599D01*
X183455172Y-119012644D01*
X183351269Y-119161033D01*
X183296692Y-119204657D01*
X183227193Y-119211850D01*
X183164839Y-119180328D01*
X183148119Y-119161032D01*
X183038109Y-119003921D01*
X182871081Y-118836893D01*
X182677576Y-118701399D01*
X182463492Y-118601569D01*
X182250000Y-118544364D01*
X182250000Y-119591981D01*
X182135199Y-119539554D01*
X182033975Y-119525000D01*
X181966025Y-119525000D01*
X181864801Y-119539554D01*
X181750000Y-119591981D01*
X181750000Y-118544364D01*
X181749999Y-118544364D01*
X181536507Y-118601569D01*
X181322421Y-118701400D01*
X181128924Y-118836888D01*
X180981668Y-118984144D01*
X180920345Y-119017628D01*
X180850653Y-119012644D01*
X180794720Y-118970772D01*
X180788448Y-118961558D01*
X180777986Y-118944597D01*
X180692712Y-118806344D01*
X180692711Y-118806342D01*
X180568657Y-118682288D01*
X180419334Y-118590186D01*
X180252797Y-118535000D01*
X180153141Y-118524819D01*
X180153122Y-118524818D01*
X180150009Y-118524500D01*
X180146860Y-118524500D01*
X178853140Y-118524500D01*
X178853120Y-118524500D01*
X178849992Y-118524501D01*
X178846860Y-118524820D01*
X178846858Y-118524821D01*
X178747203Y-118535000D01*
X178580665Y-118590186D01*
X178431342Y-118682288D01*
X178307288Y-118806342D01*
X178215186Y-118955665D01*
X178160000Y-119122202D01*
X178149819Y-119221858D01*
X178149817Y-119221878D01*
X178149500Y-119224991D01*
X178149500Y-119228138D01*
X178149500Y-119228139D01*
X178149500Y-120771859D01*
X178149500Y-120771878D01*
X173188468Y-120771878D01*
X173273903Y-120588663D01*
X173335063Y-120360408D01*
X173350500Y-120183966D01*
X173350500Y-119816034D01*
X173335063Y-119639592D01*
X173273903Y-119411337D01*
X173174035Y-119197171D01*
X173038495Y-119003599D01*
X172871401Y-118836505D01*
X172677830Y-118700965D01*
X172463663Y-118601097D01*
X172402501Y-118584709D01*
X172235407Y-118539936D01*
X171999999Y-118519340D01*
X171764592Y-118539936D01*
X171536336Y-118601097D01*
X171322170Y-118700965D01*
X171128598Y-118836505D01*
X170961508Y-119003595D01*
X170961505Y-119003598D01*
X170961505Y-119003599D01*
X170955172Y-119012644D01*
X170851269Y-119161033D01*
X170796692Y-119204657D01*
X170727193Y-119211850D01*
X170664839Y-119180328D01*
X170648119Y-119161032D01*
X170538109Y-119003921D01*
X170371081Y-118836893D01*
X170177576Y-118701399D01*
X169963492Y-118601569D01*
X169750000Y-118544364D01*
X169750000Y-119591981D01*
X169635199Y-119539554D01*
X169533975Y-119525000D01*
X169466025Y-119525000D01*
X169364801Y-119539554D01*
X169250000Y-119591981D01*
X169250000Y-118544364D01*
X169249999Y-118544364D01*
X169036507Y-118601569D01*
X168822421Y-118701400D01*
X168628924Y-118836888D01*
X168481668Y-118984144D01*
X168420345Y-119017628D01*
X168350653Y-119012644D01*
X168294720Y-118970772D01*
X168288448Y-118961558D01*
X168277986Y-118944597D01*
X168192712Y-118806344D01*
X168192711Y-118806342D01*
X168068657Y-118682288D01*
X167919334Y-118590186D01*
X167752797Y-118535000D01*
X167653141Y-118524819D01*
X167653122Y-118524818D01*
X167650009Y-118524500D01*
X167646860Y-118524500D01*
X166353140Y-118524500D01*
X166353120Y-118524500D01*
X166349992Y-118524501D01*
X166346860Y-118524820D01*
X166346858Y-118524821D01*
X166247203Y-118535000D01*
X166080665Y-118590186D01*
X165931342Y-118682288D01*
X165807288Y-118806342D01*
X165715186Y-118955665D01*
X165660000Y-119122202D01*
X165649819Y-119221858D01*
X165649817Y-119221878D01*
X165649500Y-119224991D01*
X165649500Y-119228138D01*
X165649500Y-119228139D01*
X165649500Y-120771859D01*
X165649500Y-120771878D01*
X160688468Y-120771878D01*
X160773903Y-120588663D01*
X160835063Y-120360408D01*
X160850500Y-120183966D01*
X160850500Y-119816034D01*
X160835063Y-119639592D01*
X160773903Y-119411337D01*
X160674035Y-119197171D01*
X160538495Y-119003599D01*
X160411819Y-118876923D01*
X160378334Y-118815600D01*
X160375500Y-118789242D01*
X160375500Y-117376629D01*
X160375909Y-117366564D01*
X160380340Y-117312153D01*
X160376068Y-117280800D01*
X160369302Y-117231145D01*
X160368899Y-117227848D01*
X160360073Y-117146684D01*
X160360012Y-117146503D01*
X160354656Y-117123650D01*
X160354631Y-117123463D01*
X160326462Y-117046790D01*
X160325346Y-117043621D01*
X160299267Y-116966220D01*
X160299173Y-116966064D01*
X160289026Y-116944890D01*
X160288961Y-116944712D01*
X160244959Y-116875871D01*
X160243220Y-116873068D01*
X160201089Y-116803046D01*
X160200956Y-116802906D01*
X160186503Y-116784417D01*
X160186400Y-116784256D01*
X160128658Y-116726514D01*
X160126316Y-116724108D01*
X160070130Y-116664793D01*
X160069970Y-116664685D01*
X160051877Y-116649733D01*
X147205793Y-103803649D01*
X147198965Y-103796242D01*
X147163634Y-103754646D01*
X147163632Y-103754645D01*
X147163631Y-103754643D01*
X147098590Y-103705201D01*
X147095961Y-103703145D01*
X147079785Y-103690142D01*
X147032297Y-103651970D01*
X147032294Y-103651968D01*
X147032290Y-103651965D01*
X147032120Y-103651881D01*
X147012187Y-103639517D01*
X147012035Y-103639401D01*
X146937896Y-103605100D01*
X146934872Y-103603650D01*
X146861692Y-103567358D01*
X146861499Y-103567310D01*
X146839375Y-103559520D01*
X146839196Y-103559437D01*
X146759412Y-103541874D01*
X146756146Y-103541109D01*
X146676885Y-103521399D01*
X146676689Y-103521394D01*
X146653418Y-103518544D01*
X146653218Y-103518500D01*
X146653216Y-103518500D01*
X146571537Y-103518500D01*
X146568179Y-103518455D01*
X146486528Y-103516243D01*
X146486527Y-103516243D01*
X146486342Y-103516278D01*
X146462976Y-103518500D01*
X135796006Y-103518500D01*
X135728967Y-103498815D01*
X135708325Y-103482181D01*
X133499818Y-101273674D01*
X133466333Y-101212351D01*
X133463499Y-101186002D01*
X133463499Y-96956336D01*
X133483184Y-96889298D01*
X133499819Y-96868655D01*
X133549598Y-96818877D01*
X133675102Y-96639639D01*
X133767575Y-96441330D01*
X133824207Y-96229977D01*
X133843277Y-96012000D01*
X133824207Y-95794023D01*
X133823977Y-95791391D01*
X133837744Y-95722891D01*
X133886359Y-95672708D01*
X133954388Y-95656775D01*
X134020231Y-95680150D01*
X134056699Y-95721824D01*
X134060102Y-95728149D01*
X134060104Y-95728153D01*
X134113033Y-95826511D01*
X134163462Y-95920223D01*
X134299447Y-96090743D01*
X134463698Y-96234245D01*
X134463699Y-96234246D01*
X134463702Y-96234248D01*
X134650938Y-96346117D01*
X134650939Y-96346117D01*
X134650942Y-96346119D01*
X134805062Y-96403961D01*
X134860910Y-96445946D01*
X134885194Y-96511460D01*
X134870203Y-96579703D01*
X134820697Y-96629007D01*
X134794481Y-96639585D01*
X134751493Y-96651449D01*
X134555067Y-96746041D01*
X134378684Y-96874192D01*
X134228015Y-97031780D01*
X134107910Y-97213731D01*
X134022224Y-97414203D01*
X133993512Y-97539999D01*
X133993512Y-97540000D01*
X135514722Y-97540000D01*
X135466375Y-97623740D01*
X135436190Y-97755992D01*
X135446327Y-97891265D01*
X135495887Y-98017541D01*
X135513797Y-98040000D01*
X133990403Y-98040000D01*
X133993193Y-98060606D01*
X134060565Y-98267954D01*
X134163881Y-98459947D01*
X134299810Y-98630397D01*
X134463993Y-98773839D01*
X134651160Y-98885667D01*
X134855273Y-98962271D01*
X135069789Y-99001200D01*
X135640000Y-99001200D01*
X135640000Y-98164189D01*
X135692547Y-98200016D01*
X135822173Y-98240000D01*
X135923724Y-98240000D01*
X136024138Y-98224865D01*
X136140000Y-98169068D01*
X136140000Y-99001200D01*
X136652822Y-99001200D01*
X136658360Y-99000951D01*
X136818345Y-98986552D01*
X137028507Y-98928550D01*
X137224932Y-98833958D01*
X137401315Y-98705807D01*
X137551984Y-98548219D01*
X137672089Y-98366268D01*
X137757775Y-98165796D01*
X137786488Y-98040000D01*
X136265278Y-98040000D01*
X136313625Y-97956260D01*
X136343810Y-97824008D01*
X136333673Y-97688735D01*
X136284113Y-97562459D01*
X136266203Y-97540000D01*
X137789597Y-97540000D01*
X137786806Y-97519393D01*
X137719434Y-97312045D01*
X137616118Y-97120052D01*
X137480189Y-96949602D01*
X137316006Y-96806160D01*
X137128841Y-96694333D01*
X136974913Y-96636563D01*
X136919065Y-96594577D01*
X136894782Y-96529063D01*
X136909773Y-96460821D01*
X136959280Y-96411517D01*
X136985485Y-96400942D01*
X137028682Y-96389021D01*
X137225192Y-96294387D01*
X137401647Y-96166185D01*
X137552375Y-96008536D01*
X137672531Y-95826508D01*
X137758253Y-95625949D01*
X137806787Y-95413308D01*
X137816573Y-95195418D01*
X137787295Y-94979281D01*
X137719896Y-94771847D01*
X137616540Y-94579780D01*
X137616537Y-94579776D01*
X137480552Y-94409256D01*
X137316301Y-94265754D01*
X137129059Y-94153881D01*
X136975733Y-94096337D01*
X136919885Y-94054352D01*
X136895602Y-93988837D01*
X136910593Y-93920595D01*
X136960100Y-93871291D01*
X136986308Y-93860715D01*
X137028682Y-93849021D01*
X137225192Y-93754387D01*
X137401647Y-93626185D01*
X137552375Y-93468536D01*
X137672531Y-93286508D01*
X137758253Y-93085949D01*
X137806787Y-92873308D01*
X137816573Y-92655418D01*
X137787295Y-92439281D01*
X137719896Y-92231847D01*
X137616540Y-92039780D01*
X137616537Y-92039776D01*
X137480552Y-91869256D01*
X137316301Y-91725754D01*
X137129059Y-91613881D01*
X136975733Y-91556337D01*
X136919885Y-91514352D01*
X136895602Y-91448837D01*
X136910593Y-91380595D01*
X136960100Y-91331291D01*
X136986308Y-91320715D01*
X137028682Y-91309021D01*
X137225192Y-91214387D01*
X137401647Y-91086185D01*
X137552375Y-90928536D01*
X137672531Y-90746508D01*
X137758253Y-90545949D01*
X137806787Y-90333308D01*
X137816573Y-90115418D01*
X137787295Y-89899281D01*
X137719896Y-89691847D01*
X137616540Y-89499780D01*
X137616537Y-89499776D01*
X137480552Y-89329256D01*
X137316301Y-89185754D01*
X137129059Y-89073881D01*
X136975733Y-89016337D01*
X136919885Y-88974352D01*
X136895602Y-88908837D01*
X136910593Y-88840595D01*
X136960100Y-88791291D01*
X136986308Y-88780715D01*
X137028682Y-88769021D01*
X137225192Y-88674387D01*
X137401647Y-88546185D01*
X137552375Y-88388536D01*
X137672531Y-88206508D01*
X137758253Y-88005949D01*
X137806787Y-87793308D01*
X137816573Y-87575418D01*
X137787295Y-87359281D01*
X137719896Y-87151847D01*
X137616540Y-86959780D01*
X137616537Y-86959776D01*
X137480552Y-86789256D01*
X137316301Y-86645754D01*
X137129059Y-86533881D01*
X136975733Y-86476337D01*
X136919885Y-86434352D01*
X136895602Y-86368837D01*
X136910593Y-86300595D01*
X136960100Y-86251291D01*
X136986308Y-86240715D01*
X137028682Y-86229021D01*
X137225192Y-86134387D01*
X137401647Y-86006185D01*
X137552375Y-85848536D01*
X137672531Y-85666508D01*
X137758253Y-85465949D01*
X137806787Y-85253308D01*
X137816573Y-85035418D01*
X137787295Y-84819281D01*
X137719896Y-84611847D01*
X137616540Y-84419780D01*
X137616537Y-84419776D01*
X137480552Y-84249256D01*
X137316301Y-84105754D01*
X137129059Y-83993881D01*
X136975733Y-83936337D01*
X136919885Y-83894352D01*
X136895602Y-83828837D01*
X136910593Y-83760595D01*
X136960100Y-83711291D01*
X136986308Y-83700715D01*
X137028682Y-83689021D01*
X137225192Y-83594387D01*
X137401647Y-83466185D01*
X137552375Y-83308536D01*
X137672531Y-83126508D01*
X137758253Y-82925949D01*
X137806787Y-82713308D01*
X137816573Y-82495418D01*
X137787295Y-82279281D01*
X137719896Y-82071847D01*
X137616540Y-81879780D01*
X137616537Y-81879776D01*
X137480552Y-81709256D01*
X137316301Y-81565754D01*
X137129059Y-81453881D01*
X136975733Y-81396337D01*
X136919885Y-81354352D01*
X136895602Y-81288837D01*
X136910593Y-81220595D01*
X136960100Y-81171291D01*
X136986308Y-81160715D01*
X137028682Y-81149021D01*
X137225192Y-81054387D01*
X137401647Y-80926185D01*
X137552375Y-80768536D01*
X137672531Y-80586508D01*
X137758253Y-80385949D01*
X137806787Y-80173308D01*
X137816573Y-79955418D01*
X137787295Y-79739281D01*
X137719896Y-79531847D01*
X137616540Y-79339780D01*
X137578454Y-79292021D01*
X137480552Y-79169256D01*
X137316301Y-79025754D01*
X137281439Y-79004925D01*
X137129062Y-78913883D01*
X137129059Y-78913881D01*
X136975733Y-78856337D01*
X136919885Y-78814352D01*
X136895602Y-78748837D01*
X136910593Y-78680595D01*
X136960100Y-78631291D01*
X136986308Y-78620715D01*
X137028682Y-78609021D01*
X137225192Y-78514387D01*
X137401647Y-78386185D01*
X137552375Y-78228536D01*
X137672531Y-78046508D01*
X137758253Y-77845949D01*
X137806787Y-77633308D01*
X137816573Y-77415418D01*
X137787295Y-77199281D01*
X137719896Y-76991847D01*
X137616540Y-76799780D01*
X137601896Y-76781417D01*
X137480552Y-76629256D01*
X137316301Y-76485754D01*
X137267564Y-76456635D01*
X137129062Y-76373883D01*
X137129059Y-76373881D01*
X136975733Y-76316337D01*
X136919885Y-76274352D01*
X136895602Y-76208837D01*
X136910593Y-76140595D01*
X136960100Y-76091291D01*
X136986308Y-76080715D01*
X137028682Y-76069021D01*
X137225192Y-75974387D01*
X137401647Y-75846185D01*
X137552375Y-75688536D01*
X137672531Y-75506508D01*
X137758253Y-75305949D01*
X137806787Y-75093308D01*
X137816573Y-74875418D01*
X137787295Y-74659281D01*
X137719896Y-74451847D01*
X137616540Y-74259780D01*
X137616537Y-74259776D01*
X137480552Y-74089256D01*
X137316301Y-73945754D01*
X137129059Y-73833881D01*
X136975733Y-73776337D01*
X136919885Y-73734352D01*
X136895602Y-73668837D01*
X136910593Y-73600595D01*
X136960100Y-73551291D01*
X136986308Y-73540715D01*
X137028682Y-73529021D01*
X137225192Y-73434387D01*
X137401647Y-73306185D01*
X137552375Y-73148536D01*
X137672531Y-72966508D01*
X137758253Y-72765949D01*
X137806787Y-72553308D01*
X137816573Y-72335418D01*
X137787295Y-72119281D01*
X137719896Y-71911847D01*
X137616540Y-71719780D01*
X137616537Y-71719776D01*
X137480552Y-71549256D01*
X137316301Y-71405754D01*
X137129059Y-71293881D01*
X136975733Y-71236337D01*
X136919885Y-71194352D01*
X136895602Y-71128837D01*
X136910593Y-71060595D01*
X136960100Y-71011291D01*
X136986308Y-71000715D01*
X137028682Y-70989021D01*
X137225192Y-70894387D01*
X137401647Y-70766185D01*
X137552375Y-70608536D01*
X137672531Y-70426508D01*
X137758253Y-70225949D01*
X137806787Y-70013308D01*
X137816573Y-69795418D01*
X137787295Y-69579281D01*
X137719896Y-69371847D01*
X137616540Y-69179780D01*
X137616537Y-69179776D01*
X137480552Y-69009256D01*
X137316301Y-68865754D01*
X137129059Y-68753881D01*
X136975733Y-68696337D01*
X136919885Y-68654352D01*
X136895602Y-68588837D01*
X136910593Y-68520595D01*
X136960100Y-68471291D01*
X136986308Y-68460715D01*
X137028682Y-68449021D01*
X137225192Y-68354387D01*
X137401647Y-68226185D01*
X137552375Y-68068536D01*
X137672531Y-67886508D01*
X137758253Y-67685949D01*
X137806787Y-67473308D01*
X137816573Y-67255418D01*
X137787295Y-67039281D01*
X137719896Y-66831847D01*
X137616540Y-66639780D01*
X137616537Y-66639776D01*
X137480552Y-66469256D01*
X137316301Y-66325754D01*
X137129059Y-66213881D01*
X136975733Y-66156337D01*
X136919885Y-66114352D01*
X136895602Y-66048837D01*
X136910593Y-65980595D01*
X136960100Y-65931291D01*
X136986308Y-65920715D01*
X137028682Y-65909021D01*
X137225192Y-65814387D01*
X137401647Y-65686185D01*
X137552375Y-65528536D01*
X137672531Y-65346508D01*
X137758253Y-65145949D01*
X137806787Y-64933308D01*
X137816573Y-64715418D01*
X137787295Y-64499281D01*
X137719896Y-64291847D01*
X137616540Y-64099780D01*
X137616537Y-64099776D01*
X137480552Y-63929256D01*
X137316301Y-63785754D01*
X137129059Y-63673881D01*
X136975733Y-63616337D01*
X136919885Y-63574352D01*
X136895602Y-63508837D01*
X136910593Y-63440595D01*
X136960100Y-63391291D01*
X136986308Y-63380715D01*
X137028682Y-63369021D01*
X137225192Y-63274387D01*
X137401647Y-63146185D01*
X137552375Y-62988536D01*
X137672531Y-62806508D01*
X137758253Y-62605949D01*
X137806787Y-62393308D01*
X137816573Y-62175418D01*
X137787295Y-61959281D01*
X137719896Y-61751847D01*
X137616540Y-61559780D01*
X137616537Y-61559776D01*
X137480552Y-61389256D01*
X137316301Y-61245754D01*
X137129059Y-61133881D01*
X136975733Y-61076337D01*
X136919885Y-61034352D01*
X136895602Y-60968837D01*
X136910593Y-60900595D01*
X136960100Y-60851291D01*
X136986308Y-60840715D01*
X137028682Y-60829021D01*
X137225192Y-60734387D01*
X137401647Y-60606185D01*
X137552375Y-60448536D01*
X137672531Y-60266508D01*
X137758253Y-60065949D01*
X137806787Y-59853308D01*
X137816573Y-59635418D01*
X137787295Y-59419281D01*
X137719896Y-59211847D01*
X137616540Y-59019780D01*
X137616537Y-59019776D01*
X137480552Y-58849256D01*
X137316301Y-58705754D01*
X137129059Y-58593881D01*
X136975733Y-58536337D01*
X136919885Y-58494352D01*
X136895602Y-58428837D01*
X136910593Y-58360595D01*
X136960100Y-58311291D01*
X136986308Y-58300715D01*
X137028682Y-58289021D01*
X137225192Y-58194387D01*
X137401647Y-58066185D01*
X137552375Y-57908536D01*
X137672531Y-57726508D01*
X137758253Y-57525949D01*
X137806787Y-57313308D01*
X137816573Y-57095418D01*
X137787295Y-56879281D01*
X137719896Y-56671847D01*
X137616540Y-56479780D01*
X137616537Y-56479776D01*
X137480552Y-56309256D01*
X137316301Y-56165754D01*
X137129059Y-56053881D01*
X136975733Y-55996337D01*
X136919885Y-55954352D01*
X136895602Y-55888837D01*
X136910593Y-55820595D01*
X136960100Y-55771291D01*
X136986308Y-55760715D01*
X137028682Y-55749021D01*
X137225192Y-55654387D01*
X137401647Y-55526185D01*
X137552375Y-55368536D01*
X137672531Y-55186508D01*
X137758253Y-54985949D01*
X137806787Y-54773308D01*
X137816573Y-54555418D01*
X137787295Y-54339281D01*
X137719896Y-54131847D01*
X137616540Y-53939780D01*
X137616537Y-53939776D01*
X137480552Y-53769256D01*
X137316301Y-53625754D01*
X137129059Y-53513881D01*
X136975733Y-53456337D01*
X136919885Y-53414352D01*
X136895602Y-53348837D01*
X136910593Y-53280595D01*
X136960100Y-53231291D01*
X136986308Y-53220715D01*
X137028682Y-53209021D01*
X137225192Y-53114387D01*
X137401647Y-52986185D01*
X137552375Y-52828536D01*
X137672531Y-52646508D01*
X137758253Y-52445949D01*
X137806787Y-52233308D01*
X137816573Y-52015418D01*
X137787295Y-51799281D01*
X137719896Y-51591847D01*
X137616540Y-51399780D01*
X137616537Y-51399776D01*
X137480552Y-51229256D01*
X137316301Y-51085754D01*
X137267621Y-51056669D01*
X137129062Y-50973883D01*
X137129057Y-50973880D01*
X136931118Y-50899593D01*
X136875270Y-50857608D01*
X136850986Y-50792094D01*
X136865977Y-50723851D01*
X136915483Y-50674547D01*
X136974688Y-50659500D01*
X157585994Y-50659500D01*
X157653033Y-50679185D01*
X157673675Y-50695819D01*
X157687431Y-50709575D01*
X157720916Y-50770898D01*
X157715932Y-50840590D01*
X157674060Y-50896523D01*
X157632740Y-50916787D01*
X157581315Y-50930979D01*
X157384810Y-51025611D01*
X157342063Y-51056669D01*
X157208353Y-51153815D01*
X157208351Y-51153816D01*
X157208351Y-51153817D01*
X157057624Y-51311463D01*
X156937471Y-51493488D01*
X156937469Y-51493490D01*
X156937469Y-51493492D01*
X156912781Y-51551252D01*
X156851745Y-51694054D01*
X156803213Y-51906691D01*
X156793426Y-52124580D01*
X156822705Y-52340720D01*
X156890103Y-52548151D01*
X156993462Y-52740223D01*
X157063889Y-52828536D01*
X157129449Y-52910745D01*
X157137651Y-52917911D01*
X157293698Y-53054245D01*
X157293699Y-53054246D01*
X157293702Y-53054248D01*
X157480938Y-53166117D01*
X157480939Y-53166117D01*
X157480942Y-53166119D01*
X157634265Y-53223662D01*
X157690113Y-53265647D01*
X157714397Y-53331161D01*
X157699406Y-53399404D01*
X157649900Y-53448708D01*
X157623685Y-53459286D01*
X157581316Y-53470979D01*
X157384810Y-53565611D01*
X157302034Y-53625752D01*
X157208353Y-53693815D01*
X157208351Y-53693816D01*
X157208351Y-53693817D01*
X157057624Y-53851463D01*
X156937471Y-54033488D01*
X156851745Y-54234054D01*
X156803213Y-54446691D01*
X156793426Y-54664580D01*
X156822705Y-54880720D01*
X156890103Y-55088151D01*
X156993462Y-55280223D01*
X157129447Y-55450743D01*
X157293698Y-55594245D01*
X157293699Y-55594246D01*
X157293702Y-55594248D01*
X157480938Y-55706117D01*
X157480939Y-55706117D01*
X157480942Y-55706119D01*
X157634265Y-55763662D01*
X157690113Y-55805647D01*
X157714397Y-55871161D01*
X157699406Y-55939404D01*
X157649900Y-55988708D01*
X157623685Y-55999286D01*
X157581316Y-56010979D01*
X157384810Y-56105611D01*
X157302034Y-56165752D01*
X157208353Y-56233815D01*
X157208351Y-56233816D01*
X157208351Y-56233817D01*
X157057624Y-56391463D01*
X156937471Y-56573488D01*
X156851745Y-56774054D01*
X156803213Y-56986691D01*
X156793426Y-57204580D01*
X156822705Y-57420720D01*
X156890103Y-57628151D01*
X156993462Y-57820223D01*
X157129447Y-57990743D01*
X157293698Y-58134245D01*
X157293699Y-58134246D01*
X157293702Y-58134248D01*
X157480938Y-58246117D01*
X157480939Y-58246117D01*
X157480942Y-58246119D01*
X157634265Y-58303662D01*
X157690113Y-58345647D01*
X157714397Y-58411161D01*
X157699406Y-58479404D01*
X157649900Y-58528708D01*
X157623685Y-58539286D01*
X157581316Y-58550979D01*
X157384810Y-58645611D01*
X157302034Y-58705752D01*
X157208353Y-58773815D01*
X157208351Y-58773816D01*
X157208351Y-58773817D01*
X157057624Y-58931463D01*
X156937471Y-59113488D01*
X156851745Y-59314054D01*
X156803213Y-59526691D01*
X156793426Y-59744580D01*
X156822705Y-59960720D01*
X156890103Y-60168151D01*
X156993462Y-60360223D01*
X157129447Y-60530743D01*
X157293698Y-60674245D01*
X157293699Y-60674246D01*
X157293702Y-60674248D01*
X157480938Y-60786117D01*
X157480939Y-60786117D01*
X157480942Y-60786119D01*
X157634265Y-60843662D01*
X157690113Y-60885647D01*
X157714397Y-60951161D01*
X157699406Y-61019404D01*
X157649900Y-61068708D01*
X157623685Y-61079286D01*
X157581316Y-61090979D01*
X157384810Y-61185611D01*
X157302034Y-61245752D01*
X157208353Y-61313815D01*
X157208351Y-61313816D01*
X157208351Y-61313817D01*
X157057624Y-61471463D01*
X156937471Y-61653488D01*
X156851745Y-61854054D01*
X156803213Y-62066691D01*
X156793426Y-62284580D01*
X156822705Y-62500720D01*
X156890103Y-62708151D01*
X156993462Y-62900223D01*
X157129447Y-63070743D01*
X157293698Y-63214245D01*
X157293699Y-63214246D01*
X157293702Y-63214248D01*
X157480938Y-63326117D01*
X157480939Y-63326117D01*
X157480942Y-63326119D01*
X157634265Y-63383662D01*
X157690113Y-63425647D01*
X157714397Y-63491161D01*
X157699406Y-63559404D01*
X157649900Y-63608708D01*
X157623685Y-63619286D01*
X157581316Y-63630979D01*
X157384810Y-63725611D01*
X157302034Y-63785752D01*
X157208353Y-63853815D01*
X157208351Y-63853816D01*
X157208351Y-63853817D01*
X157057624Y-64011463D01*
X156937471Y-64193488D01*
X156851745Y-64394054D01*
X156803213Y-64606691D01*
X156793426Y-64824580D01*
X156822705Y-65040720D01*
X156890103Y-65248151D01*
X156993462Y-65440223D01*
X157129447Y-65610743D01*
X157293698Y-65754245D01*
X157293699Y-65754246D01*
X157293702Y-65754248D01*
X157480938Y-65866117D01*
X157480939Y-65866117D01*
X157480942Y-65866119D01*
X157634265Y-65923662D01*
X157690113Y-65965647D01*
X157714397Y-66031161D01*
X157699406Y-66099404D01*
X157649900Y-66148708D01*
X157623685Y-66159286D01*
X157581316Y-66170979D01*
X157384810Y-66265611D01*
X157302034Y-66325752D01*
X157208353Y-66393815D01*
X157208351Y-66393816D01*
X157208351Y-66393817D01*
X157057624Y-66551463D01*
X156937471Y-66733488D01*
X156851745Y-66934054D01*
X156803213Y-67146691D01*
X156793426Y-67364580D01*
X156822705Y-67580720D01*
X156890103Y-67788151D01*
X156993462Y-67980223D01*
X157129447Y-68150743D01*
X157293698Y-68294245D01*
X157293699Y-68294246D01*
X157293702Y-68294248D01*
X157480938Y-68406117D01*
X157480939Y-68406117D01*
X157480942Y-68406119D01*
X157634265Y-68463662D01*
X157690113Y-68505647D01*
X157714397Y-68571161D01*
X157699406Y-68639404D01*
X157649900Y-68688708D01*
X157623685Y-68699286D01*
X157581316Y-68710979D01*
X157384810Y-68805611D01*
X157302034Y-68865752D01*
X157208353Y-68933815D01*
X157208351Y-68933816D01*
X157208351Y-68933817D01*
X157057624Y-69091463D01*
X156937471Y-69273488D01*
X156851745Y-69474054D01*
X156803213Y-69686691D01*
X156793426Y-69904580D01*
X156822705Y-70120720D01*
X156890103Y-70328151D01*
X156993462Y-70520223D01*
X157129447Y-70690743D01*
X157293698Y-70834245D01*
X157293699Y-70834246D01*
X157293702Y-70834248D01*
X157480938Y-70946117D01*
X157480939Y-70946117D01*
X157480942Y-70946119D01*
X157634265Y-71003662D01*
X157690113Y-71045647D01*
X157714397Y-71111161D01*
X157699406Y-71179404D01*
X157649900Y-71228708D01*
X157623685Y-71239286D01*
X157581316Y-71250979D01*
X157384810Y-71345611D01*
X157302034Y-71405752D01*
X157208353Y-71473815D01*
X157208351Y-71473816D01*
X157208351Y-71473817D01*
X157057624Y-71631463D01*
X156937471Y-71813488D01*
X156851745Y-72014054D01*
X156803213Y-72226691D01*
X156793426Y-72444580D01*
X156822705Y-72660720D01*
X156890103Y-72868151D01*
X156993462Y-73060223D01*
X157129447Y-73230743D01*
X157293698Y-73374245D01*
X157293699Y-73374246D01*
X157293702Y-73374248D01*
X157480938Y-73486117D01*
X157480939Y-73486117D01*
X157480942Y-73486119D01*
X157634265Y-73543662D01*
X157690113Y-73585647D01*
X157714397Y-73651161D01*
X157699406Y-73719404D01*
X157649900Y-73768708D01*
X157623685Y-73779286D01*
X157581316Y-73790979D01*
X157384810Y-73885611D01*
X157302034Y-73945752D01*
X157208353Y-74013815D01*
X157208351Y-74013816D01*
X157208351Y-74013817D01*
X157057624Y-74171463D01*
X156937471Y-74353488D01*
X156851745Y-74554054D01*
X156803213Y-74766691D01*
X156793426Y-74984580D01*
X156822705Y-75200720D01*
X156886783Y-75397934D01*
X156890104Y-75408153D01*
X156992672Y-75598756D01*
X156993462Y-75600223D01*
X157129447Y-75770743D01*
X157293698Y-75914245D01*
X157293699Y-75914246D01*
X157293702Y-75914248D01*
X157480938Y-76026117D01*
X157480939Y-76026117D01*
X157480942Y-76026119D01*
X157634265Y-76083662D01*
X157690113Y-76125647D01*
X157714397Y-76191161D01*
X157699406Y-76259404D01*
X157649900Y-76308708D01*
X157623685Y-76319286D01*
X157581316Y-76330979D01*
X157384810Y-76425611D01*
X157302034Y-76485752D01*
X157208353Y-76553815D01*
X157208351Y-76553816D01*
X157208351Y-76553817D01*
X157057624Y-76711463D01*
X156937471Y-76893488D01*
X156937469Y-76893490D01*
X156937469Y-76893492D01*
X156912781Y-76951252D01*
X156851745Y-77094054D01*
X156803213Y-77306691D01*
X156793426Y-77524580D01*
X156822705Y-77740720D01*
X156856894Y-77845945D01*
X156890104Y-77948153D01*
X156957245Y-78072922D01*
X156993462Y-78140223D01*
X157129447Y-78310743D01*
X157293698Y-78454245D01*
X157293699Y-78454246D01*
X157293702Y-78454248D01*
X157480938Y-78566117D01*
X157480939Y-78566117D01*
X157480942Y-78566119D01*
X157634265Y-78623662D01*
X157690113Y-78665647D01*
X157714397Y-78731161D01*
X157699406Y-78799404D01*
X157649900Y-78848708D01*
X157623685Y-78859286D01*
X157581316Y-78870979D01*
X157384810Y-78965611D01*
X157302034Y-79025752D01*
X157208353Y-79093815D01*
X157208351Y-79093816D01*
X157208351Y-79093817D01*
X157057624Y-79251463D01*
X156937471Y-79433488D01*
X156851745Y-79634054D01*
X156803213Y-79846691D01*
X156793426Y-80064580D01*
X156822705Y-80280720D01*
X156890103Y-80488151D01*
X156993462Y-80680223D01*
X157129447Y-80850743D01*
X157293698Y-80994245D01*
X157293699Y-80994246D01*
X157293702Y-80994248D01*
X157480938Y-81106117D01*
X157480939Y-81106117D01*
X157480942Y-81106119D01*
X157634265Y-81163662D01*
X157690113Y-81205647D01*
X157714397Y-81271161D01*
X157699406Y-81339404D01*
X157649900Y-81388708D01*
X157623685Y-81399286D01*
X157581316Y-81410979D01*
X157384810Y-81505611D01*
X157302034Y-81565752D01*
X157208353Y-81633815D01*
X157208351Y-81633816D01*
X157208351Y-81633817D01*
X157057624Y-81791463D01*
X156937471Y-81973488D01*
X156851745Y-82174054D01*
X156803213Y-82386691D01*
X156793426Y-82604580D01*
X156822705Y-82820720D01*
X156890103Y-83028151D01*
X156993462Y-83220223D01*
X157129447Y-83390743D01*
X157293698Y-83534245D01*
X157293699Y-83534246D01*
X157293702Y-83534248D01*
X157480938Y-83646117D01*
X157480939Y-83646117D01*
X157480942Y-83646119D01*
X157634265Y-83703662D01*
X157690113Y-83745647D01*
X157714397Y-83811161D01*
X157699406Y-83879404D01*
X157649900Y-83928708D01*
X157623685Y-83939286D01*
X157581316Y-83950979D01*
X157384810Y-84045611D01*
X157302034Y-84105752D01*
X157208353Y-84173815D01*
X157208351Y-84173816D01*
X157208351Y-84173817D01*
X157057624Y-84331463D01*
X156937471Y-84513488D01*
X156851745Y-84714054D01*
X156803213Y-84926691D01*
X156793426Y-85144580D01*
X156822705Y-85360720D01*
X156890103Y-85568151D01*
X156993462Y-85760223D01*
X157129447Y-85930743D01*
X157293698Y-86074245D01*
X157293699Y-86074246D01*
X157293702Y-86074248D01*
X157480938Y-86186117D01*
X157480939Y-86186117D01*
X157480942Y-86186119D01*
X157634265Y-86243662D01*
X157690113Y-86285647D01*
X157714397Y-86351161D01*
X157699406Y-86419404D01*
X157649900Y-86468708D01*
X157623685Y-86479286D01*
X157581316Y-86490979D01*
X157384810Y-86585611D01*
X157302034Y-86645752D01*
X157208353Y-86713815D01*
X157208351Y-86713816D01*
X157208351Y-86713817D01*
X157057624Y-86871463D01*
X156937471Y-87053488D01*
X156851745Y-87254054D01*
X156803213Y-87466691D01*
X156793426Y-87684580D01*
X156822705Y-87900720D01*
X156887189Y-88099184D01*
X156890104Y-88108153D01*
X156962694Y-88243048D01*
X156993462Y-88300223D01*
X157129447Y-88470743D01*
X157293698Y-88614245D01*
X157293699Y-88614246D01*
X157293702Y-88614248D01*
X157480938Y-88726117D01*
X157480939Y-88726117D01*
X157480942Y-88726119D01*
X157634265Y-88783662D01*
X157690113Y-88825647D01*
X157714397Y-88891161D01*
X157699406Y-88959404D01*
X157649900Y-89008708D01*
X157623685Y-89019286D01*
X157581316Y-89030979D01*
X157384810Y-89125611D01*
X157302034Y-89185752D01*
X157208353Y-89253815D01*
X157208351Y-89253816D01*
X157208351Y-89253817D01*
X157057624Y-89411463D01*
X156937471Y-89593488D01*
X156851745Y-89794054D01*
X156803213Y-90006691D01*
X156793426Y-90224580D01*
X156822705Y-90440720D01*
X156890103Y-90648151D01*
X156993462Y-90840223D01*
X157129447Y-91010743D01*
X157293698Y-91154245D01*
X157293699Y-91154246D01*
X157293702Y-91154248D01*
X157480938Y-91266117D01*
X157480939Y-91266117D01*
X157480942Y-91266119D01*
X157634265Y-91323662D01*
X157690113Y-91365647D01*
X157714397Y-91431161D01*
X157699406Y-91499404D01*
X157649900Y-91548708D01*
X157623685Y-91559286D01*
X157581316Y-91570979D01*
X157384810Y-91665611D01*
X157302034Y-91725752D01*
X157208353Y-91793815D01*
X157208351Y-91793816D01*
X157208351Y-91793817D01*
X157057624Y-91951463D01*
X156937471Y-92133488D01*
X156851745Y-92334054D01*
X156803213Y-92546691D01*
X156793426Y-92764580D01*
X156822705Y-92980720D01*
X156890103Y-93188151D01*
X156993462Y-93380223D01*
X157129447Y-93550743D01*
X157293698Y-93694245D01*
X157293699Y-93694246D01*
X157293702Y-93694248D01*
X157480938Y-93806117D01*
X157480939Y-93806117D01*
X157480942Y-93806119D01*
X157634265Y-93863662D01*
X157690113Y-93905647D01*
X157714397Y-93971161D01*
X157699406Y-94039404D01*
X157649900Y-94088708D01*
X157623685Y-94099286D01*
X157581316Y-94110979D01*
X157384810Y-94205611D01*
X157302034Y-94265752D01*
X157208353Y-94333815D01*
X157208351Y-94333816D01*
X157208351Y-94333817D01*
X157057624Y-94491463D01*
X156937471Y-94673488D01*
X156851745Y-94874054D01*
X156803213Y-95086691D01*
X156793426Y-95304580D01*
X156822705Y-95520720D01*
X156888047Y-95721824D01*
X156890104Y-95728153D01*
X156925551Y-95794025D01*
X156993462Y-95920223D01*
X157129447Y-96090743D01*
X157293698Y-96234245D01*
X157293699Y-96234246D01*
X157293702Y-96234248D01*
X157480938Y-96346117D01*
X157480939Y-96346117D01*
X157480942Y-96346119D01*
X157634265Y-96403662D01*
X157690113Y-96445647D01*
X157714397Y-96511161D01*
X157699406Y-96579404D01*
X157649900Y-96628708D01*
X157623685Y-96639286D01*
X157581316Y-96650979D01*
X157384810Y-96745611D01*
X157302034Y-96805752D01*
X157208353Y-96873815D01*
X157208351Y-96873816D01*
X157208351Y-96873817D01*
X157057624Y-97031463D01*
X156937471Y-97213488D01*
X156851745Y-97414054D01*
X156803213Y-97626691D01*
X156793426Y-97844580D01*
X156822705Y-98060720D01*
X156890103Y-98268151D01*
X156993462Y-98460223D01*
X157129447Y-98630743D01*
X157293698Y-98774245D01*
X157293699Y-98774246D01*
X157293702Y-98774248D01*
X157480938Y-98886117D01*
X157480939Y-98886117D01*
X157480942Y-98886119D01*
X157685139Y-98962755D01*
X157899744Y-99001700D01*
X157899745Y-99001700D01*
X159482845Y-99001700D01*
X159485622Y-99001700D01*
X159648432Y-98987047D01*
X159858682Y-98929021D01*
X160055192Y-98834387D01*
X160231647Y-98706185D01*
X160382375Y-98548536D01*
X160502531Y-98366508D01*
X160588253Y-98165949D01*
X160636787Y-97953308D01*
X160646573Y-97735418D01*
X160617295Y-97519281D01*
X160549896Y-97311847D01*
X160446540Y-97119780D01*
X160446537Y-97119776D01*
X160310552Y-96949256D01*
X160146301Y-96805754D01*
X159959059Y-96693881D01*
X159805733Y-96636337D01*
X159749885Y-96594352D01*
X159725602Y-96528837D01*
X159740593Y-96460595D01*
X159790100Y-96411291D01*
X159816308Y-96400715D01*
X159858682Y-96389021D01*
X160055192Y-96294387D01*
X160231647Y-96166185D01*
X160382375Y-96008536D01*
X160502531Y-95826508D01*
X160588253Y-95625949D01*
X160636787Y-95413308D01*
X160646573Y-95195418D01*
X160617295Y-94979281D01*
X160549896Y-94771847D01*
X160446540Y-94579780D01*
X160446537Y-94579776D01*
X160310552Y-94409256D01*
X160146301Y-94265754D01*
X159959059Y-94153881D01*
X159805733Y-94096337D01*
X159749885Y-94054352D01*
X159725602Y-93988837D01*
X159740593Y-93920595D01*
X159790100Y-93871291D01*
X159816308Y-93860715D01*
X159858682Y-93849021D01*
X160055192Y-93754387D01*
X160231647Y-93626185D01*
X160382375Y-93468536D01*
X160502531Y-93286508D01*
X160588253Y-93085949D01*
X160636787Y-92873308D01*
X160646573Y-92655418D01*
X160617295Y-92439281D01*
X160549896Y-92231847D01*
X160446540Y-92039780D01*
X160446537Y-92039776D01*
X160310552Y-91869256D01*
X160146301Y-91725754D01*
X159959059Y-91613881D01*
X159805733Y-91556337D01*
X159749885Y-91514352D01*
X159725602Y-91448837D01*
X159740593Y-91380595D01*
X159790100Y-91331291D01*
X159816308Y-91320715D01*
X159858682Y-91309021D01*
X160055192Y-91214387D01*
X160231647Y-91086185D01*
X160382375Y-90928536D01*
X160502531Y-90746508D01*
X160588253Y-90545949D01*
X160636787Y-90333308D01*
X160646573Y-90115418D01*
X160617295Y-89899281D01*
X160549896Y-89691847D01*
X160446540Y-89499780D01*
X160446537Y-89499776D01*
X160310552Y-89329256D01*
X160146301Y-89185754D01*
X159959059Y-89073881D01*
X159805733Y-89016337D01*
X159749885Y-88974352D01*
X159725602Y-88908837D01*
X159740593Y-88840595D01*
X159790100Y-88791291D01*
X159816308Y-88780715D01*
X159858682Y-88769021D01*
X160055192Y-88674387D01*
X160231647Y-88546185D01*
X160382375Y-88388536D01*
X160502531Y-88206508D01*
X160588253Y-88005949D01*
X160636787Y-87793308D01*
X160646573Y-87575418D01*
X160617295Y-87359281D01*
X160549896Y-87151847D01*
X160446540Y-86959780D01*
X160446537Y-86959776D01*
X160310552Y-86789256D01*
X160146301Y-86645754D01*
X159959059Y-86533881D01*
X159805733Y-86476337D01*
X159749885Y-86434352D01*
X159725602Y-86368837D01*
X159740593Y-86300595D01*
X159790100Y-86251291D01*
X159816308Y-86240715D01*
X159858682Y-86229021D01*
X160055192Y-86134387D01*
X160231647Y-86006185D01*
X160382375Y-85848536D01*
X160502531Y-85666508D01*
X160588253Y-85465949D01*
X160636787Y-85253308D01*
X160646573Y-85035418D01*
X160617295Y-84819281D01*
X160549896Y-84611847D01*
X160446540Y-84419780D01*
X160446537Y-84419776D01*
X160310552Y-84249256D01*
X160146301Y-84105754D01*
X159959059Y-83993881D01*
X159805733Y-83936337D01*
X159749885Y-83894352D01*
X159725602Y-83828837D01*
X159740593Y-83760595D01*
X159790100Y-83711291D01*
X159816308Y-83700715D01*
X159858682Y-83689021D01*
X160055192Y-83594387D01*
X160231647Y-83466185D01*
X160382375Y-83308536D01*
X160502531Y-83126508D01*
X160588253Y-82925949D01*
X160636787Y-82713308D01*
X160646573Y-82495418D01*
X160617295Y-82279281D01*
X160549896Y-82071847D01*
X160446540Y-81879780D01*
X160446537Y-81879776D01*
X160310552Y-81709256D01*
X160146301Y-81565754D01*
X159959059Y-81453881D01*
X159805733Y-81396337D01*
X159749885Y-81354352D01*
X159725602Y-81288837D01*
X159740593Y-81220595D01*
X159790100Y-81171291D01*
X159816308Y-81160715D01*
X159858682Y-81149021D01*
X160055192Y-81054387D01*
X160231647Y-80926185D01*
X160382375Y-80768536D01*
X160502531Y-80586508D01*
X160588253Y-80385949D01*
X160636787Y-80173308D01*
X160646573Y-79955418D01*
X160617295Y-79739281D01*
X160549896Y-79531847D01*
X160446540Y-79339780D01*
X160408454Y-79292021D01*
X160310552Y-79169256D01*
X160146301Y-79025754D01*
X160111439Y-79004925D01*
X159959062Y-78913883D01*
X159959059Y-78913881D01*
X159805733Y-78856337D01*
X159749885Y-78814352D01*
X159725602Y-78748837D01*
X159740593Y-78680595D01*
X159790100Y-78631291D01*
X159816308Y-78620715D01*
X159858682Y-78609021D01*
X160055192Y-78514387D01*
X160231647Y-78386185D01*
X160382375Y-78228536D01*
X160502531Y-78046508D01*
X160588253Y-77845949D01*
X160636787Y-77633308D01*
X160646573Y-77415418D01*
X160617295Y-77199281D01*
X160549896Y-76991847D01*
X160446540Y-76799780D01*
X160431896Y-76781417D01*
X160310552Y-76629256D01*
X160146301Y-76485754D01*
X160097564Y-76456635D01*
X159959062Y-76373883D01*
X159959059Y-76373881D01*
X159805733Y-76316337D01*
X159749885Y-76274352D01*
X159725602Y-76208837D01*
X159740593Y-76140595D01*
X159790100Y-76091291D01*
X159816308Y-76080715D01*
X159858682Y-76069021D01*
X160055192Y-75974387D01*
X160231647Y-75846185D01*
X160382375Y-75688536D01*
X160502531Y-75506508D01*
X160588253Y-75305949D01*
X160636787Y-75093308D01*
X160646573Y-74875418D01*
X160617295Y-74659281D01*
X160549896Y-74451847D01*
X160446540Y-74259780D01*
X160446537Y-74259776D01*
X160310552Y-74089256D01*
X160146301Y-73945754D01*
X159959059Y-73833881D01*
X159805733Y-73776337D01*
X159749885Y-73734352D01*
X159725602Y-73668837D01*
X159740593Y-73600595D01*
X159790100Y-73551291D01*
X159816308Y-73540715D01*
X159858682Y-73529021D01*
X160055192Y-73434387D01*
X160231647Y-73306185D01*
X160382375Y-73148536D01*
X160502531Y-72966508D01*
X160588253Y-72765949D01*
X160636787Y-72553308D01*
X160646573Y-72335418D01*
X160617295Y-72119281D01*
X160549896Y-71911847D01*
X160446540Y-71719780D01*
X160446537Y-71719776D01*
X160310552Y-71549256D01*
X160146301Y-71405754D01*
X159959059Y-71293881D01*
X159805733Y-71236337D01*
X159749885Y-71194352D01*
X159725602Y-71128837D01*
X159740593Y-71060595D01*
X159790100Y-71011291D01*
X159816308Y-71000715D01*
X159858682Y-70989021D01*
X160055192Y-70894387D01*
X160231647Y-70766185D01*
X160382375Y-70608536D01*
X160502531Y-70426508D01*
X160588253Y-70225949D01*
X160636787Y-70013308D01*
X160646573Y-69795418D01*
X160617295Y-69579281D01*
X160549896Y-69371847D01*
X160446540Y-69179780D01*
X160446537Y-69179776D01*
X160310552Y-69009256D01*
X160146301Y-68865754D01*
X159959059Y-68753881D01*
X159805733Y-68696337D01*
X159749885Y-68654352D01*
X159725602Y-68588837D01*
X159740593Y-68520595D01*
X159790100Y-68471291D01*
X159816308Y-68460715D01*
X159858682Y-68449021D01*
X160055192Y-68354387D01*
X160231647Y-68226185D01*
X160382375Y-68068536D01*
X160502531Y-67886508D01*
X160588253Y-67685949D01*
X160636787Y-67473308D01*
X160646573Y-67255418D01*
X160617295Y-67039281D01*
X160549896Y-66831847D01*
X160446540Y-66639780D01*
X160446537Y-66639776D01*
X160310552Y-66469256D01*
X160146301Y-66325754D01*
X159959059Y-66213881D01*
X159805733Y-66156337D01*
X159749885Y-66114352D01*
X159725602Y-66048837D01*
X159740593Y-65980595D01*
X159790100Y-65931291D01*
X159816308Y-65920715D01*
X159858682Y-65909021D01*
X160055192Y-65814387D01*
X160231647Y-65686185D01*
X160382375Y-65528536D01*
X160502531Y-65346508D01*
X160588253Y-65145949D01*
X160636787Y-64933308D01*
X160646573Y-64715418D01*
X160617295Y-64499281D01*
X160549896Y-64291847D01*
X160446540Y-64099780D01*
X160446537Y-64099776D01*
X160310552Y-63929256D01*
X160146301Y-63785754D01*
X159959059Y-63673881D01*
X159805733Y-63616337D01*
X159749885Y-63574352D01*
X159725602Y-63508837D01*
X159740593Y-63440595D01*
X159790100Y-63391291D01*
X159816308Y-63380715D01*
X159858682Y-63369021D01*
X160055192Y-63274387D01*
X160231647Y-63146185D01*
X160382375Y-62988536D01*
X160502531Y-62806508D01*
X160588253Y-62605949D01*
X160636787Y-62393308D01*
X160646573Y-62175418D01*
X160617295Y-61959281D01*
X160549896Y-61751847D01*
X160446540Y-61559780D01*
X160446537Y-61559776D01*
X160310552Y-61389256D01*
X160146301Y-61245754D01*
X159959059Y-61133881D01*
X159805733Y-61076337D01*
X159749885Y-61034352D01*
X159725602Y-60968837D01*
X159740593Y-60900595D01*
X159790100Y-60851291D01*
X159816308Y-60840715D01*
X159858682Y-60829021D01*
X160055192Y-60734387D01*
X160231647Y-60606185D01*
X160382375Y-60448536D01*
X160502531Y-60266508D01*
X160588253Y-60065949D01*
X160636787Y-59853308D01*
X160646573Y-59635418D01*
X160617295Y-59419281D01*
X160549896Y-59211847D01*
X160446540Y-59019780D01*
X160446537Y-59019776D01*
X160310552Y-58849256D01*
X160146301Y-58705754D01*
X159959059Y-58593881D01*
X159805733Y-58536337D01*
X159749885Y-58494352D01*
X159725602Y-58428837D01*
X159740593Y-58360595D01*
X159790100Y-58311291D01*
X159816308Y-58300715D01*
X159858682Y-58289021D01*
X160055192Y-58194387D01*
X160231647Y-58066185D01*
X160382375Y-57908536D01*
X160502531Y-57726508D01*
X160588253Y-57525949D01*
X160636787Y-57313308D01*
X160646573Y-57095418D01*
X160617295Y-56879281D01*
X160549896Y-56671847D01*
X160446540Y-56479780D01*
X160446537Y-56479776D01*
X160310552Y-56309256D01*
X160146301Y-56165754D01*
X159959059Y-56053881D01*
X159805733Y-55996337D01*
X159749885Y-55954352D01*
X159725602Y-55888837D01*
X159740593Y-55820595D01*
X159790100Y-55771291D01*
X159816308Y-55760715D01*
X159858682Y-55749021D01*
X160055192Y-55654387D01*
X160231647Y-55526185D01*
X160382375Y-55368536D01*
X160502531Y-55186508D01*
X160588253Y-54985949D01*
X160636787Y-54773308D01*
X160646573Y-54555418D01*
X160617295Y-54339281D01*
X160549896Y-54131847D01*
X160446540Y-53939780D01*
X160446537Y-53939776D01*
X160310552Y-53769256D01*
X160146301Y-53625754D01*
X159959059Y-53513881D01*
X159805733Y-53456337D01*
X159749885Y-53414352D01*
X159725602Y-53348837D01*
X159740593Y-53280595D01*
X159790100Y-53231291D01*
X159816308Y-53220715D01*
X159858682Y-53209021D01*
X160055192Y-53114387D01*
X160231647Y-52986185D01*
X160382375Y-52828536D01*
X160502531Y-52646508D01*
X160588253Y-52445949D01*
X160636787Y-52233308D01*
X160646573Y-52015418D01*
X160617295Y-51799281D01*
X160549896Y-51591847D01*
X160446540Y-51399780D01*
X160446537Y-51399776D01*
X160310552Y-51229256D01*
X160146301Y-51085754D01*
X160097621Y-51056669D01*
X159959062Y-50973883D01*
X159959057Y-50973880D01*
X159761116Y-50899593D01*
X159705268Y-50857608D01*
X159680984Y-50792094D01*
X159695975Y-50723852D01*
X159745481Y-50674547D01*
X159804686Y-50659500D01*
X165299595Y-50659500D01*
X165366634Y-50679185D01*
X165412389Y-50731989D01*
X165422333Y-50801147D01*
X165393308Y-50864703D01*
X165334530Y-50902477D01*
X165332584Y-50903031D01*
X165231316Y-50930979D01*
X165034810Y-51025611D01*
X164992063Y-51056669D01*
X164858353Y-51153815D01*
X164858351Y-51153816D01*
X164858351Y-51153817D01*
X164707624Y-51311463D01*
X164587471Y-51493488D01*
X164587469Y-51493490D01*
X164587469Y-51493492D01*
X164562781Y-51551252D01*
X164501745Y-51694054D01*
X164453213Y-51906691D01*
X164443426Y-52124580D01*
X164472705Y-52340720D01*
X164540103Y-52548151D01*
X164643462Y-52740223D01*
X164713889Y-52828536D01*
X164779449Y-52910745D01*
X164787651Y-52917911D01*
X164943698Y-53054245D01*
X164943699Y-53054246D01*
X164943702Y-53054248D01*
X165130938Y-53166117D01*
X165130939Y-53166117D01*
X165130942Y-53166119D01*
X165284265Y-53223662D01*
X165340113Y-53265647D01*
X165364397Y-53331161D01*
X165349406Y-53399404D01*
X165299900Y-53448708D01*
X165273685Y-53459286D01*
X165231316Y-53470979D01*
X165034810Y-53565611D01*
X164952034Y-53625752D01*
X164858353Y-53693815D01*
X164858351Y-53693816D01*
X164858351Y-53693817D01*
X164707624Y-53851463D01*
X164587471Y-54033488D01*
X164501745Y-54234054D01*
X164453213Y-54446691D01*
X164443426Y-54664580D01*
X164472705Y-54880720D01*
X164540103Y-55088151D01*
X164643462Y-55280223D01*
X164779447Y-55450743D01*
X164943698Y-55594245D01*
X164943699Y-55594246D01*
X164943702Y-55594248D01*
X165130938Y-55706117D01*
X165130939Y-55706117D01*
X165130942Y-55706119D01*
X165284265Y-55763662D01*
X165340113Y-55805647D01*
X165364397Y-55871161D01*
X165349406Y-55939404D01*
X165299900Y-55988708D01*
X165273685Y-55999286D01*
X165231316Y-56010979D01*
X165034810Y-56105611D01*
X164952034Y-56165752D01*
X164858353Y-56233815D01*
X164858351Y-56233816D01*
X164858351Y-56233817D01*
X164707624Y-56391463D01*
X164587471Y-56573488D01*
X164501745Y-56774054D01*
X164453213Y-56986691D01*
X164443426Y-57204580D01*
X164472705Y-57420720D01*
X164540103Y-57628151D01*
X164643462Y-57820223D01*
X164779447Y-57990743D01*
X164943698Y-58134245D01*
X164943699Y-58134246D01*
X164943702Y-58134248D01*
X165130938Y-58246117D01*
X165130939Y-58246117D01*
X165130942Y-58246119D01*
X165284265Y-58303662D01*
X165340113Y-58345647D01*
X165364397Y-58411161D01*
X165349406Y-58479404D01*
X165299900Y-58528708D01*
X165273685Y-58539286D01*
X165231316Y-58550979D01*
X165034810Y-58645611D01*
X164952034Y-58705752D01*
X164858353Y-58773815D01*
X164858351Y-58773816D01*
X164858351Y-58773817D01*
X164707624Y-58931463D01*
X164587471Y-59113488D01*
X164501745Y-59314054D01*
X164453213Y-59526691D01*
X164443426Y-59744580D01*
X164472705Y-59960720D01*
X164540103Y-60168151D01*
X164643462Y-60360223D01*
X164779447Y-60530743D01*
X164943698Y-60674245D01*
X164943699Y-60674246D01*
X164943702Y-60674248D01*
X165130938Y-60786117D01*
X165130939Y-60786117D01*
X165130942Y-60786119D01*
X165284265Y-60843662D01*
X165340113Y-60885647D01*
X165364397Y-60951161D01*
X165349406Y-61019404D01*
X165299900Y-61068708D01*
X165273685Y-61079286D01*
X165231316Y-61090979D01*
X165034810Y-61185611D01*
X164952034Y-61245752D01*
X164858353Y-61313815D01*
X164858351Y-61313816D01*
X164858351Y-61313817D01*
X164707624Y-61471463D01*
X164587471Y-61653488D01*
X164501745Y-61854054D01*
X164453213Y-62066691D01*
X164443426Y-62284580D01*
X164472705Y-62500720D01*
X164540103Y-62708151D01*
X164643462Y-62900223D01*
X164779447Y-63070743D01*
X164943698Y-63214245D01*
X164943699Y-63214246D01*
X164943702Y-63214248D01*
X165130938Y-63326117D01*
X165130939Y-63326117D01*
X165130942Y-63326119D01*
X165284265Y-63383662D01*
X165340113Y-63425647D01*
X165364397Y-63491161D01*
X165349406Y-63559404D01*
X165299900Y-63608708D01*
X165273685Y-63619286D01*
X165231316Y-63630979D01*
X165034810Y-63725611D01*
X164952034Y-63785752D01*
X164858353Y-63853815D01*
X164858351Y-63853816D01*
X164858351Y-63853817D01*
X164707624Y-64011463D01*
X164587471Y-64193488D01*
X164501745Y-64394054D01*
X164453213Y-64606691D01*
X164443426Y-64824580D01*
X164472705Y-65040720D01*
X164540103Y-65248151D01*
X164643462Y-65440223D01*
X164779447Y-65610743D01*
X164943698Y-65754245D01*
X164943699Y-65754246D01*
X164943702Y-65754248D01*
X165130938Y-65866117D01*
X165130939Y-65866117D01*
X165130942Y-65866119D01*
X165284265Y-65923662D01*
X165340113Y-65965647D01*
X165364397Y-66031161D01*
X165349406Y-66099404D01*
X165299900Y-66148708D01*
X165273685Y-66159286D01*
X165231316Y-66170979D01*
X165034810Y-66265611D01*
X164952034Y-66325752D01*
X164858353Y-66393815D01*
X164858351Y-66393816D01*
X164858351Y-66393817D01*
X164707624Y-66551463D01*
X164587471Y-66733488D01*
X164501745Y-66934054D01*
X164453213Y-67146691D01*
X164443426Y-67364580D01*
X164472705Y-67580720D01*
X164540103Y-67788151D01*
X164643462Y-67980223D01*
X164779447Y-68150743D01*
X164943698Y-68294245D01*
X164943699Y-68294246D01*
X164943702Y-68294248D01*
X165130938Y-68406117D01*
X165130939Y-68406117D01*
X165130942Y-68406119D01*
X165284265Y-68463662D01*
X165340113Y-68505647D01*
X165364397Y-68571161D01*
X165349406Y-68639404D01*
X165299900Y-68688708D01*
X165273685Y-68699286D01*
X165231316Y-68710979D01*
X165034810Y-68805611D01*
X164952034Y-68865752D01*
X164858353Y-68933815D01*
X164858351Y-68933816D01*
X164858351Y-68933817D01*
X164707624Y-69091463D01*
X164587471Y-69273488D01*
X164501745Y-69474054D01*
X164453213Y-69686691D01*
X164443426Y-69904580D01*
X164472705Y-70120720D01*
X164540103Y-70328151D01*
X164643462Y-70520223D01*
X164779447Y-70690743D01*
X164943698Y-70834245D01*
X164943699Y-70834246D01*
X164943702Y-70834248D01*
X165130938Y-70946117D01*
X165130939Y-70946117D01*
X165130942Y-70946119D01*
X165284265Y-71003662D01*
X165340113Y-71045647D01*
X165364397Y-71111161D01*
X165349406Y-71179404D01*
X165299900Y-71228708D01*
X165273685Y-71239286D01*
X165231316Y-71250979D01*
X165034810Y-71345611D01*
X164952034Y-71405752D01*
X164858353Y-71473815D01*
X164858351Y-71473816D01*
X164858351Y-71473817D01*
X164707624Y-71631463D01*
X164587471Y-71813488D01*
X164501745Y-72014054D01*
X164453213Y-72226691D01*
X164443426Y-72444580D01*
X164472705Y-72660720D01*
X164540103Y-72868151D01*
X164643462Y-73060223D01*
X164779447Y-73230743D01*
X164943698Y-73374245D01*
X164943699Y-73374246D01*
X164943702Y-73374248D01*
X165130938Y-73486117D01*
X165130939Y-73486117D01*
X165130942Y-73486119D01*
X165284265Y-73543662D01*
X165340113Y-73585647D01*
X165364397Y-73651161D01*
X165349406Y-73719404D01*
X165299900Y-73768708D01*
X165273685Y-73779286D01*
X165231316Y-73790979D01*
X165034810Y-73885611D01*
X164952034Y-73945752D01*
X164858353Y-74013815D01*
X164858351Y-74013816D01*
X164858351Y-74013817D01*
X164707624Y-74171463D01*
X164587471Y-74353488D01*
X164501745Y-74554054D01*
X164453213Y-74766691D01*
X164443426Y-74984580D01*
X164472705Y-75200720D01*
X164536783Y-75397934D01*
X164540104Y-75408153D01*
X164642672Y-75598756D01*
X164643462Y-75600223D01*
X164779447Y-75770743D01*
X164943698Y-75914245D01*
X164943699Y-75914246D01*
X164943702Y-75914248D01*
X165130938Y-76026117D01*
X165130939Y-76026117D01*
X165130942Y-76026119D01*
X165284265Y-76083662D01*
X165340113Y-76125647D01*
X165364397Y-76191161D01*
X165349406Y-76259404D01*
X165299900Y-76308708D01*
X165273685Y-76319286D01*
X165231316Y-76330979D01*
X165034810Y-76425611D01*
X164952034Y-76485752D01*
X164858353Y-76553815D01*
X164858351Y-76553816D01*
X164858351Y-76553817D01*
X164707624Y-76711463D01*
X164587471Y-76893488D01*
X164587469Y-76893490D01*
X164587469Y-76893492D01*
X164562781Y-76951252D01*
X164501745Y-77094054D01*
X164453213Y-77306691D01*
X164443426Y-77524580D01*
X164472705Y-77740720D01*
X164506894Y-77845945D01*
X164540104Y-77948153D01*
X164607245Y-78072922D01*
X164643462Y-78140223D01*
X164779447Y-78310743D01*
X164943698Y-78454245D01*
X164943699Y-78454246D01*
X164943702Y-78454248D01*
X165130938Y-78566117D01*
X165130939Y-78566117D01*
X165130942Y-78566119D01*
X165284265Y-78623662D01*
X165340113Y-78665647D01*
X165364397Y-78731161D01*
X165349406Y-78799404D01*
X165299900Y-78848708D01*
X165273685Y-78859286D01*
X165231316Y-78870979D01*
X165034810Y-78965611D01*
X164952034Y-79025752D01*
X164858353Y-79093815D01*
X164858351Y-79093816D01*
X164858351Y-79093817D01*
X164707624Y-79251463D01*
X164587471Y-79433488D01*
X164501745Y-79634054D01*
X164453213Y-79846691D01*
X164443426Y-80064580D01*
X164472705Y-80280720D01*
X164540103Y-80488151D01*
X164643462Y-80680223D01*
X164779447Y-80850743D01*
X164943698Y-80994245D01*
X164943699Y-80994246D01*
X164943702Y-80994248D01*
X165130938Y-81106117D01*
X165130939Y-81106117D01*
X165130942Y-81106119D01*
X165284265Y-81163662D01*
X165340113Y-81205647D01*
X165364397Y-81271161D01*
X165349406Y-81339404D01*
X165299900Y-81388708D01*
X165273685Y-81399286D01*
X165231316Y-81410979D01*
X165034810Y-81505611D01*
X164952034Y-81565752D01*
X164858353Y-81633815D01*
X164858351Y-81633816D01*
X164858351Y-81633817D01*
X164707624Y-81791463D01*
X164587471Y-81973488D01*
X164501745Y-82174054D01*
X164453213Y-82386691D01*
X164443426Y-82604580D01*
X164472705Y-82820720D01*
X164540103Y-83028151D01*
X164643462Y-83220223D01*
X164779447Y-83390743D01*
X164943698Y-83534245D01*
X164943699Y-83534246D01*
X164943702Y-83534248D01*
X165130938Y-83646117D01*
X165130939Y-83646117D01*
X165130942Y-83646119D01*
X165284265Y-83703662D01*
X165340113Y-83745647D01*
X165364397Y-83811161D01*
X165349406Y-83879404D01*
X165299900Y-83928708D01*
X165273685Y-83939286D01*
X165231316Y-83950979D01*
X165034810Y-84045611D01*
X164952034Y-84105752D01*
X164858353Y-84173815D01*
X164858351Y-84173816D01*
X164858351Y-84173817D01*
X164707624Y-84331463D01*
X164587471Y-84513488D01*
X164501745Y-84714054D01*
X164453213Y-84926691D01*
X164443426Y-85144580D01*
X164472705Y-85360720D01*
X164540103Y-85568151D01*
X164643462Y-85760223D01*
X164779447Y-85930743D01*
X164943698Y-86074245D01*
X164943699Y-86074246D01*
X164943702Y-86074248D01*
X165130938Y-86186117D01*
X165130939Y-86186117D01*
X165130942Y-86186119D01*
X165284265Y-86243662D01*
X165340113Y-86285647D01*
X165364397Y-86351161D01*
X165349406Y-86419404D01*
X165299900Y-86468708D01*
X165273685Y-86479286D01*
X165231316Y-86490979D01*
X165034810Y-86585611D01*
X164952034Y-86645752D01*
X164858353Y-86713815D01*
X164858351Y-86713816D01*
X164858351Y-86713817D01*
X164707624Y-86871463D01*
X164587471Y-87053488D01*
X164501745Y-87254054D01*
X164453213Y-87466691D01*
X164443426Y-87684580D01*
X164472705Y-87900720D01*
X164537189Y-88099184D01*
X164540104Y-88108153D01*
X164612694Y-88243048D01*
X164643462Y-88300223D01*
X164779447Y-88470743D01*
X164943698Y-88614245D01*
X164943699Y-88614246D01*
X164943702Y-88614248D01*
X165130938Y-88726117D01*
X165130939Y-88726117D01*
X165130942Y-88726119D01*
X165284265Y-88783662D01*
X165340113Y-88825647D01*
X165364397Y-88891161D01*
X165349406Y-88959404D01*
X165299900Y-89008708D01*
X165273685Y-89019286D01*
X165231316Y-89030979D01*
X165034810Y-89125611D01*
X164952034Y-89185752D01*
X164858353Y-89253815D01*
X164858351Y-89253816D01*
X164858351Y-89253817D01*
X164707624Y-89411463D01*
X164587471Y-89593488D01*
X164501745Y-89794054D01*
X164453213Y-90006691D01*
X164443426Y-90224580D01*
X164472705Y-90440720D01*
X164540103Y-90648151D01*
X164643462Y-90840223D01*
X164779447Y-91010743D01*
X164943698Y-91154245D01*
X164943699Y-91154246D01*
X164943702Y-91154248D01*
X165130938Y-91266117D01*
X165130939Y-91266117D01*
X165130942Y-91266119D01*
X165284265Y-91323662D01*
X165340113Y-91365647D01*
X165364397Y-91431161D01*
X165349406Y-91499404D01*
X165299900Y-91548708D01*
X165273685Y-91559286D01*
X165231316Y-91570979D01*
X165034810Y-91665611D01*
X164952034Y-91725752D01*
X164858353Y-91793815D01*
X164858351Y-91793816D01*
X164858351Y-91793817D01*
X164707624Y-91951463D01*
X164587471Y-92133488D01*
X164501745Y-92334054D01*
X164453213Y-92546691D01*
X164443426Y-92764580D01*
X164472705Y-92980720D01*
X164540103Y-93188151D01*
X164643462Y-93380223D01*
X164779447Y-93550743D01*
X164943698Y-93694245D01*
X164943699Y-93694246D01*
X164943702Y-93694248D01*
X165130938Y-93806117D01*
X165130939Y-93806117D01*
X165130942Y-93806119D01*
X165284265Y-93863662D01*
X165340113Y-93905647D01*
X165364397Y-93971161D01*
X165349406Y-94039404D01*
X165299900Y-94088708D01*
X165273685Y-94099286D01*
X165231316Y-94110979D01*
X165034810Y-94205611D01*
X164952034Y-94265752D01*
X164858353Y-94333815D01*
X164858351Y-94333816D01*
X164858351Y-94333817D01*
X164707624Y-94491463D01*
X164587471Y-94673488D01*
X164501745Y-94874054D01*
X164453213Y-95086691D01*
X164443426Y-95304580D01*
X164472705Y-95520720D01*
X164538047Y-95721824D01*
X164540104Y-95728153D01*
X164575551Y-95794025D01*
X164643462Y-95920223D01*
X164779447Y-96090743D01*
X164943698Y-96234245D01*
X164943699Y-96234246D01*
X164943702Y-96234248D01*
X165130938Y-96346117D01*
X165130939Y-96346117D01*
X165130942Y-96346119D01*
X165285062Y-96403961D01*
X165340910Y-96445946D01*
X165365194Y-96511460D01*
X165350203Y-96579703D01*
X165300697Y-96629007D01*
X165274481Y-96639585D01*
X165231493Y-96651449D01*
X165035067Y-96746041D01*
X164858684Y-96874192D01*
X164708015Y-97031780D01*
X164587910Y-97213731D01*
X164502224Y-97414203D01*
X164473512Y-97539999D01*
X164473512Y-97540000D01*
X165994722Y-97540000D01*
X165946375Y-97623740D01*
X165916190Y-97755992D01*
X165926327Y-97891265D01*
X165975887Y-98017541D01*
X165993797Y-98040000D01*
X164470403Y-98040000D01*
X164473193Y-98060606D01*
X164540565Y-98267954D01*
X164643881Y-98459947D01*
X164779810Y-98630397D01*
X164943993Y-98773839D01*
X165131160Y-98885667D01*
X165335273Y-98962271D01*
X165549789Y-99001200D01*
X166120000Y-99001200D01*
X166120000Y-98164189D01*
X166172547Y-98200016D01*
X166302173Y-98240000D01*
X166403724Y-98240000D01*
X166504138Y-98224865D01*
X166620000Y-98169068D01*
X166620000Y-99001200D01*
X167132822Y-99001200D01*
X167138360Y-99000951D01*
X167298345Y-98986552D01*
X167508507Y-98928550D01*
X167704932Y-98833958D01*
X167881315Y-98705807D01*
X168031984Y-98548219D01*
X168152089Y-98366268D01*
X168237775Y-98165796D01*
X168266488Y-98040000D01*
X166745278Y-98040000D01*
X166793625Y-97956260D01*
X166823810Y-97824008D01*
X166813673Y-97688735D01*
X166764113Y-97562459D01*
X166746203Y-97540000D01*
X168269597Y-97540000D01*
X168266806Y-97519393D01*
X168199434Y-97312045D01*
X168096118Y-97120052D01*
X167960189Y-96949602D01*
X167796006Y-96806160D01*
X167608841Y-96694333D01*
X167454913Y-96636563D01*
X167399065Y-96594577D01*
X167374782Y-96529063D01*
X167389773Y-96460821D01*
X167439280Y-96411517D01*
X167465485Y-96400942D01*
X167508682Y-96389021D01*
X167705192Y-96294387D01*
X167881647Y-96166185D01*
X168032375Y-96008536D01*
X168152531Y-95826508D01*
X168238253Y-95625949D01*
X168286787Y-95413308D01*
X168296573Y-95195418D01*
X168267295Y-94979281D01*
X168199896Y-94771847D01*
X168096540Y-94579780D01*
X168096537Y-94579776D01*
X167960552Y-94409256D01*
X167796301Y-94265754D01*
X167609059Y-94153881D01*
X167455733Y-94096337D01*
X167399885Y-94054352D01*
X167375602Y-93988837D01*
X167390593Y-93920595D01*
X167440100Y-93871291D01*
X167466308Y-93860715D01*
X167508682Y-93849021D01*
X167705192Y-93754387D01*
X167881647Y-93626185D01*
X168032375Y-93468536D01*
X168152531Y-93286508D01*
X168238253Y-93085949D01*
X168286787Y-92873308D01*
X168296573Y-92655418D01*
X168267295Y-92439281D01*
X168199896Y-92231847D01*
X168096540Y-92039780D01*
X168096537Y-92039776D01*
X167960552Y-91869256D01*
X167796301Y-91725754D01*
X167609059Y-91613881D01*
X167455733Y-91556337D01*
X167399885Y-91514352D01*
X167375602Y-91448837D01*
X167390593Y-91380595D01*
X167440100Y-91331291D01*
X167466308Y-91320715D01*
X167508682Y-91309021D01*
X167705192Y-91214387D01*
X167881647Y-91086185D01*
X168032375Y-90928536D01*
X168152531Y-90746508D01*
X168238253Y-90545949D01*
X168286787Y-90333308D01*
X168296573Y-90115418D01*
X168267295Y-89899281D01*
X168199896Y-89691847D01*
X168096540Y-89499780D01*
X168096537Y-89499776D01*
X167960552Y-89329256D01*
X167796301Y-89185754D01*
X167609059Y-89073881D01*
X167455733Y-89016337D01*
X167399885Y-88974352D01*
X167375602Y-88908837D01*
X167390593Y-88840595D01*
X167440100Y-88791291D01*
X167466308Y-88780715D01*
X167508682Y-88769021D01*
X167705192Y-88674387D01*
X167881647Y-88546185D01*
X168032375Y-88388536D01*
X168152531Y-88206508D01*
X168238253Y-88005949D01*
X168286787Y-87793308D01*
X168296573Y-87575418D01*
X168267295Y-87359281D01*
X168199896Y-87151847D01*
X168096540Y-86959780D01*
X168096537Y-86959776D01*
X167960552Y-86789256D01*
X167796301Y-86645754D01*
X167609059Y-86533881D01*
X167455733Y-86476337D01*
X167399885Y-86434352D01*
X167375602Y-86368837D01*
X167390593Y-86300595D01*
X167440100Y-86251291D01*
X167466308Y-86240715D01*
X167508682Y-86229021D01*
X167705192Y-86134387D01*
X167881647Y-86006185D01*
X168032375Y-85848536D01*
X168152531Y-85666508D01*
X168238253Y-85465949D01*
X168286787Y-85253308D01*
X168296573Y-85035418D01*
X168267295Y-84819281D01*
X168199896Y-84611847D01*
X168096540Y-84419780D01*
X168096537Y-84419776D01*
X167960552Y-84249256D01*
X167796301Y-84105754D01*
X167609059Y-83993881D01*
X167455733Y-83936337D01*
X167399885Y-83894352D01*
X167375602Y-83828837D01*
X167390593Y-83760595D01*
X167440100Y-83711291D01*
X167466308Y-83700715D01*
X167508682Y-83689021D01*
X167705192Y-83594387D01*
X167881647Y-83466185D01*
X168032375Y-83308536D01*
X168152531Y-83126508D01*
X168238253Y-82925949D01*
X168286787Y-82713308D01*
X168296573Y-82495418D01*
X168267295Y-82279281D01*
X168199896Y-82071847D01*
X168096540Y-81879780D01*
X168096537Y-81879776D01*
X167960552Y-81709256D01*
X167796301Y-81565754D01*
X167609059Y-81453881D01*
X167455733Y-81396337D01*
X167399885Y-81354352D01*
X167375602Y-81288837D01*
X167390593Y-81220595D01*
X167440100Y-81171291D01*
X167466308Y-81160715D01*
X167508682Y-81149021D01*
X167705192Y-81054387D01*
X167881647Y-80926185D01*
X168032375Y-80768536D01*
X168152531Y-80586508D01*
X168238253Y-80385949D01*
X168286787Y-80173308D01*
X168296573Y-79955418D01*
X168267295Y-79739281D01*
X168199896Y-79531847D01*
X168096540Y-79339780D01*
X168058454Y-79292021D01*
X167960552Y-79169256D01*
X167796301Y-79025754D01*
X167761439Y-79004925D01*
X167609062Y-78913883D01*
X167609059Y-78913881D01*
X167455733Y-78856337D01*
X167399885Y-78814352D01*
X167375602Y-78748837D01*
X167390593Y-78680595D01*
X167440100Y-78631291D01*
X167466308Y-78620715D01*
X167508682Y-78609021D01*
X167705192Y-78514387D01*
X167881647Y-78386185D01*
X168032375Y-78228536D01*
X168152531Y-78046508D01*
X168238253Y-77845949D01*
X168286787Y-77633308D01*
X168296573Y-77415418D01*
X168267295Y-77199281D01*
X168199896Y-76991847D01*
X168096540Y-76799780D01*
X168081896Y-76781417D01*
X167960552Y-76629256D01*
X167796301Y-76485754D01*
X167747564Y-76456635D01*
X167609062Y-76373883D01*
X167609059Y-76373881D01*
X167455733Y-76316337D01*
X167399885Y-76274352D01*
X167375602Y-76208837D01*
X167390593Y-76140595D01*
X167440100Y-76091291D01*
X167466308Y-76080715D01*
X167508682Y-76069021D01*
X167705192Y-75974387D01*
X167881647Y-75846185D01*
X168032375Y-75688536D01*
X168152531Y-75506508D01*
X168238253Y-75305949D01*
X168286787Y-75093308D01*
X168296573Y-74875418D01*
X168267295Y-74659281D01*
X168199896Y-74451847D01*
X168096540Y-74259780D01*
X168096537Y-74259776D01*
X167960552Y-74089256D01*
X167796301Y-73945754D01*
X167609059Y-73833881D01*
X167455733Y-73776337D01*
X167399885Y-73734352D01*
X167375602Y-73668837D01*
X167390593Y-73600595D01*
X167440100Y-73551291D01*
X167466308Y-73540715D01*
X167508682Y-73529021D01*
X167705192Y-73434387D01*
X167881647Y-73306185D01*
X168032375Y-73148536D01*
X168152531Y-72966508D01*
X168238253Y-72765949D01*
X168286787Y-72553308D01*
X168296573Y-72335418D01*
X168267295Y-72119281D01*
X168199896Y-71911847D01*
X168096540Y-71719780D01*
X168096537Y-71719776D01*
X167960552Y-71549256D01*
X167796301Y-71405754D01*
X167609059Y-71293881D01*
X167455733Y-71236337D01*
X167399885Y-71194352D01*
X167375602Y-71128837D01*
X167390593Y-71060595D01*
X167440100Y-71011291D01*
X167466308Y-71000715D01*
X167508682Y-70989021D01*
X167705192Y-70894387D01*
X167881647Y-70766185D01*
X168032375Y-70608536D01*
X168152531Y-70426508D01*
X168238253Y-70225949D01*
X168286787Y-70013308D01*
X168296573Y-69795418D01*
X168267295Y-69579281D01*
X168199896Y-69371847D01*
X168096540Y-69179780D01*
X168096537Y-69179776D01*
X167960552Y-69009256D01*
X167796301Y-68865754D01*
X167609059Y-68753881D01*
X167455733Y-68696337D01*
X167399885Y-68654352D01*
X167375602Y-68588837D01*
X167390593Y-68520595D01*
X167440100Y-68471291D01*
X167466308Y-68460715D01*
X167508682Y-68449021D01*
X167705192Y-68354387D01*
X167881647Y-68226185D01*
X168032375Y-68068536D01*
X168152531Y-67886508D01*
X168238253Y-67685949D01*
X168286787Y-67473308D01*
X168296573Y-67255418D01*
X168267295Y-67039281D01*
X168199896Y-66831847D01*
X168096540Y-66639780D01*
X168096537Y-66639776D01*
X167960552Y-66469256D01*
X167796301Y-66325754D01*
X167609059Y-66213881D01*
X167455733Y-66156337D01*
X167399885Y-66114352D01*
X167375602Y-66048837D01*
X167390593Y-65980595D01*
X167440100Y-65931291D01*
X167466308Y-65920715D01*
X167508682Y-65909021D01*
X167705192Y-65814387D01*
X167881647Y-65686185D01*
X168032375Y-65528536D01*
X168152531Y-65346508D01*
X168238253Y-65145949D01*
X168286787Y-64933308D01*
X168296573Y-64715418D01*
X168267295Y-64499281D01*
X168199896Y-64291847D01*
X168096540Y-64099780D01*
X168096537Y-64099776D01*
X167960552Y-63929256D01*
X167796301Y-63785754D01*
X167609059Y-63673881D01*
X167455733Y-63616337D01*
X167399885Y-63574352D01*
X167375602Y-63508837D01*
X167390593Y-63440595D01*
X167440100Y-63391291D01*
X167466308Y-63380715D01*
X167508682Y-63369021D01*
X167705192Y-63274387D01*
X167881647Y-63146185D01*
X168032375Y-62988536D01*
X168152531Y-62806508D01*
X168238253Y-62605949D01*
X168286787Y-62393308D01*
X168296573Y-62175418D01*
X168267295Y-61959281D01*
X168199896Y-61751847D01*
X168096540Y-61559780D01*
X168096537Y-61559776D01*
X167960552Y-61389256D01*
X167796301Y-61245754D01*
X167609059Y-61133881D01*
X167455733Y-61076337D01*
X167399885Y-61034352D01*
X167375602Y-60968837D01*
X167390593Y-60900595D01*
X167440100Y-60851291D01*
X167466308Y-60840715D01*
X167508682Y-60829021D01*
X167705192Y-60734387D01*
X167881647Y-60606185D01*
X168032375Y-60448536D01*
X168152531Y-60266508D01*
X168238253Y-60065949D01*
X168286787Y-59853308D01*
X168296573Y-59635418D01*
X168267295Y-59419281D01*
X168199896Y-59211847D01*
X168096540Y-59019780D01*
X168096537Y-59019776D01*
X167960552Y-58849256D01*
X167796301Y-58705754D01*
X167609059Y-58593881D01*
X167455733Y-58536337D01*
X167399885Y-58494352D01*
X167375602Y-58428837D01*
X167390593Y-58360595D01*
X167440100Y-58311291D01*
X167466308Y-58300715D01*
X167508682Y-58289021D01*
X167705192Y-58194387D01*
X167881647Y-58066185D01*
X168032375Y-57908536D01*
X168152531Y-57726508D01*
X168238253Y-57525949D01*
X168286787Y-57313308D01*
X168296573Y-57095418D01*
X168267295Y-56879281D01*
X168199896Y-56671847D01*
X168096540Y-56479780D01*
X168096537Y-56479776D01*
X167960552Y-56309256D01*
X167796301Y-56165754D01*
X167609059Y-56053881D01*
X167455733Y-55996337D01*
X167399885Y-55954352D01*
X167375602Y-55888837D01*
X167390593Y-55820595D01*
X167440100Y-55771291D01*
X167466308Y-55760715D01*
X167508682Y-55749021D01*
X167705192Y-55654387D01*
X167881647Y-55526185D01*
X168032375Y-55368536D01*
X168152531Y-55186508D01*
X168238253Y-54985949D01*
X168286787Y-54773308D01*
X168296573Y-54555418D01*
X168267295Y-54339281D01*
X168199896Y-54131847D01*
X168096540Y-53939780D01*
X168096537Y-53939776D01*
X167960552Y-53769256D01*
X167796301Y-53625754D01*
X167609059Y-53513881D01*
X167455733Y-53456337D01*
X167399885Y-53414352D01*
X167375602Y-53348837D01*
X167390593Y-53280595D01*
X167440100Y-53231291D01*
X167466308Y-53220715D01*
X167508682Y-53209021D01*
X167705192Y-53114387D01*
X167881647Y-52986185D01*
X168032375Y-52828536D01*
X168152531Y-52646508D01*
X168238253Y-52445949D01*
X168286787Y-52233308D01*
X168296573Y-52015418D01*
X168267295Y-51799281D01*
X168199896Y-51591847D01*
X168096540Y-51399780D01*
X168096537Y-51399776D01*
X167960552Y-51229256D01*
X167796301Y-51085754D01*
X167747621Y-51056669D01*
X167609062Y-50973883D01*
X167609057Y-50973880D01*
X167411118Y-50899593D01*
X167355270Y-50857608D01*
X167330986Y-50792094D01*
X167345977Y-50723851D01*
X167395483Y-50674547D01*
X167454688Y-50659500D01*
X187164994Y-50659500D01*
X187232033Y-50679185D01*
X187252675Y-50695819D01*
X187613525Y-51056669D01*
X187647010Y-51117992D01*
X187642026Y-51187684D01*
X187615472Y-51230041D01*
X187537623Y-51311466D01*
X187417471Y-51493488D01*
X187417469Y-51493490D01*
X187417469Y-51493492D01*
X187392781Y-51551252D01*
X187331745Y-51694054D01*
X187283213Y-51906691D01*
X187273426Y-52124580D01*
X187302705Y-52340720D01*
X187370103Y-52548151D01*
X187473462Y-52740223D01*
X187543889Y-52828536D01*
X187609449Y-52910745D01*
X187617651Y-52917911D01*
X187773698Y-53054245D01*
X187773699Y-53054246D01*
X187773702Y-53054248D01*
X187960938Y-53166117D01*
X187960939Y-53166117D01*
X187960942Y-53166119D01*
X188114265Y-53223662D01*
X188170113Y-53265647D01*
X188194397Y-53331161D01*
X188179406Y-53399404D01*
X188129900Y-53448708D01*
X188103685Y-53459286D01*
X188061316Y-53470979D01*
X187864810Y-53565611D01*
X187782034Y-53625752D01*
X187688353Y-53693815D01*
X187688351Y-53693816D01*
X187688351Y-53693817D01*
X187537624Y-53851463D01*
X187417471Y-54033488D01*
X187331745Y-54234054D01*
X187283213Y-54446691D01*
X187273426Y-54664580D01*
X187302705Y-54880720D01*
X187370103Y-55088151D01*
X187473462Y-55280223D01*
X187609447Y-55450743D01*
X187773698Y-55594245D01*
X187773699Y-55594246D01*
X187773702Y-55594248D01*
X187960938Y-55706117D01*
X187960939Y-55706117D01*
X187960942Y-55706119D01*
X188114265Y-55763662D01*
X188170113Y-55805647D01*
X188194397Y-55871161D01*
X188179406Y-55939404D01*
X188129900Y-55988708D01*
X188103685Y-55999286D01*
X188061316Y-56010979D01*
X187864810Y-56105611D01*
X187782034Y-56165752D01*
X187688353Y-56233815D01*
X187688351Y-56233816D01*
X187688351Y-56233817D01*
X187537624Y-56391463D01*
X187417471Y-56573488D01*
X187331745Y-56774054D01*
X187283213Y-56986691D01*
X187273426Y-57204580D01*
X187302705Y-57420720D01*
X187370103Y-57628151D01*
X187473462Y-57820223D01*
X187609447Y-57990743D01*
X187773698Y-58134245D01*
X187773699Y-58134246D01*
X187773702Y-58134248D01*
X187960938Y-58246117D01*
X187960939Y-58246117D01*
X187960942Y-58246119D01*
X188114265Y-58303662D01*
X188170113Y-58345647D01*
X188194397Y-58411161D01*
X188179406Y-58479404D01*
X188129900Y-58528708D01*
X188103685Y-58539286D01*
X188061316Y-58550979D01*
X187864810Y-58645611D01*
X187782034Y-58705752D01*
X187688353Y-58773815D01*
X187688351Y-58773816D01*
X187688351Y-58773817D01*
X187537624Y-58931463D01*
X187417471Y-59113488D01*
X187331745Y-59314054D01*
X187283213Y-59526691D01*
X187273426Y-59744580D01*
X187302705Y-59960720D01*
X187370103Y-60168151D01*
X187473462Y-60360223D01*
X187609447Y-60530743D01*
X187773698Y-60674245D01*
X187773699Y-60674246D01*
X187773702Y-60674248D01*
X187960938Y-60786117D01*
X187960939Y-60786117D01*
X187960942Y-60786119D01*
X188114265Y-60843662D01*
X188170113Y-60885647D01*
X188194397Y-60951161D01*
X188179406Y-61019404D01*
X188129900Y-61068708D01*
X188103685Y-61079286D01*
X188061316Y-61090979D01*
X187864810Y-61185611D01*
X187782034Y-61245752D01*
X187688353Y-61313815D01*
X187688351Y-61313816D01*
X187688351Y-61313817D01*
X187537624Y-61471463D01*
X187417471Y-61653488D01*
X187331745Y-61854054D01*
X187283213Y-62066691D01*
X187273426Y-62284580D01*
X187302705Y-62500720D01*
X187370103Y-62708151D01*
X187473462Y-62900223D01*
X187609447Y-63070743D01*
X187773698Y-63214245D01*
X187773699Y-63214246D01*
X187773702Y-63214248D01*
X187960938Y-63326117D01*
X187960939Y-63326117D01*
X187960942Y-63326119D01*
X188114265Y-63383662D01*
X188170113Y-63425647D01*
X188194397Y-63491161D01*
X188179406Y-63559404D01*
X188129900Y-63608708D01*
X188103685Y-63619286D01*
X188061316Y-63630979D01*
X187864810Y-63725611D01*
X187782034Y-63785752D01*
X187688353Y-63853815D01*
X187688351Y-63853816D01*
X187688351Y-63853817D01*
X187537624Y-64011463D01*
X187417471Y-64193488D01*
X187331745Y-64394054D01*
X187283213Y-64606691D01*
X187273426Y-64824580D01*
X187302705Y-65040720D01*
X187370103Y-65248151D01*
X187473462Y-65440223D01*
X187609447Y-65610743D01*
X187773698Y-65754245D01*
X187773699Y-65754246D01*
X187773702Y-65754248D01*
X187960938Y-65866117D01*
X187960939Y-65866117D01*
X187960942Y-65866119D01*
X188114265Y-65923662D01*
X188170113Y-65965647D01*
X188194397Y-66031161D01*
X188179406Y-66099404D01*
X188129900Y-66148708D01*
X188103685Y-66159286D01*
X188061316Y-66170979D01*
X187864810Y-66265611D01*
X187782034Y-66325752D01*
X187688353Y-66393815D01*
X187688351Y-66393816D01*
X187688351Y-66393817D01*
X187537624Y-66551463D01*
X187417471Y-66733488D01*
X187331745Y-66934054D01*
X187283213Y-67146691D01*
X187273426Y-67364580D01*
X187302705Y-67580720D01*
X187370103Y-67788151D01*
X187473462Y-67980223D01*
X187609447Y-68150743D01*
X187773698Y-68294245D01*
X187773699Y-68294246D01*
X187773702Y-68294248D01*
X187960938Y-68406117D01*
X187960939Y-68406117D01*
X187960942Y-68406119D01*
X188114265Y-68463662D01*
X188170113Y-68505647D01*
X188194397Y-68571161D01*
X188179406Y-68639404D01*
X188129900Y-68688708D01*
X188103685Y-68699286D01*
X188061316Y-68710979D01*
X187864810Y-68805611D01*
X187782034Y-68865752D01*
X187688353Y-68933815D01*
X187688351Y-68933816D01*
X187688351Y-68933817D01*
X187537624Y-69091463D01*
X187417471Y-69273488D01*
X187331745Y-69474054D01*
X187283213Y-69686691D01*
X187273426Y-69904580D01*
X187302705Y-70120720D01*
X187370103Y-70328151D01*
X187473462Y-70520223D01*
X187609447Y-70690743D01*
X187773698Y-70834245D01*
X187773699Y-70834246D01*
X187773702Y-70834248D01*
X187960938Y-70946117D01*
X187960939Y-70946117D01*
X187960942Y-70946119D01*
X188114265Y-71003662D01*
X188170113Y-71045647D01*
X188194397Y-71111161D01*
X188179406Y-71179404D01*
X188129900Y-71228708D01*
X188103685Y-71239286D01*
X188061316Y-71250979D01*
X187864810Y-71345611D01*
X187782034Y-71405752D01*
X187688353Y-71473815D01*
X187688351Y-71473816D01*
X187688351Y-71473817D01*
X187537624Y-71631463D01*
X187417471Y-71813488D01*
X187331745Y-72014054D01*
X187283213Y-72226691D01*
X187273426Y-72444580D01*
X187302705Y-72660720D01*
X187370103Y-72868151D01*
X187473462Y-73060223D01*
X187609447Y-73230743D01*
X187773698Y-73374245D01*
X187773699Y-73374246D01*
X187773702Y-73374248D01*
X187960938Y-73486117D01*
X187960939Y-73486117D01*
X187960942Y-73486119D01*
X188114265Y-73543662D01*
X188170113Y-73585647D01*
X188194397Y-73651161D01*
X188179406Y-73719404D01*
X188129900Y-73768708D01*
X188103685Y-73779286D01*
X188061316Y-73790979D01*
X187864810Y-73885611D01*
X187782034Y-73945752D01*
X187688353Y-74013815D01*
X187688351Y-74013816D01*
X187688351Y-74013817D01*
X187537624Y-74171463D01*
X187417471Y-74353488D01*
X187331745Y-74554054D01*
X187283213Y-74766691D01*
X187273426Y-74984580D01*
X187302705Y-75200720D01*
X187366783Y-75397934D01*
X187370104Y-75408153D01*
X187472672Y-75598756D01*
X187473462Y-75600223D01*
X187609447Y-75770743D01*
X187773698Y-75914245D01*
X187773699Y-75914246D01*
X187773702Y-75914248D01*
X187960938Y-76026117D01*
X187960939Y-76026117D01*
X187960942Y-76026119D01*
X188114265Y-76083662D01*
X188170113Y-76125647D01*
X188194397Y-76191161D01*
X188179406Y-76259404D01*
X188129900Y-76308708D01*
X188103685Y-76319286D01*
X188061316Y-76330979D01*
X187864810Y-76425611D01*
X187782034Y-76485752D01*
X187688353Y-76553815D01*
X187688351Y-76553816D01*
X187688351Y-76553817D01*
X187537624Y-76711463D01*
X187417471Y-76893488D01*
X187417469Y-76893490D01*
X187417469Y-76893492D01*
X187392781Y-76951252D01*
X187331745Y-77094054D01*
X187283213Y-77306691D01*
X187273426Y-77524580D01*
X187302705Y-77740720D01*
X187336894Y-77845945D01*
X187370104Y-77948153D01*
X187437245Y-78072922D01*
X187473462Y-78140223D01*
X187609447Y-78310743D01*
X187773698Y-78454245D01*
X187773699Y-78454246D01*
X187773702Y-78454248D01*
X187960938Y-78566117D01*
X187960939Y-78566117D01*
X187960942Y-78566119D01*
X188114265Y-78623662D01*
X188170113Y-78665647D01*
X188194397Y-78731161D01*
X188179406Y-78799404D01*
X188129900Y-78848708D01*
X188103685Y-78859286D01*
X188061316Y-78870979D01*
X187864810Y-78965611D01*
X187782034Y-79025752D01*
X187688353Y-79093815D01*
X187688351Y-79093816D01*
X187688351Y-79093817D01*
X187537624Y-79251463D01*
X187417471Y-79433488D01*
X187331745Y-79634054D01*
X187283213Y-79846691D01*
X187273426Y-80064580D01*
X187302705Y-80280720D01*
X187370103Y-80488151D01*
X187473462Y-80680223D01*
X187609447Y-80850743D01*
X187773698Y-80994245D01*
X187773699Y-80994246D01*
X187773702Y-80994248D01*
X187960938Y-81106117D01*
X187960939Y-81106117D01*
X187960942Y-81106119D01*
X188114265Y-81163662D01*
X188170113Y-81205647D01*
X188194397Y-81271161D01*
X188179406Y-81339404D01*
X188129900Y-81388708D01*
X188103685Y-81399286D01*
X188061316Y-81410979D01*
X187864810Y-81505611D01*
X187782034Y-81565752D01*
X187688353Y-81633815D01*
X187688351Y-81633816D01*
X187688351Y-81633817D01*
X187537624Y-81791463D01*
X187417471Y-81973488D01*
X187331745Y-82174054D01*
X187283213Y-82386691D01*
X187273426Y-82604580D01*
X187302705Y-82820720D01*
X187370103Y-83028151D01*
X187473462Y-83220223D01*
X187609447Y-83390743D01*
X187773698Y-83534245D01*
X187773699Y-83534246D01*
X187773702Y-83534248D01*
X187960938Y-83646117D01*
X187960939Y-83646117D01*
X187960942Y-83646119D01*
X188114265Y-83703662D01*
X188170113Y-83745647D01*
X188194397Y-83811161D01*
X188179406Y-83879404D01*
X188129900Y-83928708D01*
X188103685Y-83939286D01*
X188061316Y-83950979D01*
X187864810Y-84045611D01*
X187782034Y-84105752D01*
X187688353Y-84173815D01*
X187688351Y-84173816D01*
X187688351Y-84173817D01*
X187537624Y-84331463D01*
X187417471Y-84513488D01*
X187331745Y-84714054D01*
X187283213Y-84926691D01*
X187273426Y-85144580D01*
X187302705Y-85360720D01*
X187370103Y-85568151D01*
X187473462Y-85760223D01*
X187609447Y-85930743D01*
X187773698Y-86074245D01*
X187773699Y-86074246D01*
X187773702Y-86074248D01*
X187960938Y-86186117D01*
X187960939Y-86186117D01*
X187960942Y-86186119D01*
X188114265Y-86243662D01*
X188170113Y-86285647D01*
X188194397Y-86351161D01*
X188179406Y-86419404D01*
X188129900Y-86468708D01*
X188103685Y-86479286D01*
X188061316Y-86490979D01*
X187864810Y-86585611D01*
X187782034Y-86645752D01*
X187688353Y-86713815D01*
X187688351Y-86713816D01*
X187688351Y-86713817D01*
X187537624Y-86871463D01*
X187417471Y-87053488D01*
X187331745Y-87254054D01*
X187283213Y-87466691D01*
X187273426Y-87684580D01*
X187302705Y-87900720D01*
X187367189Y-88099184D01*
X187370104Y-88108153D01*
X187442694Y-88243048D01*
X187473462Y-88300223D01*
X187609447Y-88470743D01*
X187773698Y-88614245D01*
X187773699Y-88614246D01*
X187773702Y-88614248D01*
X187960938Y-88726117D01*
X187960939Y-88726117D01*
X187960942Y-88726119D01*
X188114265Y-88783662D01*
X188170113Y-88825647D01*
X188194397Y-88891161D01*
X188179406Y-88959404D01*
X188129900Y-89008708D01*
X188103685Y-89019286D01*
X188061316Y-89030979D01*
X187864810Y-89125611D01*
X187782034Y-89185752D01*
X187688353Y-89253815D01*
X187688351Y-89253816D01*
X187688351Y-89253817D01*
X187537624Y-89411463D01*
X187417471Y-89593488D01*
X187331745Y-89794054D01*
X187283213Y-90006691D01*
X187273426Y-90224580D01*
X187302705Y-90440720D01*
X187370103Y-90648151D01*
X187473462Y-90840223D01*
X187609447Y-91010743D01*
X187773698Y-91154245D01*
X187773699Y-91154246D01*
X187773702Y-91154248D01*
X187960938Y-91266117D01*
X187960939Y-91266117D01*
X187960942Y-91266119D01*
X188114265Y-91323662D01*
X188170113Y-91365647D01*
X188194397Y-91431161D01*
X188179406Y-91499404D01*
X188129900Y-91548708D01*
X188103685Y-91559286D01*
X188061316Y-91570979D01*
X187864810Y-91665611D01*
X187782034Y-91725752D01*
X187688353Y-91793815D01*
X187688351Y-91793816D01*
X187688351Y-91793817D01*
X187537624Y-91951463D01*
X187417471Y-92133488D01*
X187331745Y-92334054D01*
X187283213Y-92546691D01*
X187273426Y-92764580D01*
X187302705Y-92980720D01*
X187370103Y-93188151D01*
X187473462Y-93380223D01*
X187609447Y-93550743D01*
X187773698Y-93694245D01*
X187773699Y-93694246D01*
X187773702Y-93694248D01*
X187960938Y-93806117D01*
X187960939Y-93806117D01*
X187960942Y-93806119D01*
X188114265Y-93863662D01*
X188170113Y-93905647D01*
X188194397Y-93971161D01*
X188179406Y-94039404D01*
X188129900Y-94088708D01*
X188103685Y-94099286D01*
X188061316Y-94110979D01*
X187864810Y-94205611D01*
X187782034Y-94265752D01*
X187688353Y-94333815D01*
X187688351Y-94333816D01*
X187688351Y-94333817D01*
X187537624Y-94491463D01*
X187417471Y-94673488D01*
X187331745Y-94874054D01*
X187283213Y-95086691D01*
X187273426Y-95304580D01*
X187302705Y-95520720D01*
X187368047Y-95721824D01*
X187370104Y-95728153D01*
X187405551Y-95794025D01*
X187473462Y-95920223D01*
X187609447Y-96090743D01*
X187773698Y-96234245D01*
X187773699Y-96234246D01*
X187773702Y-96234248D01*
X187960938Y-96346117D01*
X187960939Y-96346117D01*
X187960942Y-96346119D01*
X188114265Y-96403662D01*
X188170113Y-96445647D01*
X188194397Y-96511161D01*
X188179406Y-96579404D01*
X188129900Y-96628708D01*
X188103685Y-96639286D01*
X188061316Y-96650979D01*
X187864810Y-96745611D01*
X187782034Y-96805752D01*
X187688353Y-96873815D01*
X187688351Y-96873816D01*
X187688351Y-96873817D01*
X187537624Y-97031463D01*
X187417471Y-97213488D01*
X187331745Y-97414054D01*
X187283213Y-97626691D01*
X187273426Y-97844580D01*
X187302705Y-98060720D01*
X187370103Y-98268151D01*
X187473462Y-98460223D01*
X187609447Y-98630743D01*
X187773698Y-98774245D01*
X187773699Y-98774246D01*
X187773702Y-98774248D01*
X187960938Y-98886117D01*
X187960939Y-98886117D01*
X187960942Y-98886119D01*
X188165139Y-98962755D01*
X188379744Y-99001700D01*
X188379745Y-99001700D01*
X189962845Y-99001700D01*
X189965622Y-99001700D01*
X190128432Y-98987047D01*
X190338682Y-98929021D01*
X190535192Y-98834387D01*
X190711647Y-98706185D01*
X190862375Y-98548536D01*
X190982531Y-98366508D01*
X191068253Y-98165949D01*
X191116787Y-97953308D01*
X191126573Y-97735418D01*
X191097295Y-97519281D01*
X191029896Y-97311847D01*
X190926540Y-97119780D01*
X190926537Y-97119776D01*
X190790552Y-96949256D01*
X190626301Y-96805754D01*
X190439059Y-96693881D01*
X190285733Y-96636337D01*
X190229885Y-96594352D01*
X190205602Y-96528837D01*
X190220593Y-96460595D01*
X190270100Y-96411291D01*
X190296308Y-96400715D01*
X190338682Y-96389021D01*
X190535192Y-96294387D01*
X190711647Y-96166185D01*
X190862375Y-96008536D01*
X190982531Y-95826508D01*
X191068253Y-95625949D01*
X191116787Y-95413308D01*
X191126573Y-95195418D01*
X191097295Y-94979281D01*
X191029896Y-94771847D01*
X190926540Y-94579780D01*
X190926537Y-94579776D01*
X190790552Y-94409256D01*
X190626301Y-94265754D01*
X190439059Y-94153881D01*
X190285733Y-94096337D01*
X190229885Y-94054352D01*
X190205602Y-93988837D01*
X190220593Y-93920595D01*
X190270100Y-93871291D01*
X190296308Y-93860715D01*
X190338682Y-93849021D01*
X190535192Y-93754387D01*
X190711647Y-93626185D01*
X190862375Y-93468536D01*
X190982531Y-93286508D01*
X191068253Y-93085949D01*
X191116787Y-92873308D01*
X191126573Y-92655418D01*
X191097295Y-92439281D01*
X191029896Y-92231847D01*
X190926540Y-92039780D01*
X190926537Y-92039776D01*
X190790552Y-91869256D01*
X190626301Y-91725754D01*
X190439059Y-91613881D01*
X190285733Y-91556337D01*
X190229885Y-91514352D01*
X190205602Y-91448837D01*
X190220593Y-91380595D01*
X190270100Y-91331291D01*
X190296308Y-91320715D01*
X190338682Y-91309021D01*
X190535192Y-91214387D01*
X190711647Y-91086185D01*
X190862375Y-90928536D01*
X190982531Y-90746508D01*
X191068253Y-90545949D01*
X191116787Y-90333308D01*
X191126573Y-90115418D01*
X191097295Y-89899281D01*
X191029896Y-89691847D01*
X190926540Y-89499780D01*
X190926537Y-89499776D01*
X190790552Y-89329256D01*
X190626301Y-89185754D01*
X190439059Y-89073881D01*
X190285733Y-89016337D01*
X190229885Y-88974352D01*
X190205602Y-88908837D01*
X190220593Y-88840595D01*
X190270100Y-88791291D01*
X190296308Y-88780715D01*
X190338682Y-88769021D01*
X190535192Y-88674387D01*
X190711647Y-88546185D01*
X190862375Y-88388536D01*
X190982531Y-88206508D01*
X191068253Y-88005949D01*
X191116787Y-87793308D01*
X191126573Y-87575418D01*
X191097295Y-87359281D01*
X191029896Y-87151847D01*
X190926540Y-86959780D01*
X190926537Y-86959776D01*
X190790552Y-86789256D01*
X190626301Y-86645754D01*
X190439059Y-86533881D01*
X190285733Y-86476337D01*
X190229885Y-86434352D01*
X190205602Y-86368837D01*
X190220593Y-86300595D01*
X190270100Y-86251291D01*
X190296308Y-86240715D01*
X190338682Y-86229021D01*
X190535192Y-86134387D01*
X190711647Y-86006185D01*
X190862375Y-85848536D01*
X190982531Y-85666508D01*
X191068253Y-85465949D01*
X191116787Y-85253308D01*
X191126573Y-85035418D01*
X191097295Y-84819281D01*
X191029896Y-84611847D01*
X190926540Y-84419780D01*
X190926537Y-84419776D01*
X190790552Y-84249256D01*
X190626301Y-84105754D01*
X190439059Y-83993881D01*
X190285733Y-83936337D01*
X190229885Y-83894352D01*
X190205602Y-83828837D01*
X190220593Y-83760595D01*
X190270100Y-83711291D01*
X190296308Y-83700715D01*
X190338682Y-83689021D01*
X190535192Y-83594387D01*
X190711647Y-83466185D01*
X190862375Y-83308536D01*
X190982531Y-83126508D01*
X191068253Y-82925949D01*
X191116787Y-82713308D01*
X191126573Y-82495418D01*
X191097295Y-82279281D01*
X191029896Y-82071847D01*
X190926540Y-81879780D01*
X190926537Y-81879776D01*
X190790552Y-81709256D01*
X190626301Y-81565754D01*
X190439059Y-81453881D01*
X190285733Y-81396337D01*
X190229885Y-81354352D01*
X190205602Y-81288837D01*
X190220593Y-81220595D01*
X190270100Y-81171291D01*
X190296308Y-81160715D01*
X190338682Y-81149021D01*
X190535192Y-81054387D01*
X190711647Y-80926185D01*
X190862375Y-80768536D01*
X190982531Y-80586508D01*
X191068253Y-80385949D01*
X191116787Y-80173308D01*
X191126573Y-79955418D01*
X191097295Y-79739281D01*
X191029896Y-79531847D01*
X190926540Y-79339780D01*
X190888454Y-79292021D01*
X190790552Y-79169256D01*
X190626301Y-79025754D01*
X190591439Y-79004925D01*
X190439062Y-78913883D01*
X190439059Y-78913881D01*
X190285733Y-78856337D01*
X190229885Y-78814352D01*
X190205602Y-78748837D01*
X190220593Y-78680595D01*
X190270100Y-78631291D01*
X190296308Y-78620715D01*
X190338682Y-78609021D01*
X190535192Y-78514387D01*
X190711647Y-78386185D01*
X190862375Y-78228536D01*
X190982531Y-78046508D01*
X191068253Y-77845949D01*
X191116787Y-77633308D01*
X191126573Y-77415418D01*
X191097295Y-77199281D01*
X191029896Y-76991847D01*
X190926540Y-76799780D01*
X190911896Y-76781417D01*
X190790552Y-76629256D01*
X190626301Y-76485754D01*
X190577564Y-76456635D01*
X190439062Y-76373883D01*
X190439059Y-76373881D01*
X190285733Y-76316337D01*
X190229885Y-76274352D01*
X190205602Y-76208837D01*
X190220593Y-76140595D01*
X190270100Y-76091291D01*
X190296308Y-76080715D01*
X190338682Y-76069021D01*
X190535192Y-75974387D01*
X190711647Y-75846185D01*
X190862375Y-75688536D01*
X190982531Y-75506508D01*
X191068253Y-75305949D01*
X191116787Y-75093308D01*
X191126573Y-74875418D01*
X191097295Y-74659281D01*
X191029896Y-74451847D01*
X190926540Y-74259780D01*
X190926537Y-74259776D01*
X190790552Y-74089256D01*
X190626301Y-73945754D01*
X190439059Y-73833881D01*
X190285733Y-73776337D01*
X190229885Y-73734352D01*
X190205602Y-73668837D01*
X190220593Y-73600595D01*
X190270100Y-73551291D01*
X190296308Y-73540715D01*
X190338682Y-73529021D01*
X190535192Y-73434387D01*
X190711647Y-73306185D01*
X190862375Y-73148536D01*
X190982531Y-72966508D01*
X191068253Y-72765949D01*
X191116787Y-72553308D01*
X191126573Y-72335418D01*
X191097295Y-72119281D01*
X191029896Y-71911847D01*
X190926540Y-71719780D01*
X190926537Y-71719776D01*
X190790552Y-71549256D01*
X190626301Y-71405754D01*
X190439059Y-71293881D01*
X190285733Y-71236337D01*
X190229885Y-71194352D01*
X190205602Y-71128837D01*
X190220593Y-71060595D01*
X190270100Y-71011291D01*
X190296308Y-71000715D01*
X190338682Y-70989021D01*
X190535192Y-70894387D01*
X190711647Y-70766185D01*
X190862375Y-70608536D01*
X190982531Y-70426508D01*
X191068253Y-70225949D01*
X191116787Y-70013308D01*
X191126573Y-69795418D01*
X191097295Y-69579281D01*
X191029896Y-69371847D01*
X190926540Y-69179780D01*
X190926537Y-69179776D01*
X190790552Y-69009256D01*
X190626301Y-68865754D01*
X190439059Y-68753881D01*
X190285733Y-68696337D01*
X190229885Y-68654352D01*
X190205602Y-68588837D01*
X190220593Y-68520595D01*
X190270100Y-68471291D01*
X190296308Y-68460715D01*
X190338682Y-68449021D01*
X190535192Y-68354387D01*
X190711647Y-68226185D01*
X190862375Y-68068536D01*
X190982531Y-67886508D01*
X191068253Y-67685949D01*
X191116787Y-67473308D01*
X191126573Y-67255418D01*
X191097295Y-67039281D01*
X191029896Y-66831847D01*
X190926540Y-66639780D01*
X190926537Y-66639776D01*
X190790552Y-66469256D01*
X190626301Y-66325754D01*
X190439059Y-66213881D01*
X190285733Y-66156337D01*
X190229885Y-66114352D01*
X190205602Y-66048837D01*
X190220593Y-65980595D01*
X190270100Y-65931291D01*
X190296308Y-65920715D01*
X190338682Y-65909021D01*
X190535192Y-65814387D01*
X190711647Y-65686185D01*
X190862375Y-65528536D01*
X190982531Y-65346508D01*
X191068253Y-65145949D01*
X191116787Y-64933308D01*
X191126573Y-64715418D01*
X191097295Y-64499281D01*
X191029896Y-64291847D01*
X190926540Y-64099780D01*
X190926537Y-64099776D01*
X190790552Y-63929256D01*
X190626301Y-63785754D01*
X190439059Y-63673881D01*
X190285733Y-63616337D01*
X190229885Y-63574352D01*
X190205602Y-63508837D01*
X190220593Y-63440595D01*
X190270100Y-63391291D01*
X190296308Y-63380715D01*
X190338682Y-63369021D01*
X190535192Y-63274387D01*
X190711647Y-63146185D01*
X190862375Y-62988536D01*
X190982531Y-62806508D01*
X191068253Y-62605949D01*
X191116787Y-62393308D01*
X191126573Y-62175418D01*
X191097295Y-61959281D01*
X191029896Y-61751847D01*
X190926540Y-61559780D01*
X190926537Y-61559776D01*
X190790552Y-61389256D01*
X190626301Y-61245754D01*
X190439059Y-61133881D01*
X190285733Y-61076337D01*
X190229885Y-61034352D01*
X190205602Y-60968837D01*
X190220593Y-60900595D01*
X190270100Y-60851291D01*
X190296308Y-60840715D01*
X190338682Y-60829021D01*
X190535192Y-60734387D01*
X190711647Y-60606185D01*
X190862375Y-60448536D01*
X190982531Y-60266508D01*
X191068253Y-60065949D01*
X191116787Y-59853308D01*
X191126573Y-59635418D01*
X191097295Y-59419281D01*
X191029896Y-59211847D01*
X190926540Y-59019780D01*
X190926537Y-59019776D01*
X190790552Y-58849256D01*
X190626301Y-58705754D01*
X190439059Y-58593881D01*
X190285733Y-58536337D01*
X190229885Y-58494352D01*
X190205602Y-58428837D01*
X190220593Y-58360595D01*
X190270100Y-58311291D01*
X190296308Y-58300715D01*
X190338682Y-58289021D01*
X190535192Y-58194387D01*
X190711647Y-58066185D01*
X190862375Y-57908536D01*
X190982531Y-57726508D01*
X191068253Y-57525949D01*
X191116787Y-57313308D01*
X191126573Y-57095418D01*
X191097295Y-56879281D01*
X191029896Y-56671847D01*
X190926540Y-56479780D01*
X190926537Y-56479776D01*
X190790552Y-56309256D01*
X190626301Y-56165754D01*
X190439059Y-56053881D01*
X190285733Y-55996337D01*
X190229885Y-55954352D01*
X190205602Y-55888837D01*
X190220593Y-55820595D01*
X190270100Y-55771291D01*
X190296308Y-55760715D01*
X190338682Y-55749021D01*
X190535192Y-55654387D01*
X190711647Y-55526185D01*
X190862375Y-55368536D01*
X190982531Y-55186508D01*
X191068253Y-54985949D01*
X191116787Y-54773308D01*
X191126573Y-54555418D01*
X191097295Y-54339281D01*
X191029896Y-54131847D01*
X190926540Y-53939780D01*
X190926537Y-53939776D01*
X190790552Y-53769256D01*
X190626301Y-53625754D01*
X190439059Y-53513881D01*
X190285733Y-53456337D01*
X190229885Y-53414352D01*
X190205602Y-53348837D01*
X190220593Y-53280595D01*
X190270100Y-53231291D01*
X190296308Y-53220715D01*
X190338682Y-53209021D01*
X190535192Y-53114387D01*
X190711647Y-52986185D01*
X190862375Y-52828536D01*
X190982531Y-52646508D01*
X191068253Y-52445949D01*
X191116787Y-52233308D01*
X191126573Y-52015418D01*
X191097295Y-51799281D01*
X191029896Y-51591847D01*
X190926540Y-51399780D01*
X190926537Y-51399776D01*
X190790552Y-51229256D01*
X190626301Y-51085754D01*
X190577621Y-51056669D01*
X190439062Y-50973883D01*
X190439057Y-50973880D01*
X190234860Y-50897244D01*
X190020256Y-50858300D01*
X190020255Y-50858300D01*
X189942806Y-50858300D01*
X189875767Y-50838615D01*
X189855125Y-50821981D01*
X188226793Y-49193649D01*
X188219965Y-49186242D01*
X188184634Y-49144646D01*
X188184632Y-49144645D01*
X188184631Y-49144643D01*
X188119590Y-49095201D01*
X188116961Y-49093145D01*
X188100785Y-49080142D01*
X188053297Y-49041970D01*
X188053294Y-49041968D01*
X188053290Y-49041965D01*
X188053120Y-49041881D01*
X188033187Y-49029517D01*
X188033035Y-49029401D01*
X187958896Y-48995100D01*
X187955872Y-48993650D01*
X187882692Y-48957358D01*
X187882499Y-48957310D01*
X187860375Y-48949520D01*
X187860196Y-48949437D01*
X187780412Y-48931874D01*
X187777146Y-48931109D01*
X187697885Y-48911399D01*
X187697689Y-48911394D01*
X187674418Y-48908544D01*
X187674218Y-48908500D01*
X187674216Y-48908500D01*
X187592537Y-48908500D01*
X187589179Y-48908455D01*
X187507528Y-48906243D01*
X187507527Y-48906243D01*
X187507342Y-48906278D01*
X187483976Y-48908500D01*
X159044630Y-48908500D01*
X159034567Y-48908091D01*
X159020879Y-48906976D01*
X158980152Y-48903660D01*
X158980151Y-48903660D01*
X158980150Y-48903660D01*
X158965114Y-48905708D01*
X158945028Y-48906797D01*
X158924530Y-48906242D01*
X158924417Y-48906264D01*
X158924343Y-48906278D01*
X158900975Y-48908500D01*
X158013537Y-48908500D01*
X158010179Y-48908455D01*
X157928528Y-48906243D01*
X157928527Y-48906243D01*
X157928342Y-48906278D01*
X157904976Y-48908500D01*
X134914617Y-48908500D01*
X134904554Y-48908091D01*
X134882289Y-48906278D01*
X134850152Y-48903661D01*
X134850151Y-48903661D01*
X134769212Y-48914688D01*
X134765880Y-48915096D01*
X134684685Y-48923926D01*
X134684496Y-48923990D01*
X134661661Y-48929341D01*
X134661466Y-48929367D01*
X134584779Y-48957541D01*
X134581629Y-48958650D01*
X134513267Y-48981684D01*
X134504211Y-48984736D01*
X134504043Y-48984838D01*
X134482905Y-48994967D01*
X134482717Y-48995035D01*
X134413891Y-49039027D01*
X134411042Y-49040794D01*
X134341040Y-49082914D01*
X134340893Y-49083054D01*
X134322431Y-49097487D01*
X134322261Y-49097595D01*
X134264494Y-49155361D01*
X134262090Y-49157700D01*
X134202792Y-49213871D01*
X134202683Y-49214033D01*
X134187737Y-49232117D01*
X133034815Y-50385040D01*
X132007674Y-51412181D01*
X131946351Y-51445666D01*
X131919993Y-51448500D01*
X120941493Y-51448500D01*
X120874454Y-51428815D01*
X120828699Y-51376011D01*
X120818755Y-51306853D01*
X120839916Y-51253379D01*
X120891534Y-51179662D01*
X120984894Y-50979450D01*
X121042070Y-50766068D01*
X121061323Y-50546000D01*
X121042070Y-50325932D01*
X120984894Y-50112550D01*
X120891534Y-49912339D01*
X120764826Y-49731380D01*
X120608620Y-49575174D01*
X120427662Y-49448466D01*
X120227451Y-49355106D01*
X120014065Y-49297929D01*
X119794000Y-49278676D01*
X119573934Y-49297929D01*
X119360548Y-49355106D01*
X119160338Y-49448466D01*
X118979379Y-49575174D01*
X118823174Y-49731379D01*
X118696466Y-49912338D01*
X118636382Y-50041189D01*
X118590209Y-50093628D01*
X118523016Y-50112780D01*
X118456135Y-50092564D01*
X118411618Y-50041189D01*
X118351651Y-49912590D01*
X118351534Y-49912339D01*
X118224826Y-49731380D01*
X118068620Y-49575174D01*
X117887662Y-49448466D01*
X117687451Y-49355106D01*
X117474065Y-49297929D01*
X117254000Y-49278676D01*
X117033934Y-49297929D01*
X116820548Y-49355106D01*
X116620338Y-49448466D01*
X116439379Y-49575174D01*
X116283174Y-49731379D01*
X116156467Y-49912336D01*
X116096381Y-50041190D01*
X116050208Y-50093629D01*
X115983014Y-50112780D01*
X115916133Y-50092564D01*
X115871617Y-50041188D01*
X115811534Y-49912339D01*
X115684825Y-49731379D01*
X115528620Y-49575174D01*
X115347662Y-49448466D01*
X115147451Y-49355106D01*
X114934065Y-49297929D01*
X114714000Y-49278676D01*
X114493934Y-49297929D01*
X114280548Y-49355106D01*
X114080338Y-49448466D01*
X113899379Y-49575174D01*
X113743174Y-49731379D01*
X113616467Y-49912336D01*
X113556105Y-50041782D01*
X113509932Y-50094221D01*
X113442738Y-50113372D01*
X113375857Y-50093156D01*
X113331341Y-50041780D01*
X113271099Y-49912590D01*
X113225740Y-49847811D01*
X112558903Y-50514648D01*
X112558949Y-50514102D01*
X112527734Y-50390838D01*
X112458187Y-50284388D01*
X112357843Y-50206287D01*
X112237578Y-50165000D01*
X112201447Y-50165000D01*
X112872187Y-49494258D01*
X112807406Y-49448898D01*
X112607281Y-49355579D01*
X112393978Y-49298424D01*
X112173999Y-49279178D01*
X111954021Y-49298424D01*
X111740719Y-49355578D01*
X111540589Y-49448900D01*
X111475812Y-49494258D01*
X111475811Y-49494258D01*
X112146554Y-50165000D01*
X112142431Y-50165000D01*
X112048579Y-50180661D01*
X111936749Y-50241180D01*
X111850629Y-50334731D01*
X111799552Y-50451177D01*
X111793894Y-50519447D01*
X111122258Y-49847811D01*
X111122258Y-49847812D01*
X111076900Y-49912589D01*
X110983578Y-50112719D01*
X110926424Y-50326021D01*
X110907178Y-50545999D01*
X97916023Y-50545999D01*
X97999853Y-50387880D01*
X98132324Y-50055403D01*
X98228071Y-49710552D01*
X98285972Y-49357371D01*
X98305348Y-49000000D01*
X98285972Y-48642629D01*
X98228071Y-48289448D01*
X98132324Y-47944597D01*
X97999853Y-47612120D01*
X97832211Y-47295915D01*
X97631365Y-46999689D01*
X97399668Y-46726914D01*
X97397235Y-46724609D01*
X97397230Y-46724604D01*
X97142267Y-46483091D01*
X97139837Y-46480789D01*
X96854919Y-46264200D01*
X96852045Y-46262471D01*
X96852041Y-46262468D01*
X96799325Y-46230750D01*
X96752030Y-46179321D01*
X96740048Y-46110486D01*
X96767183Y-46046101D01*
X96824820Y-46006607D01*
X96863254Y-46000500D01*
X197136746Y-46000500D01*
X197203785Y-46020185D01*
G37*
%TD.AperFunction*%
%TD*%
M02*
